<?xml version="1.0" standalone="no"?>
<!DOCTYPE svg PUBLIC "-//W3C//DTD SVG 20010904//EN"
 "http://www.w3.org/TR/2001/REC-SVG-20010904/DTD/svg10.dtd">
<svg version="1.0" xmlns="http://www.w3.org/2000/svg"
 width="1920.000000pt" height="1080.000000pt" viewBox="0 0 1920.000000 1080.000000"
 preserveAspectRatio="xMidYMid meet">
<metadata>
Created by potrace 1.15, written by Peter Selinger 2001-2017
</metadata>
<g transform="translate(0.000000,1080.000000) scale(0.100000,-0.100000)"
fill="#000000" stroke="none">
<path d="M9106 9902 c-17 -26 -36 -57 -44 -69 l-14 -23 286 0 285 0 37 57 c20
31 38 62 41 70 4 11 -47 13 -278 13 l-284 0 -29 -48z"/>
<path d="M9646 9665 l-178 -285 -194 0 c-107 0 -194 2 -194 5 0 3 20 36 45 75
l45 70 122 0 123 0 38 63 c20 35 37 66 37 70 0 4 -119 7 -265 7 l-264 0 -37
-57 c-54 -84 -54 -82 15 -85 l60 -3 -84 -135 c-47 -74 -85 -138 -85 -142 0 -5
162 -8 359 -8 l359 0 137 220 c75 121 140 220 144 220 6 0 79 -116 89 -142 2
-4 -14 -8 -35 -8 -36 0 -40 -3 -80 -67 l-42 -68 127 -5 127 -5 47 -72 48 -73
81 0 c61 0 79 3 73 13 -27 47 -419 674 -428 684 -8 9 -55 -57 -190 -272z"/>
<path d="M8837 9152 c-11 -12 -17 -36 -17 -65 0 -59 31 -87 96 -87 l44 0 0
-40 0 -40 -40 0 c-34 0 -42 4 -50 25 -6 15 -17 25 -30 25 -29 0 -26 -45 5 -75
20 -21 34 -25 79 -25 47 0 57 4 75 26 16 21 19 35 14 72 -7 61 -22 75 -86 82
-50 5 -52 6 -55 37 -3 27 1 33 22 39 34 8 63 -3 69 -26 3 -12 14 -20 26 -20
16 0 21 6 21 28 0 45 -27 62 -97 62 -45 0 -64 -4 -76 -18z"/>
<path d="M9080 9020 l0 -150 25 0 c24 0 25 3 25 55 l0 55 50 0 c70 0 100 29
100 97 0 28 -7 58 -16 71 -14 20 -24 22 -100 22 l-84 0 0 -150z"/>
<path d="M9357 9152 c-14 -15 -17 -41 -17 -135 0 -108 1 -117 22 -131 13 -10
43 -16 73 -16 30 0 60 6 73 16 21 14 22 23 22 133 0 143 -5 151 -97 151 -45 0
-64 -4 -76 -18z m101 -28 c22 -6 23 -10 20 -103 l-3 -96 -42 -3 -43 -3 0 100
c0 102 0 101 40 110 3 0 15 -2 28 -5z"/>
<path d="M9610 9020 l0 -150 25 0 c24 0 25 3 25 61 0 59 0 60 26 57 21 -2 30
-13 48 -58 18 -46 27 -56 49 -58 15 -2 27 -2 27 1 0 2 -11 30 -24 62 -23 56
-23 58 -5 76 14 14 19 34 19 72 0 75 -15 87 -113 87 l-77 0 0 -150z"/>
<path d="M9832 9148 c2 -18 10 -22 38 -23 l35 0 3 -127 3 -128 24 0 24 0 3
128 3 127 38 3 c29 3 37 7 37 23 0 18 -8 19 -106 19 -103 0 -105 -1 -102 -22z"/>
<path d="M10096 9148 c-9 -12 -16 -41 -16 -64 0 -56 33 -84 97 -84 l44 0 -3
-37 c-3 -36 -5 -38 -41 -41 -32 -3 -39 0 -44 17 -3 14 -13 21 -29 21 -20 0
-24 -5 -24 -29 0 -45 31 -62 100 -55 70 8 90 29 90 93 0 65 -10 75 -77 81 -51
4 -58 8 -61 28 -2 13 2 30 8 38 18 21 68 18 82 -6 18 -29 48 -26 48 4 0 42
-25 56 -95 56 -55 0 -66 -3 -79 -22z"/>
<path d="M8495 9000 c-6 -9 1 -14 18 -11 12 2 8 -18 -9 -44 -13 -20 -14 -25
-3 -25 11 -1 10 -4 -2 -13 -29 -23 -39 -50 -23 -72 8 -10 14 -24 14 -29 0 -6
-4 -5 -9 3 -15 24 -27 4 -24 -43 1 -25 -2 -48 -7 -51 -6 -4 -7 -11 -4 -17 6
-9 6 -68 1 -201 -1 -26 2 -48 6 -50 5 -1 -3 -15 -17 -30 -14 -16 -26 -34 -26
-41 0 -18 -96 -116 -114 -116 -8 0 -17 -9 -21 -19 -3 -11 -14 -20 -23 -20 -46
-2 -98 -15 -108 -28 -5 -8 -32 -17 -60 -20 -27 -3 -57 -13 -67 -21 -10 -9 -34
-15 -53 -15 -20 1 -33 -1 -30 -4 12 -12 -30 -32 -66 -33 -20 0 -40 -4 -43 -10
-4 -6 5 -10 21 -10 l27 0 -6 -97 c-4 -54 -7 -306 -7 -560 l0 -463 -135 0 -135
0 0 530 0 531 -22 -4 c-58 -8 -68 -23 -68 -97 l0 -70 -125 0 c-112 0 -127 -2
-145 -20 -12 -12 -18 -24 -16 -29 3 -5 -8 -19 -24 -31 -16 -12 -27 -26 -25
-30 3 -4 -2 -13 -11 -20 -8 -7 -13 -19 -10 -26 3 -7 -2 -15 -10 -18 -8 -3 -14
-12 -14 -20 0 -13 23 -16 133 -18 l132 -3 3 -111 3 -111 -53 -6 c-29 -4 -96
-7 -149 -7 l-97 0 2 -67 c1 -45 5 -67 13 -66 6 1 9 -7 7 -20 -2 -12 -1 -16 2
-9 8 18 44 -35 37 -54 -3 -9 2 -14 16 -14 14 0 19 -5 15 -15 -5 -11 -2 -14 12
-9 11 4 16 4 12 0 -8 -10 14 -36 25 -29 4 2 7 -5 7 -16 0 -11 12 -28 28 -38
15 -10 34 -25 42 -33 14 -14 14 -14 5 0 -6 10 -2 9 12 -4 13 -10 20 -23 17
-27 -5 -9 8 -13 39 -10 9 1 17 -3 17 -8 0 -6 3 -10 8 -10 25 4 35 -2 24 -13
-17 -17 26 -38 52 -25 13 6 16 6 12 -2 -8 -12 38 -26 54 -16 7 4 14 -1 17 -13
3 -14 11 -18 25 -14 14 3 19 1 15 -5 -5 -7 0 -9 12 -6 10 3 30 -2 42 -10 13
-8 42 -20 64 -27 22 -7 45 -17 52 -22 7 -5 21 -7 31 -4 14 5 21 1 24 -11 3
-11 23 -23 51 -32 26 -7 47 -17 47 -21 0 -4 23 -19 50 -32 38 -19 50 -22 50
-11 0 11 6 10 25 -6 23 -17 39 -19 153 -18 70 2 133 6 140 10 6 5 16 6 21 3 5
-3 28 1 52 9 26 9 45 12 49 6 6 -10 150 -8 168 2 5 4 13 0 16 -9 3 -9 11 -12
18 -8 6 4 58 6 116 5 82 -2 109 1 129 14 17 12 35 15 59 10 19 -3 34 -2 34 3
0 13 79 20 83 8 2 -5 10 -1 19 8 9 9 33 16 53 16 20 0 44 4 54 9 9 5 22 6 29
2 6 -4 37 -4 67 -1 48 5 56 4 61 -13 4 -13 9 -16 13 -8 10 15 61 10 61 -6 0
-7 5 -13 10 -13 6 0 10 3 10 8 0 4 18 8 40 8 21 1 39 -1 38 -5 -2 -19 5 -29
29 -40 23 -11 25 -10 14 3 -10 12 -9 15 8 13 11 0 17 -5 15 -9 -3 -4 5 -8 18
-9 13 0 33 -2 46 -5 12 -2 22 0 22 4 0 4 12 9 27 10 26 2 26 1 7 -13 -16 -12
-16 -14 -3 -15 9 0 22 7 29 15 14 17 40 20 40 5 0 -5 9 -10 20 -10 11 0 20 4
20 9 0 5 7 12 16 15 8 3 12 2 9 -4 -3 -6 5 -10 19 -10 14 0 28 5 32 11 3 6 17
8 30 5 13 -4 24 -3 24 2 0 10 65 42 87 42 8 0 23 8 32 19 9 10 27 22 41 26 14
4 36 15 49 23 13 9 32 17 43 17 11 1 23 6 26 12 4 6 21 14 39 17 21 5 30 12
27 21 -5 11 4 13 39 9 36 -3 46 -1 51 14 3 9 9 23 12 30 3 7 -1 12 -11 12 -10
0 -15 5 -12 13 3 6 40 90 81 186 42 96 76 176 76 177 0 1 -44 4 -97 6 -134 6
-190 36 -239 128 -17 31 -19 59 -19 235 0 226 6 249 81 315 65 56 90 62 289
63 176 2 180 2 144 18 -20 9 -39 24 -42 33 -4 9 -13 13 -21 10 -8 -3 -21 -2
-28 2 -13 9 -18 10 -52 12 -13 2 -17 8 -13 22 6 23 3 24 -22 11 -13 -7 -22 -5
-34 9 -10 12 -12 22 -6 25 14 9 1 25 -21 25 -18 0 -50 49 -50 76 0 8 -6 11
-15 8 -10 -4 -15 0 -15 16 0 11 5 18 10 15 6 -3 10 -2 10 3 0 6 -7 13 -15 16
-13 5 -14 10 -4 27 8 15 8 19 0 15 -19 -12 -12 33 8 51 18 15 18 18 4 40 -14
21 -14 23 1 23 21 0 20 16 -1 25 -17 6 -17 7 0 19 11 9 17 27 17 54 l0 41 -92
-93 c-145 -146 -311 -244 -503 -296 -112 -31 -345 -39 -468 -16 -341 64 -628
284 -783 600 -24 49 -44 95 -44 102 0 18 -27 37 -35 24z m155 -1035 l0 -115
-189 0 c-229 0 -221 5 -221 -132 l0 -88 150 0 150 0 0 -110 0 -110 -150 0
-150 0 0 -225 0 -225 -137 0 -138 0 2 468 c1 513 0 504 62 574 17 20 50 46 74
57 39 20 58 21 295 21 l252 0 0 -115z m687 90 c28 -15 63 -41 78 -60 54 -72
55 -79 55 -576 l0 -459 -135 0 -135 0 0 190 0 190 -70 0 -70 0 0 115 0 115 70
0 70 0 0 113 c0 61 -3 122 -6 134 -8 29 -68 48 -118 39 -67 -13 -66 -3 -66
-473 l0 -423 -135 0 -135 0 0 459 c0 497 1 504 55 576 15 19 50 45 78 60 49
24 58 25 232 25 174 0 183 -1 232 -25z m609 -10 c30 -19 60 -49 79 -79 l30
-49 3 -479 3 -478 -136 0 -135 0 0 423 c0 490 4 467 -86 467 l-54 0 0 116 0
116 123 -4 c117 -3 126 -5 173 -33z"/>
<path d="M11570 8005 l0 -125 39 0 39 0 -1 48 c-2 46 -1 47 31 50 17 2 32 7
32 12 0 5 3 15 6 24 5 13 -2 16 -35 16 -37 0 -41 2 -41 24 0 23 4 25 51 28 43
2 53 7 60 26 8 22 8 22 -86 22 l-95 0 0 -125z"/>
<path d="M11790 8005 l0 -125 35 0 35 0 0 125 0 125 -35 0 -35 0 0 -125z"/>
<path d="M11920 8005 l0 -125 39 0 40 0 3 48 c3 42 6 47 28 51 51 7 55 51 5
51 -31 0 -35 3 -35 25 0 23 3 25 50 25 28 0 50 4 50 9 0 5 3 16 6 25 5 14 -6
16 -90 16 l-96 0 0 -125z"/>
<path d="M12165 8118 c-3 -7 -23 -64 -45 -125 l-40 -113 35 0 c24 0 37 6 45
20 8 15 21 20 50 20 29 0 42 -5 50 -20 8 -14 21 -20 45 -20 19 0 35 3 34 8 0
4 -19 59 -42 122 l-42 115 -43 3 c-28 2 -44 -1 -47 -10z"/>
<path d="M10482 7838 c-8 -8 -12 -51 -12 -130 0 -135 2 -138 90 -138 88 0 90
3 90 138 0 79 -4 122 -12 130 -7 7 -40 12 -78 12 -38 0 -71 -5 -78 -12z"/>
<path d="M13612 7735 c-12 -7 -29 -21 -37 -31 -12 -16 -17 -17 -34 -7 -11 7
-27 10 -35 7 -8 -3 -25 1 -38 9 -25 16 -118 22 -118 8 0 -13 -88 -19 -132 -9
-41 9 -112 -15 -138 -47 -8 -10 -10 -16 -5 -14 6 3 32 15 58 27 51 23 67 27
67 15 0 -10 -122 -68 -134 -65 -5 2 -18 -6 -30 -17 -11 -10 -43 -22 -69 -26
-58 -9 -99 -41 -121 -94 -8 -22 -24 -44 -34 -50 -10 -5 -31 -28 -47 -50 -21
-31 -26 -48 -22 -70 4 -21 1 -34 -13 -46 -11 -10 -20 -24 -20 -32 0 -7 -4 -21
-10 -31 -58 -105 -91 -198 -115 -322 -32 -167 -35 -186 -41 -262 -3 -43 -8
-78 -11 -78 -3 0 -16 9 -30 20 -14 11 -41 20 -60 20 -29 0 -37 -6 -63 -46 -48
-77 -49 -140 -3 -334 17 -73 34 -100 112 -183 33 -35 51 -61 45 -65 -6 -4 -14
-27 -17 -52 -4 -25 -27 -94 -53 -155 -113 -271 -119 -352 -43 -589 58 -178
243 -531 331 -631 41 -47 42 -61 1 -23 -13 12 -23 16 -23 10 0 -6 4 -13 9 -16
5 -3 11 -21 13 -40 l4 -33 -78 3 c-43 2 -80 -1 -83 -6 -11 -18 -25 -10 -25 13
0 25 -28 57 -48 57 -17 0 -15 -11 4 -25 11 -8 14 -19 10 -33 -9 -26 -24 -21
-85 25 -24 18 -46 31 -48 29 -2 -2 5 -20 16 -39 18 -32 19 -50 15 -199 -5
-183 -24 -278 -55 -278 -10 0 -21 5 -24 10 -3 6 -13 10 -22 10 -17 0 -195 -81
-190 -87 2 -2 35 8 73 22 47 17 90 25 134 25 36 0 94 5 130 10 35 5 66 8 67 6
2 -2 -22 -19 -52 -40 -30 -20 -55 -38 -55 -41 0 -10 96 2 116 15 12 7 39 42
60 77 52 86 113 182 136 215 10 15 18 32 18 38 0 5 6 10 13 10 8 0 22 9 32 20
10 11 13 20 7 20 -7 0 -11 5 -9 12 1 6 -9 15 -23 19 -18 5 -6 7 39 8 43 1 75
7 100 21 20 11 61 29 91 40 60 23 173 96 210 135 35 37 17 30 -51 -20 -65 -48
-89 -54 -110 -29 -11 13 -9 14 14 8 38 -9 81 23 153 112 61 77 86 92 39 24
-42 -60 -23 -59 26 2 88 107 154 178 167 178 7 0 24 8 38 17 20 13 27 14 33 4
7 -10 23 -8 76 8 106 33 126 29 201 -40 66 -59 183 -84 266 -56 51 18 96 11
129 -19 18 -16 19 -16 19 20 0 76 -79 113 -174 81 -41 -14 -67 -16 -120 -10
-63 6 -73 10 -117 52 -48 45 -114 73 -171 73 -15 0 -28 5 -28 10 0 6 -5 10
-11 10 -6 0 -8 -7 -5 -16 3 -9 -3 -29 -15 -45 -26 -37 -38 -30 -14 8 l18 28
-31 -29 c-29 -27 -35 -28 -89 -22 -105 11 -143 18 -149 27 -3 5 -16 9 -30 9
-13 0 -24 4 -24 10 0 6 29 9 68 9 75 -1 116 15 182 71 32 27 38 29 73 19 25
-7 37 -16 37 -28 0 -10 9 -26 20 -36 17 -15 31 -17 89 -11 68 6 71 5 104 -23
18 -16 52 -37 75 -46 24 -10 47 -26 53 -36 12 -23 29 -25 29 -4 0 8 -4 15 -10
15 -21 0 -8 17 32 43 33 21 50 26 73 21 42 -9 85 -32 118 -62 24 -22 29 -24
37 -12 23 36 11 58 -49 94 -101 62 -178 81 -210 52 -32 -28 -57 -28 -75 -1 -9
14 -21 23 -27 19 -6 -4 -4 -13 6 -24 26 -29 1 -33 -52 -10 -36 16 -59 20 -98
15 -27 -3 -57 -1 -65 4 -13 9 -11 14 12 37 22 23 29 25 42 15 8 -7 42 -15 75
-18 53 -5 66 -2 124 27 l65 34 63 -18 c37 -10 91 -36 129 -61 35 -24 66 -42
68 -40 3 2 2 15 -2 28 -7 30 -119 102 -220 141 -75 30 -60 32 -195 -19 -76
-28 -82 -12 -20 53 81 84 132 157 173 248 20 45 36 84 36 88 0 3 20 51 45 106
48 107 55 130 31 111 -11 -9 -15 -9 -19 1 -4 10 -9 9 -20 -4 -8 -10 -19 -18
-25 -18 -7 0 -9 -7 -5 -17 4 -10 2 -14 -4 -10 -6 4 -16 0 -23 -8 -7 -8 -18
-15 -25 -15 -18 0 -65 -58 -65 -80 0 -10 -4 -22 -10 -25 -5 -3 -10 -15 -10
-26 0 -29 -28 -79 -45 -79 -17 0 -34 -30 -28 -47 3 -7 1 -13 -5 -13 -16 0 -7
-69 11 -82 16 -12 15 -17 -18 -65 -19 -29 -35 -55 -35 -59 0 -4 -11 -22 -25
-40 -29 -38 -31 -46 -10 -38 18 7 20 -10 2 -24 -7 -6 -18 -7 -26 -3 -15 10 -1
68 45 189 31 81 31 102 -1 102 -22 0 -24 -3 -19 -29 8 -38 -9 -47 -27 -15 -18
34 -59 54 -109 54 -23 0 -55 7 -73 16 -25 14 -48 15 -119 10 -87 -6 -88 -5
-78 15 6 11 19 23 28 25 9 3 26 10 37 14 43 18 89 30 114 30 24 0 40 9 120 62
14 10 36 18 49 18 22 0 82 51 82 71 0 19 -28 20 -54 3 -25 -16 -30 -16 -81 1
-61 19 -143 79 -151 111 -4 14 6 38 28 70 18 27 36 51 39 54 3 3 9 26 13 53
l7 47 -25 -11 c-14 -7 -28 -19 -31 -28 -3 -9 -16 -29 -29 -46 l-24 -30 5 30
c4 27 3 28 -10 13 -8 -10 -17 -18 -21 -18 -21 0 -40 -37 -43 -83 -2 -36 -15
-75 -44 -134 -42 -85 -43 -86 -23 -180 4 -22 2 -33 -5 -33 -6 0 -11 5 -11 10
0 6 -11 10 -25 10 -14 0 -25 5 -25 10 0 6 -6 10 -14 10 -21 0 -49 49 -43 78 3
14 -1 35 -9 46 -7 12 -15 47 -18 79 -6 60 -27 112 -48 119 -7 3 -12 20 -11 41
1 37 -8 44 -54 38 -7 -1 -13 3 -13 9 0 6 -11 15 -24 20 -13 5 -27 18 -31 29
-3 12 -10 21 -15 21 -16 0 -59 72 -52 88 4 11 1 14 -11 9 -14 -5 -17 0 -17 23
0 45 32 60 140 66 88 4 93 3 133 -25 l42 -28 180 -1 c155 0 181 2 192 17 7 9
13 24 13 33 0 9 14 26 30 38 34 24 36 36 16 75 -20 39 -170 145 -205 145 -9 0
-21 4 -27 9 -5 5 -26 14 -46 20 -20 7 -50 26 -67 43 -27 28 -35 31 -91 29 -62
-1 -110 18 -110 44 0 7 -7 18 -15 25 -9 7 -14 18 -12 24 3 6 -2 19 -10 28 -13
15 -12 18 10 33 21 13 30 14 47 5 19 -10 25 -8 43 10 16 18 18 26 9 41 -7 10
-9 25 -6 32 3 8 -2 17 -10 20 -9 4 -16 17 -16 29 0 13 -7 32 -15 42 -8 11 -15
36 -15 56 0 19 -7 45 -15 56 -13 19 -12 23 8 42 17 15 33 19 67 17 25 -1 53
-6 63 -10 9 -4 24 -4 33 -1 8 3 22 -1 30 -9 11 -10 27 -13 58 -9 32 5 55 1 91
-15 26 -12 50 -19 52 -17 2 2 27 -2 55 -9 27 -8 56 -11 63 -9 7 3 15 -5 19
-21 7 -26 8 -26 32 -11 23 16 25 16 33 -5 5 -15 10 -18 15 -11 11 19 26 14 26
-8 0 -11 5 -20 10 -20 6 0 10 4 10 9 0 5 9 11 20 14 15 4 20 0 20 -14 0 -12 7
-19 19 -19 10 0 21 -7 25 -15 6 -17 42 -20 51 -5 11 18 26 10 20 -10 -6 -20 9
-28 20 -10 4 7 12 7 24 0 12 -6 30 -6 52 0 22 6 37 6 43 0 6 -6 35 -10 65 -11
63 -1 122 -28 153 -69 16 -23 17 -33 7 -105 -6 -44 -11 -88 -11 -98 1 -12 -4
-17 -14 -13 -8 3 -14 1 -14 -4 0 -6 5 -10 10 -10 6 0 10 -13 10 -30 0 -16 -4
-30 -8 -30 -4 0 -6 -16 -4 -35 5 -44 -5 -85 -20 -85 -7 0 -24 12 -39 26 -31
29 -58 27 -66 -6 -4 -16 -13 -19 -62 -18 -33 1 -76 -6 -106 -17 -27 -10 -59
-22 -70 -26 -11 -4 -41 -13 -67 -19 -27 -7 -48 -17 -48 -23 0 -6 -8 -19 -17
-29 -13 -15 -15 -23 -6 -37 7 -11 8 -23 2 -32 -13 -21 -11 -55 4 -67 7 -6 49
-13 94 -16 44 -3 88 -9 98 -12 12 -5 16 -4 12 4 -9 13 31 82 47 82 7 0 21 -9
32 -21 14 -16 16 -24 7 -38 -7 -12 -8 -22 -2 -28 6 -6 3 -16 -9 -27 -18 -16
-25 -16 -96 -1 -42 9 -84 19 -92 22 -7 3 -14 0 -14 -6 0 -6 5 -11 10 -11 6 0
10 -6 10 -14 0 -14 34 -30 58 -27 6 1 12 -4 12 -11 0 -8 3 -9 11 -1 7 7 21 8
44 0 36 -11 95 5 95 26 0 6 18 7 49 3 48 -6 48 -6 56 26 17 74 13 90 -38 139
l-47 46 24 17 c14 9 29 16 34 16 19 0 50 -48 57 -87 12 -77 18 -67 95 163 22
67 40 139 40 161 0 21 6 45 13 52 19 19 14 246 -8 356 -10 50 -17 101 -15 115
1 14 2 65 3 113 2 74 -1 91 -15 101 -19 14 -15 39 12 99 16 33 5 48 -14 21
-14 -18 -15 -18 -21 7 -4 15 -20 39 -36 55 -34 33 -38 25 -8 -16 12 -16 19
-36 16 -45 -4 -9 -1 -18 8 -21 23 -9 18 -26 -6 -22 -12 2 -27 12 -33 23 -6 11
-26 39 -43 64 -18 24 -33 48 -33 53 0 21 -44 70 -80 88 -21 11 -52 33 -69 51
-34 33 -97 55 -104 35 -6 -15 -59 24 -72 52 -12 26 -70 41 -94 23 -32 -23 -42
-23 -64 -4 -12 11 -30 23 -41 27 -18 6 -18 7 -1 26 20 22 11 24 -23 5z m-179
-2518 c40 -16 59 -19 115 -12 37 4 76 7 87 6 11 0 28 -1 38 -2 25 -1 21 -15
-10 -37 -68 -47 -134 -65 -148 -42 -4 6 -15 8 -25 5 -11 -4 -42 11 -84 39 -37
25 -76 48 -87 51 -10 4 -19 11 -19 16 0 13 77 0 133 -24z"/>
<path d="M4455 6130 c-9 -29 19 -75 71 -115 26 -19 50 -35 53 -35 4 0 52 -32
107 -71 95 -67 101 -70 147 -66 38 3 56 11 80 35 36 36 31 50 -10 30 -25 -13
-32 -12 -73 8 -25 12 -66 41 -92 64 -26 23 -52 39 -58 35 -5 -3 -23 1 -41 10
-17 9 -33 14 -36 11 -12 -12 -63 36 -63 60 0 28 -12 31 -34 9 -13 -14 -16 -13
-26 5 -6 11 -8 25 -5 30 3 6 2 10 -4 10 -5 0 -12 -9 -16 -20z"/>
<path d="M4014 5965 c-20 -30 -11 -79 19 -100 28 -19 84 -37 247 -75 74 -18
153 -42 175 -53 22 -11 69 -31 105 -44 106 -39 103 -39 95 -14 -5 18 -2 21 23
21 17 0 33 -6 35 -12 3 -7 6 2 6 20 1 20 -4 32 -12 32 -7 0 -32 9 -55 20 -22
11 -49 20 -59 20 -28 0 -157 48 -161 59 -5 16 -22 13 -22 -4 0 -16 -16 -20
-24 -6 -3 5 -50 16 -103 25 -54 10 -109 22 -123 28 -14 6 -39 10 -57 9 -62 -5
-89 30 -63 80 16 29 -6 24 -26 -6z"/>
<path d="M3913 5677 c-1 -31 2 -36 29 -41 44 -9 29 -31 -22 -33 -54 -2 -94 32
-84 72 8 33 -9 32 -24 0 -10 -21 -9 -32 2 -53 27 -53 49 -64 148 -73 51 -5
113 -13 138 -18 25 -5 88 -15 140 -21 52 -6 122 -15 155 -20 33 -5 92 -12 130
-16 107 -10 143 -35 129 -90 -7 -27 7 -32 26 -9 7 8 21 15 31 15 23 0 30 12
31 52 1 22 -6 36 -21 47 -12 9 -38 29 -57 45 -30 25 -46 30 -107 33 -40 2 -96
8 -125 13 -28 5 -59 7 -68 3 -12 -5 -15 -1 -11 13 14 50 18 84 9 84 -13 0 -22
-25 -22 -61 0 -32 -11 -37 -30 -14 -8 9 -10 28 -5 51 4 24 3 34 -4 29 -6 -3
-11 -19 -11 -34 0 -45 -19 -61 -75 -63 -55 -1 -162 18 -170 32 -3 5 -1 11 5
15 18 11 2 21 -30 19 -29 -2 -32 0 -27 22 2 15 0 24 -8 24 -7 0 -26 3 -42 6
-27 5 -29 4 -30 -29z"/>
<path d="M6990 5624 l-24 -24 -12 21 c-11 21 -13 20 -48 -26 -36 -47 -37 -48
-94 -49 -35 -1 -70 5 -92 15 -29 15 -36 15 -43 3 -10 -17 14 -56 31 -49 7 2
21 -4 32 -15 11 -11 29 -20 39 -20 17 0 19 -7 17 -52 -2 -64 -19 -72 -61 -28
-17 18 -39 30 -55 30 -14 0 -35 7 -48 15 -15 11 -27 13 -39 7 -29 -15 -83 -22
-83 -12 0 15 -26 12 -62 -8 -25 -15 -39 -17 -56 -9 -27 12 -28 27 -2 34 11 3
20 9 20 14 0 5 7 9 15 9 8 0 15 5 15 10 0 6 9 10 20 10 11 0 20 -4 20 -10 0
-13 27 -13 36 1 11 18 -9 29 -60 33 -27 3 -50 7 -53 9 -2 3 -7 26 -11 53 -8
55 -27 70 -29 22 -2 -59 -79 -178 -115 -178 -13 0 -9 -28 5 -33 9 -3 9 -8 1
-17 -9 -9 -18 -8 -41 4 -35 17 -103 90 -103 109 0 20 -37 50 -53 44 -11 -4
-14 -22 -12 -72 2 -62 1 -65 -14 -50 -21 18 -35 20 -25 3 5 -8 0 -9 -14 -6
-12 4 -25 2 -28 -4 -3 -5 -16 -7 -27 -4 -12 3 -27 0 -35 -6 -10 -9 -15 -9 -22
1 -5 8 -16 11 -29 6 -13 -4 -31 -1 -44 8 -29 19 -77 19 -77 1 0 -23 -50 -36
-100 -28 -25 4 -49 8 -55 8 -5 1 -20 7 -32 14 -17 9 -23 9 -23 1 0 -6 -9 -9
-20 -6 -11 3 -20 1 -20 -3 0 -12 -58 -30 -75 -24 -10 4 -15 0 -15 -10 0 -14
-8 -16 -52 -10 -62 7 -145 31 -153 45 -19 29 -184 -29 -233 -81 -15 -17 -25
-20 -34 -13 -31 24 -66 23 -96 -2 -17 -14 -35 -25 -41 -25 -7 0 -42 -16 -78
-35 -36 -19 -76 -35 -89 -35 -12 0 -44 -9 -71 -21 l-48 -20 -19 23 c-10 13
-25 32 -32 43 -10 14 -17 16 -25 8 -7 -7 -7 -14 3 -25 25 -26 38 -57 28 -63
-6 -3 -14 5 -20 19 -12 31 -26 33 -35 5 -5 -14 -13 -19 -26 -16 -11 3 -19 0
-19 -8 0 -21 -126 -35 -146 -15 -7 7 -18 3 -33 -11 -12 -12 -24 -19 -25 -18
-19 23 -26 52 -15 65 9 11 8 14 -7 14 -11 0 -29 -3 -41 -6 -20 -6 -21 -8 -8
-28 17 -27 13 -90 -7 -94 -8 -1 -27 7 -42 19 -22 18 -26 27 -21 53 6 29 5 30
-10 12 -23 -30 -18 -62 14 -89 36 -30 90 -39 161 -27 30 5 91 15 135 20 116
16 222 40 350 79 135 41 334 16 406 -52 86 -82 91 -157 19 -279 -95 -160 -105
-185 -106 -277 -2 -93 7 -116 57 -152 32 -23 60 -15 80 23 10 18 9 20 -5 15
-22 -9 -72 17 -86 43 -6 11 -8 55 -5 106 4 72 10 98 37 151 18 35 49 85 69
111 32 43 39 47 77 47 62 0 72 18 26 49 -31 21 -39 33 -41 61 -1 19 2 37 7 40
4 3 6 14 3 24 -4 17 0 19 39 18 33 -1 51 4 79 26 21 16 48 27 67 27 17 0 35 6
39 14 9 14 46 36 62 36 20 0 11 -30 -24 -79 -19 -26 -35 -52 -35 -56 0 -5 -12
-24 -27 -44 -15 -20 -26 -44 -25 -53 2 -10 -2 -18 -8 -18 -7 0 -10 7 -6 15 4
12 -3 15 -36 15 l-41 0 22 -23 22 -24 -36 -52 c-19 -29 -47 -75 -62 -102 -25
-45 -31 -50 -55 -45 -32 6 -38 -9 -8 -19 11 -4 18 -11 15 -16 -4 -5 -15 -5
-27 2 -19 10 -20 9 -14 -17 l8 -29 -26 24 c-27 25 -48 23 -27 -3 7 -8 10 -24
6 -35 -3 -10 -1 -22 5 -26 18 -11 10 -25 -15 -25 -14 0 -25 -5 -25 -10 0 -6
11 -16 25 -22 16 -7 25 -19 25 -34 0 -62 40 -21 80 81 39 97 90 176 155 240
34 33 83 92 108 130 57 88 239 268 287 285 19 6 109 14 200 17 164 5 278 -3
455 -32 50 -9 128 -20 175 -25 113 -13 160 -24 325 -75 77 -23 167 -48 200
-54 90 -16 353 -51 388 -51 17 0 51 -10 76 -22 39 -19 74 -23 242 -32 181 -10
200 -13 226 -33 35 -28 104 -62 141 -69 19 -4 37 2 61 20 l33 25 64 -34 c100
-53 149 -91 243 -186 54 -55 79 -69 119 -69 22 0 36 -9 57 -35 41 -55 100 -87
164 -91 72 -4 91 -7 119 -23 13 -7 38 -11 56 -10 22 2 42 -5 67 -24 41 -31
134 -74 170 -78 31 -4 84 25 105 56 12 18 13 28 5 44 -11 19 -82 47 -109 42
-7 -1 -25 7 -41 19 -16 11 -35 20 -43 20 -7 0 -24 8 -38 17 -13 9 -34 17 -47
18 -37 1 -56 26 -44 58 14 36 0 34 -22 -3 -10 -16 -22 -30 -26 -30 -5 0 -14
-20 -21 -45 -15 -52 -23 -61 -39 -41 -8 10 -9 16 -1 21 15 9 0 56 -27 85 -19
18 -26 21 -32 11 -6 -9 -14 -10 -27 -3 -29 15 -107 50 -125 55 -21 7 -32 76
-18 116 6 18 9 35 5 38 -10 10 -27 -50 -36 -125 -4 -40 -11 -76 -14 -79 -10
-11 -27 12 -30 41 -3 28 -16 49 -16 25 0 -8 -3 -10 -8 -4 -13 19 -64 36 -76
26 -19 -16 -63 28 -86 88 -16 42 -21 77 -21 155 0 109 -13 116 -25 14 -7 -61
-19 -75 -30 -33 -3 14 -10 25 -15 25 -12 0 -12 -3 7 -50 23 -56 12 -60 -15 -5
-12 25 -24 45 -27 45 -3 0 -9 -10 -14 -22 -8 -20 -9 -18 -11 17 -1 22 -1 69 0
105 2 62 2 64 -14 43 -9 -13 -19 -46 -22 -75 l-6 -53 -13 30 c-7 17 -13 40
-14 53 0 13 -5 32 -11 43 -8 17 -13 18 -25 8 -11 -9 -14 -24 -10 -53 5 -38 4
-39 -6 -13 -15 34 -31 30 -38 -8 l-5 -29 -13 28 c-6 15 -12 31 -12 36 0 5 -5
21 -12 37 -6 15 -12 33 -13 38 -1 6 -3 15 -4 20 -1 6 -7 -5 -14 -24 -14 -42
-34 -51 -45 -21 -7 20 -9 20 -22 5 -13 -16 -15 -16 -22 2 -6 14 -7 12 -5 -9 5
-32 -18 -45 -32 -20 -11 18 -13 14 -15 -32 -2 -42 -36 -42 -76 1 -27 28 -39
33 -78 34 -26 1 -50 1 -53 1 -49 -7 -263 3 -277 12 -8 5 -12 -1 -12 -16 -1
-23 -1 -23 -16 -3 -27 37 -52 139 -70 299 -18 151 -19 156 -30 115 -9 -37 -14
-44 -34 -41 -12 1 -28 -3 -36 -8 -9 -8 -15 -6 -23 7 -9 15 -12 16 -20 4 -8
-12 -17 -13 -58 -2 -26 7 -62 15 -80 18 -17 3 -39 14 -49 24 -21 23 -34 24
-34 3 0 -25 -34 -12 -44 18 -7 21 -6 32 7 46 10 11 14 26 10 40 -3 12 0 29 7
37 20 24 -3 16 -30 -11z m-1828 -271 c4 -2 5 -10 1 -18 -6 -17 8 -20 23 -5 10
10 173 -22 206 -40 10 -6 26 -10 35 -10 10 0 38 -7 62 -16 49 -17 67 -9 56 25
-3 12 -18 23 -33 27 -15 3 -38 7 -51 10 -43 9 -7 27 38 19 79 -13 118 -70 65
-94 -19 -8 -25 -17 -21 -31 3 -11 0 -23 -7 -29 -16 -13 -128 -4 -138 11 -7 10
-8 10 -7 -2 3 -30 -1 -38 -23 -45 -52 -16 -154 10 -198 51 -19 18 -48 38 -63
43 -21 8 -27 16 -22 30 4 14 0 20 -19 25 -13 3 -32 3 -42 -1 -37 -14 -6 23 37
44 39 19 74 22 101 6z"/>
<path d="M11755 5547 c-22 -5 -67 -17 -100 -27 l-60 -18 41 -1 c45 -1 122 -25
197 -62 53 -26 52 -23 32 -109 -4 -17 -1 -14 11 10 31 63 83 180 84 188 4 18
-142 32 -205 19z"/>
<path d="M12112 5350 c-18 -17 -42 -30 -55 -30 -12 0 -32 -7 -44 -15 -12 -9
-39 -17 -60 -19 -57 -6 -71 -14 -104 -63 -17 -24 -42 -49 -56 -54 -14 -5 -73
-14 -132 -18 -141 -12 -248 -36 -293 -66 -45 -30 -58 -31 -58 -5 0 24 -26 26
-58 4 -29 -20 -33 -91 -4 -79 44 19 62 18 62 -4 0 -27 4 -27 72 9 71 38 144
56 276 70 125 13 140 19 202 71 41 34 56 41 90 41 22 -1 59 8 82 18 50 22 63
18 42 -16 -14 -21 -14 -24 -1 -24 20 0 39 24 32 43 -6 15 41 57 64 57 7 0 11
22 11 55 0 66 -16 72 -68 25z"/>
<path d="M12138 5180 c-15 -11 -32 -20 -38 -20 -7 0 -33 -11 -59 -24 -25 -13
-75 -35 -111 -49 -36 -14 -64 -30 -63 -36 2 -5 -4 -26 -13 -46 -19 -45 -13
-53 29 -36 18 7 77 29 132 48 79 27 165 62 193 79 7 4 -25 98 -35 101 -5 2
-21 -6 -35 -17z"/>
<path d="M11773 5026 c-23 -13 -57 -27 -75 -31 -18 -3 -42 -10 -53 -15 -11 -5
-51 -13 -89 -17 -45 -5 -71 -13 -74 -22 -3 -10 1 -12 16 -9 20 5 40 -17 27
-30 -3 -3 -5 0 -5 8 0 10 -3 10 -15 0 -13 -11 -20 -9 -38 9 -29 26 -62 27
-118 2 -42 -19 -44 -19 -64 -2 -30 28 -45 16 -45 -36 0 -40 2 -45 20 -40 10 3
25 -2 31 -9 7 -8 19 -12 28 -9 34 13 205 55 261 64 32 5 95 20 140 32 81 21
82 22 101 66 31 72 23 79 -48 39z"/>
<path d="M12196 5011 c-3 -5 -31 -26 -61 -46 -43 -28 -54 -41 -50 -55 3 -10 0
-28 -7 -39 -17 -28 -5 -35 31 -16 33 17 37 25 20 42 -13 13 -2 56 12 47 5 -3
7 -10 4 -15 -10 -15 5 -49 21 -49 16 0 94 37 94 45 0 2 -10 25 -22 50 -22 45
-32 53 -42 36z"/>
<path d="M11955 4901 c-44 -16 -94 -35 -110 -43 -17 -8 -63 -23 -102 -33 -52
-12 -73 -22 -73 -33 0 -9 -5 -30 -12 -49 -6 -18 -9 -35 -7 -38 7 -6 81 16 254
76 l140 50 2 35 c1 19 7 42 14 50 18 21 -13 17 -106 -15z"/>
<path d="M15048 4773 c-30 -35 -41 -89 -28 -146 7 -28 15 -151 19 -272 9 -265
-1 -320 -67 -389 -21 -22 -42 -49 -45 -58 -4 -10 -16 -18 -29 -18 -37 0 -74
103 -71 200 3 133 -32 234 -97 278 -35 23 -61 22 -91 -4 -24 -21 -32 -17 -27
16 5 34 -6 40 -21 11 -17 -31 -1 -255 25 -356 16 -60 24 -118 24 -175 0 -47 7
-110 15 -140 8 -30 19 -117 25 -193 10 -141 33 -235 70 -287 9 -14 21 -41 25
-60 4 -19 18 -59 31 -89 19 -42 24 -71 24 -133 0 -44 7 -126 15 -182 26 -177
36 -269 37 -340 2 -64 0 -71 -28 -95 -16 -15 -35 -34 -42 -43 -11 -14 -10 -16
7 -11 11 3 22 11 25 19 3 8 13 14 21 14 14 0 15 -8 10 -47 -10 -74 -22 -95
-82 -138 -30 -22 -64 -53 -76 -70 -12 -16 -30 -38 -40 -47 -10 -9 -17 -22 -15
-29 2 -7 16 2 33 21 74 80 141 137 150 128 3 -2 -5 -62 -15 -133 -20 -128 -21
-130 -62 -172 -23 -23 -38 -46 -34 -50 4 -5 19 5 32 21 14 15 28 26 31 22 3
-3 9 -45 13 -94 15 -181 86 -265 290 -343 41 -16 95 -32 121 -35 98 -13 243
32 319 99 45 39 82 95 76 114 -7 22 8 48 23 39 7 -5 9 -1 5 8 -3 9 -1 16 6 16
15 0 84 151 98 215 12 53 25 139 23 152 -1 5 -6 8 -13 8 -7 0 -17 9 -23 20 -5
11 -17 20 -25 20 -9 0 -14 7 -12 20 3 13 0 17 -6 10 -6 -5 -12 -22 -14 -37 -3
-27 -4 -27 -30 -14 -19 10 -29 11 -37 3 -14 -14 -27 -1 -15 15 5 7 9 27 9 43
0 23 -4 29 -17 27 -23 -4 -24 35 -1 60 15 17 15 18 -2 18 -10 0 -27 8 -37 17
-19 17 -19 16 -13 -9 11 -42 -6 -56 -21 -18 -10 22 -19 30 -29 26 -11 -4 -15
2 -15 23 0 16 7 31 15 35 19 7 9 33 -14 39 -21 5 -23 31 -4 67 16 31 0 40 -28
14 -18 -16 -19 -16 -19 4 0 13 6 22 15 22 10 0 15 10 15 31 0 25 -3 29 -18 25
-17 -6 -20 5 -31 106 -18 159 -19 166 -44 173 -39 12 -77 30 -77 37 0 3 7 14
16 22 8 9 12 21 9 26 -4 6 -2 17 5 25 15 18 -5 30 -42 26 -35 -3 -35 2 2 49
22 28 40 40 62 42 28 3 34 10 68 88 52 120 156 341 256 547 25 50 47 106 49
125 1 18 6 58 10 89 7 55 1 101 -13 97 -4 -2 -19 6 -34 16 -22 14 -27 23 -22
42 4 14 2 24 -5 24 -21 0 -51 -44 -51 -74 0 -17 -21 -73 -47 -125 -36 -70 -57
-100 -86 -119 -42 -28 -57 -21 -57 28 0 19 3 21 12 12 21 -21 24 -13 20 48 -5
63 0 70 29 44 15 -14 19 -13 44 11 16 14 25 28 22 32 -4 3 -1 13 6 22 8 9 20
38 27 65 12 43 11 49 -3 58 -20 10 -20 18 -18 166 1 87 -1 112 -11 110 -9 -2
-12 9 -10 37 3 47 -1 54 -50 84 -37 22 -55 52 -43 71 14 23 -25 8 -45 -17 -18
-23 -21 -36 -16 -73 5 -40 4 -43 -8 -27 -9 11 -12 32 -9 56 4 25 -2 60 -17
102 -27 77 -35 88 -77 106 -30 12 -38 27 -34 61 4 29 -50 3 -62 -30 -2 -7 -8
-9 -13 -5 -4 4 -3 17 4 28 16 25 10 35 -25 44 -32 8 -43 21 -43 53 0 26 -11
28 -32 5z m-76 -1291 c17 -7 29 -8 33 -2 10 16 52 11 59 -6 6 -15 8 -15 26 1
20 18 20 17 20 -29 0 -81 -51 -154 -120 -174 -19 -5 -43 -13 -52 -17 -14 -6
-18 -2 -18 18 0 14 -5 27 -12 29 -7 3 -12 21 -11 44 1 21 -5 60 -14 86 -20 63
-14 78 29 68 18 -4 45 -12 60 -18z"/>
<path d="M11932 4595 c-12 -15 -30 -51 -42 -81 -11 -30 -56 -126 -100 -213
-59 -118 -80 -169 -80 -198 0 -50 26 -137 45 -153 17 -14 20 -30 5 -30 -16 0
-61 110 -69 170 -7 57 -13 52 -26 -23 -5 -29 -10 -37 -21 -33 -9 3 -22 6 -30
6 -8 0 -14 7 -14 15 0 9 -6 12 -15 9 -8 -4 -23 -3 -32 2 -23 9 -102 14 -126 7
-12 -3 -16 -11 -12 -20 5 -14 -5 -15 -77 -8 -46 4 -90 7 -98 7 -8 1 -22 7 -32
15 -14 13 -19 12 -42 -2 -14 -9 -30 -14 -36 -10 -5 3 -10 1 -10 -4 0 -6 -5
-11 -12 -11 -6 0 -19 -7 -28 -15 -10 -9 -31 -20 -49 -25 -26 -7 -31 -6 -31 8
1 23 22 49 38 46 7 -1 8 0 2 3 -5 2 -10 18 -10 34 0 25 -4 29 -30 29 -19 0
-33 7 -40 20 -6 11 -17 20 -25 20 -8 0 -18 6 -22 14 -7 12 -56 23 -73 16 -23
-8 -47 -5 -43 7 4 10 0 11 -18 4 -17 -6 -28 -5 -37 5 -15 16 -52 19 -52 4 0
-5 -4 -10 -10 -10 -5 0 -10 7 -10 16 0 10 -6 14 -15 10 -8 -3 -15 -1 -15 4 0
6 -23 10 -50 10 -28 0 -58 5 -68 11 -13 8 -27 7 -55 -5 -37 -15 -38 -15 -32 4
4 11 2 20 -4 20 -5 0 -17 3 -26 7 -14 5 -16 2 -10 -15 4 -13 2 -22 -4 -22 -6
0 -11 5 -11 11 0 7 -11 8 -30 4 -20 -4 -30 -3 -30 5 0 10 -3 10 -14 1 -17 -14
-56 5 -56 27 0 9 -5 10 -16 4 -9 -5 -25 -7 -34 -5 -10 3 -21 0 -24 -6 -4 -6 4
-13 19 -17 14 -3 25 -10 25 -15 0 -5 9 -9 20 -9 11 0 19 -5 18 -11 -2 -6 12
-19 29 -28 18 -9 33 -22 33 -29 0 -9 7 -11 19 -7 12 3 23 0 28 -8 13 -21 92
-54 166 -68 48 -9 71 -19 79 -32 8 -15 17 -18 40 -13 20 4 35 1 46 -11 12 -12
13 -18 4 -21 -6 -2 -12 -8 -12 -14 0 -5 9 -6 20 -3 13 4 20 2 20 -6 0 -9 -32
-10 -137 -5 -153 8 -236 21 -363 59 -117 35 -153 52 -191 87 -19 16 -42 33
-51 36 -10 3 -18 9 -18 14 0 5 -17 19 -37 30 -21 11 -72 43 -113 70 -166 109
-228 140 -286 140 -37 0 -52 -11 -98 -72 -22 -30 -31 -48 -22 -48 7 0 19 7 26
15 14 16 41 20 56 7 5 -5 38 -17 74 -26 36 -10 90 -26 120 -36 30 -10 73 -23
95 -29 22 -6 57 -26 78 -45 21 -19 59 -40 83 -47 33 -10 44 -18 40 -29 -2 -8
-12 -35 -21 -59 -36 -99 -27 -182 10 -89 16 40 18 42 31 24 19 -27 64 -31 64
-6 0 28 15 32 35 10 16 -18 16 -20 -1 -49 -16 -27 -16 -31 -1 -55 9 -14 14
-32 11 -40 -3 -9 -1 -16 5 -16 6 0 11 -6 11 -14 0 -27 25 -61 43 -58 10 2 17
-3 17 -12 0 -9 6 -16 14 -16 16 0 86 -80 86 -97 0 -6 6 -16 14 -23 8 -6 12
-18 9 -26 -3 -8 0 -14 6 -14 6 0 18 -18 27 -39 8 -22 22 -42 30 -45 7 -3 11
-12 8 -21 -4 -11 0 -15 16 -15 11 0 19 -4 16 -9 -6 -10 45 -65 107 -116 21
-16 37 -36 37 -43 0 -7 5 -10 10 -7 6 4 7 11 4 17 -5 7 0 9 14 6 13 -4 22 -2
22 5 -1 15 -57 82 -132 159 -32 32 -58 65 -58 74 0 8 -4 13 -8 10 -9 -6 -42
29 -42 44 0 5 -8 14 -17 19 -10 5 -29 30 -43 56 -22 39 -23 47 -10 55 19 12
36 7 32 -10 -2 -9 5 -8 22 4 33 21 39 20 31 -4 -7 -22 5 -26 22 -9 8 8 18 -1
37 -33 14 -25 26 -48 26 -52 0 -4 5 -12 10 -19 17 -20 80 -129 80 -138 0 -5 5
-9 10 -9 6 0 10 -5 10 -11 0 -14 91 -121 98 -115 3 3 -8 22 -23 41 -15 20 -25
38 -22 41 2 3 27 -8 53 -24 33 -19 65 -29 97 -30 67 -3 58 12 -17 31 -112 28
-182 85 -238 196 -17 35 -42 79 -55 98 -48 70 -8 96 53 35 45 -44 74 -59 74
-37 0 8 5 15 10 15 6 0 10 -4 10 -8 0 -4 14 -13 30 -19 23 -8 29 -16 24 -30
-4 -14 -4 -15 4 -4 15 21 34 4 22 -19 -16 -29 -12 -34 15 -16 14 9 25 12 25 6
0 -6 -11 -22 -25 -36 -30 -30 -32 -44 -5 -44 11 0 20 -5 20 -10 0 -7 7 -7 20
0 11 6 24 8 29 6 5 -3 33 -1 62 4 29 6 55 7 58 3 3 -5 24 -6 46 -2 33 4 37 7
20 14 -11 5 -29 18 -40 29 -26 27 -78 56 -99 56 -9 0 -24 4 -34 10 -26 14
-131 60 -192 83 -102 39 -22 30 103 -11 67 -22 164 -48 215 -56 101 -18 218
-21 226 -7 11 17 -20 29 -104 40 -101 14 -250 49 -267 63 -7 5 -18 6 -25 2 -7
-4 -5 1 4 12 19 19 102 24 263 15 109 -6 159 -2 180 13 18 13 17 15 -23 27
-82 24 -54 31 161 38 15 1 27 4 27 9 0 8 -43 28 -82 38 -18 4 -28 13 -28 24 0
15 11 20 48 26 62 9 217 10 266 1 21 -4 62 -9 91 -11 28 -2 65 -10 81 -18 36
-18 80 -9 76 15 -2 9 2 17 8 17 6 0 8 -5 4 -12 -5 -8 0 -9 17 -5 13 4 28 7 32
7 5 0 5 5 2 11 -5 7 4 9 26 7 25 -2 33 1 31 11 -2 10 7 12 35 9 45 -6 83 6 83
26 0 8 24 28 54 45 79 44 152 141 207 274 28 67 41 129 17 80 -6 -13 -15 -23
-21 -23 -5 0 -7 10 -3 23 3 12 6 28 6 36 0 9 7 11 21 8 16 -4 20 -1 17 16 -6
45 -202 130 -349 152 -42 6 -48 4 -67 -20z m247 -79 c28 -45 27 -52 -15 -99
-43 -47 -86 -138 -103 -219 -11 -53 -15 -58 -39 -58 -38 0 -112 30 -112 46 0
7 20 27 44 43 62 43 106 132 106 215 0 58 2 62 33 83 45 30 62 28 86 -11z
m-1187 -563 c-7 -3 -25 -15 -40 -27 -15 -13 -72 -45 -127 -71 -55 -27 -117
-60 -138 -73 -33 -20 -46 -22 -98 -16 -54 6 -64 11 -104 53 -24 25 -43 47 -41
48 4 4 66 -17 103 -35 32 -14 35 -14 93 16 60 32 139 45 124 21 -4 -7 -2 -9 7
-5 8 3 22 9 33 12 10 4 57 26 105 49 47 23 88 40 91 37 3 -2 -1 -7 -8 -9z"/>
<path d="M11576 3879 c3 -5 20 -9 38 -9 32 0 34 -2 45 -57 6 -31 11 -82 11
-114 l0 -57 45 -16 c56 -19 61 -11 50 72 -5 31 -9 84 -9 117 0 33 -5 63 -11
68 -14 10 -176 6 -169 -4z"/>
<path d="M13782 3853 c20 -25 114 -193 122 -220 4 -12 16 -25 27 -28 24 -8 43
-41 35 -62 -5 -12 -9 -13 -21 -3 -20 17 -38 4 -25 -20 5 -10 10 -35 10 -55 0
-50 -17 -42 -57 26 -56 95 -145 218 -170 234 -31 21 -45 10 -15 -11 12 -8 22
-24 22 -35 0 -11 7 -19 16 -19 8 0 12 -4 9 -10 -10 -16 -21 -12 -35 15 -7 14
-17 25 -22 25 -12 0 -81 79 -97 111 -7 16 -18 29 -23 29 -12 0 -4 -41 30 -149
21 -68 35 -94 75 -138 27 -29 69 -65 92 -78 63 -37 79 -58 65 -85 -18 -33 -3
-37 28 -7 16 15 31 27 35 27 4 0 27 -18 50 -40 23 -22 56 -53 72 -68 17 -16
44 -55 60 -88 31 -60 52 -73 48 -28 -2 23 10 33 21 16 3 -5 29 -10 58 -11 29
-1 69 -6 89 -11 21 -6 57 -10 81 -9 23 1 48 0 53 -1 26 -6 56 1 53 13 -3 7
-36 15 -89 19 -100 9 -301 58 -306 75 -3 8 9 10 40 7 25 -3 48 -1 51 5 4 5
-17 12 -49 16 -30 4 -58 11 -61 16 -3 5 9 22 26 38 25 22 30 33 25 53 -5 19
-2 27 11 32 15 6 16 9 4 16 -14 9 30 32 143 75 47 18 58 29 35 38 -7 2 -1 8
15 12 15 4 27 13 27 20 0 26 -17 24 -50 -5 -19 -17 -37 -30 -41 -30 -4 0 -29
-13 -56 -29 -26 -16 -59 -33 -73 -37 -24 -7 -24 -6 5 26 17 19 43 46 59 62 22
22 26 31 17 42 -10 11 -8 15 5 18 15 3 14 7 -8 33 -15 17 -28 28 -31 25 -2 -3
-16 -31 -30 -63 -21 -46 -30 -57 -45 -53 -12 4 -22 -2 -33 -20 -21 -34 -32
-16 -13 20 7 16 14 40 14 53 l0 25 -20 -23 c-18 -23 -19 -23 -20 -4 -1 21 -22
55 -34 55 -4 0 -4 -4 -1 -10 3 -5 1 -10 -4 -10 -6 0 -11 5 -11 10 0 6 -5 10
-12 10 -22 0 -77 50 -124 115 -26 36 -52 65 -57 65 -6 0 -3 -8 5 -17z"/>
<path d="M11563 3823 l-33 -4 0 -66 c0 -56 -5 -73 -31 -115 -16 -28 -28 -52
-25 -55 10 -10 29 11 47 52 11 24 24 45 31 47 13 5 78 -23 78 -33 0 -15 -20
-20 -39 -10 -15 8 -25 6 -45 -10 -31 -24 -34 -64 -7 -79 40 -21 57 -12 84 43
26 52 26 52 12 137 -8 47 -15 88 -15 93 0 4 -6 6 -12 5 -7 0 -28 -3 -45 -5z"/>
<path d="M11390 3776 c0 -18 17 -31 63 -47 36 -13 47 -31 26 -45 -6 -3 -16 -1
-22 5 -18 18 -44 12 -66 -15 -25 -31 -15 -59 27 -75 29 -11 28 -13 77 63 13
21 20 40 15 43 -6 4 -10 24 -10 46 l0 39 -55 0 c-40 0 -55 -4 -55 -14z"/>
<path d="M13241 3574 c-34 -44 -35 -61 -4 -94 35 -37 43 -38 43 -1 0 28 14 41
46 41 21 0 17 -17 -6 -23 -23 -6 -27 -27 -5 -27 22 0 18 -17 -5 -23 -11 -3
-20 -12 -20 -21 0 -21 6 -20 47 5 31 19 35 20 32 5 -3 -14 -22 -29 -68 -53 -1
-1 8 -14 22 -29 l26 -27 35 27 c37 28 43 40 26 51 -8 5 -8 11 0 20 8 10 2 27
-25 69 -19 30 -35 60 -35 66 0 13 -13 13 -28 -2 -8 -8 -14 -5 -23 15 -15 34
-32 34 -58 1z"/>
<path d="M13092 3555 c-7 -14 -12 -58 -12 -98 1 -174 125 -255 264 -173 71 41
167 164 137 174 -6 2 -11 8 -11 14 0 6 6 8 14 5 22 -9 25 14 4 35 -25 25 -31
23 -24 -7 4 -14 2 -25 -4 -25 -5 0 -10 -9 -10 -19 0 -11 -5 -23 -11 -27 -6 -3
-8 -16 -5 -29 8 -32 -58 -96 -130 -125 -50 -21 -59 -22 -95 -10 -48 16 -104
77 -113 122 -10 48 -7 110 4 103 6 -3 10 -19 10 -34 0 -38 20 -92 31 -85 5 3
2 15 -6 27 -8 12 -15 40 -15 64 0 23 -5 45 -11 49 -6 3 -9 19 -5 35 7 36 3 37
-12 4z"/>
<path d="M11010 3431 c18 -34 11 -67 -23 -112 -19 -24 -37 -61 -41 -81 -4 -21
-12 -38 -18 -38 -6 0 -8 -11 -5 -26 3 -18 -5 -40 -29 -76 -52 -77 -48 -86 53
-143 98 -55 165 -104 200 -146 14 -16 30 -26 38 -22 21 7 19 33 -3 33 -9 0
-54 40 -100 89 -73 80 -82 94 -82 128 0 21 9 57 20 81 l19 42 48 -30 c26 -17
61 -42 76 -56 60 -57 45 21 -16 82 -23 22 -49 43 -57 46 -12 5 -13 9 -2 24 7
11 15 27 18 37 4 9 8 17 10 17 12 0 170 -129 187 -152 23 -32 37 -36 37 -12 0
34 -45 87 -115 134 -39 27 -103 83 -142 124 -69 75 -93 94 -73 57z"/>
<path d="M13745 3297 c-82 -87 -86 -88 -265 -92 -184 -4 -277 -21 -395 -73
-83 -36 -175 -91 -175 -104 0 -11 5 -10 79 11 36 11 134 32 216 46 182 32 252
48 329 75 33 11 62 18 65 15 6 -6 -79 -84 -92 -85 -4 0 -39 -32 -79 -71 -87
-87 -125 -103 -223 -94 -71 6 -109 -4 -280 -80 -93 -41 -277 -94 -439 -125
-60 -12 -222 -5 -241 10 -5 4 -25 11 -43 15 -18 3 -46 13 -63 22 -31 15 -46
13 -34 -6 3 -6 17 -11 31 -11 33 0 30 -15 -9 -39 -18 -11 -43 -31 -57 -45 -16
-18 -26 -22 -31 -15 -4 6 -12 8 -19 4 -10 -6 -9 -11 5 -21 20 -15 19 -22 -16
-136 -14 -49 -19 -81 -14 -87 6 -5 29 -12 52 -16 l43 -7 -6 31 c-7 34 30 154
54 173 7 6 43 11 80 10 68 -1 209 23 227 39 14 13 25 11 25 -6 0 -18 -19 -28
-102 -49 -165 -44 -224 -197 -90 -235 21 -6 38 -5 57 5 37 19 43 18 47 -8 2
-16 15 -25 52 -35 55 -16 62 -14 46 18 -18 33 -6 92 39 182 22 45 43 99 46
119 8 44 24 52 77 37 39 -10 40 -11 35 -46 -3 -19 -15 -51 -27 -71 -46 -83
-62 -126 -67 -190 -6 -73 1 -87 46 -94 44 -6 34 -25 -16 -31 -26 -3 -124 -14
-218 -25 -166 -19 -290 -22 -390 -8 l-50 6 35 -14 35 -14 -46 -1 c-26 -1 -84
6 -130 15 -161 30 -254 42 -271 32 -24 -12 -23 -2 2 24 32 34 16 32 -21 -3
-21 -20 -29 -34 -22 -36 10 -4 10 -10 1 -26 -11 -21 -10 -21 7 -7 17 14 18 13
13 -7 -7 -27 -1 -29 24 -6 10 9 18 11 18 5 0 -6 -4 -14 -10 -17 -15 -9 -12
-25 5 -25 9 0 12 -6 9 -15 -4 -9 0 -15 9 -15 8 0 17 -6 20 -14 3 -7 34 -28 69
-45 35 -17 75 -38 90 -47 21 -11 68 -15 205 -16 156 -2 189 1 268 21 99 25
180 53 227 77 16 8 64 28 106 44 43 15 94 35 115 44 20 9 37 13 37 8 0 -12
-137 -89 -245 -138 -49 -23 -121 -56 -160 -74 -38 -17 -97 -45 -130 -60 -66
-30 -135 -55 -177 -64 -36 -8 -36 -22 1 -29 20 -4 79 9 183 42 256 80 336 121
598 308 145 104 285 221 299 250 13 29 -4 41 -28 19 -10 -9 -20 -16 -23 -16
-4 0 -41 -20 -83 -45 -77 -46 -95 -49 -95 -16 0 22 26 46 60 56 47 14 141 68
161 93 23 30 25 70 3 100 -9 13 -14 24 -13 26 12 7 117 45 133 48 29 5 31 26
3 33 -18 5 -50 -6 -114 -39 -49 -25 -95 -46 -102 -46 -6 0 -42 -14 -79 -31
-37 -17 -87 -35 -111 -40 -46 -9 -85 -35 -75 -50 3 -5 19 -2 35 7 39 20 45 14
25 -25 -11 -20 -16 -57 -16 -111 0 -76 -1 -80 -22 -80 -13 0 -36 -7 -52 -15
-36 -19 -31 -20 -46 14 -20 50 7 160 52 208 11 12 27 44 33 70 11 41 16 48 36
45 13 -1 31 -10 42 -19 16 -15 19 -15 27 -3 19 30 10 47 -31 60 -23 8 -43 20
-46 27 -8 22 6 63 25 70 49 17 166 65 232 96 114 52 152 65 157 50 3 -7 17
-13 31 -13 l27 -1 -24 -19 c-30 -26 -11 -26 39 0 22 11 45 20 53 20 27 0 99
66 123 112 13 26 40 60 60 75 85 65 184 156 233 212 60 69 57 82 -4 18z
m-1310 -753 c-9 -14 -25 -51 -36 -82 -11 -31 -25 -60 -32 -64 -42 -27 -96 17
-78 63 12 32 58 75 101 93 54 23 66 21 45 -10z"/>
<path d="M12160 3270 c-19 -72 -47 -124 -89 -169 -66 -69 -68 -79 -27 -96 47
-20 56 -19 56 7 0 13 21 43 51 74 l52 52 42 -18 c24 -10 46 -16 49 -13 11 11
-14 41 -44 52 -29 10 -31 12 -24 48 4 21 8 41 11 45 5 9 111 -37 135 -59 23
-20 33 -11 18 16 -13 25 -84 62 -159 85 -30 9 -56 16 -57 16 -2 0 -8 -18 -14
-40z"/>
<path d="M12450 3202 c0 -11 -33 -56 -73 -99 -118 -126 -126 -144 -76 -162 44
-15 51 -14 45 7 -8 23 37 87 90 129 22 17 49 49 61 71 25 43 21 53 -24 66 -19
6 -23 3 -23 -12z"/>
<path d="M12502 3078 c-65 -105 -67 -166 -7 -195 41 -20 43 -33 10 -64 -13
-13 -25 -26 -25 -29 0 -4 16 -12 36 -19 31 -11 38 -11 55 5 10 9 19 21 19 26
0 27 68 167 106 218 24 33 44 67 44 75 0 8 5 15 10 15 6 0 10 5 10 11 0 8 -4
8 -14 0 -7 -6 -22 -10 -33 -9 -25 4 -99 -81 -143 -163 -26 -49 -34 -58 -46
-48 -26 21 -12 103 28 158 10 15 31 26 54 30 47 8 55 26 12 27 -18 1 -44 5
-58 8 -22 6 -29 0 -58 -46z"/>
<path d="M14138 3114 c-13 -12 43 -55 114 -89 42 -19 81 -35 88 -35 8 0 31 -8
52 -17 29 -13 38 -22 35 -35 -4 -14 -2 -16 13 -8 25 13 33 27 20 35 -6 4 -8
11 -4 16 3 6 -3 13 -15 16 -33 9 -23 30 12 24 12 -2 8 26 -7 38 -11 9 -17 6
-30 -14 -18 -28 -41 -32 -65 -12 -9 7 -36 20 -61 27 -25 8 -67 24 -94 37 -57
26 -51 25 -58 17z"/>
<path d="M11354 3065 c3 -8 8 -21 12 -29 3 -7 -5 -26 -18 -42 -42 -52 -55 -79
-68 -139 -7 -33 -21 -75 -31 -93 -30 -52 -25 -69 29 -96 l48 -24 13 76 c11 61
22 90 54 137 51 77 62 85 101 78 58 -11 85 -55 50 -84 -20 -16 -36 -49 -64
-129 -12 -36 -29 -72 -36 -81 -24 -27 -15 -43 33 -64 26 -11 51 -21 55 -23 3
-2 6 9 6 25 -1 32 58 158 103 221 41 57 70 70 104 48 30 -20 31 -31 5 -74 -11
-18 -32 -60 -46 -95 -14 -34 -35 -81 -46 -103 -11 -23 -19 -47 -16 -54 3 -10
49 -31 91 -43 5 -1 10 16 11 38 3 47 71 197 110 240 51 57 47 91 -15 133 -40
28 -107 26 -139 -3 -19 -18 -20 -17 -20 7 0 30 -56 84 -96 94 -14 4 -43 2 -64
-5 -48 -14 -60 -14 -55 2 7 17 -3 29 -57 65 -52 36 -63 39 -54 17z"/>
<path d="M14495 2984 c-20 -15 -20 -16 8 -35 15 -12 25 -25 21 -30 -8 -14 -24
-11 -24 6 0 20 -2 19 -68 -11 -70 -32 -91 -41 -119 -49 -44 -12 -19 -67 31
-67 13 0 52 9 87 22 41 14 65 18 67 11 2 -6 12 -11 23 -11 12 0 19 -7 19 -20
0 -15 7 -20 26 -20 23 0 25 -2 14 -15 -9 -11 -22 -14 -42 -10 -15 4 -28 3 -28
-2 0 -10 -58 -33 -82 -33 -30 0 -64 -60 -40 -73 12 -7 144 14 177 28 54 23 70
25 99 10 35 -18 36 -18 36 0 0 37 35 -4 42 -49 2 -11 8 -21 15 -23 12 -4 7 33
-7 52 -4 6 -11 21 -15 35 -9 31 -66 150 -72 150 -3 0 -2 -15 2 -32 10 -45 -5
-29 -50 57 -34 64 -36 67 -30 31 6 -36 5 -38 -9 -27 -9 8 -16 18 -16 23 0 9
-39 98 -43 98 -1 0 -11 -8 -22 -16z"/>
<path d="M11940 2851 c0 -5 9 -11 20 -14 31 -8 24 -39 -20 -82 -22 -21 -40
-46 -40 -55 0 -8 -18 -59 -40 -113 -22 -53 -40 -106 -40 -116 0 -14 13 -24 47
-35 26 -9 48 -16 51 -16 2 0 1 14 -3 30 -5 22 1 51 21 103 34 86 69 140 120
186 l39 33 -45 23 c-25 13 -54 32 -64 44 -19 21 -46 28 -46 12z"/>
<path d="M12900 2119 c-69 -67 -159 -149 -200 -182 -41 -33 -86 -76 -99 -96
-14 -19 -39 -47 -55 -61 -17 -14 -40 -34 -52 -45 -36 -35 -154 -138 -238 -208
-97 -81 -183 -140 -291 -198 -44 -23 -98 -53 -120 -66 -69 -41 -197 -103 -212
-103 -7 0 -21 -4 -31 -9 -9 -5 -45 -23 -80 -39 -56 -27 -61 -32 -47 -45 32
-33 54 -30 146 17 93 49 116 45 59 -9 -16 -16 -30 -36 -30 -46 0 -9 -16 -48
-35 -85 -39 -78 -40 -83 -21 -109 13 -18 16 -16 57 27 24 25 66 74 93 109 92
118 176 190 176 149 0 -14 -32 -83 -50 -105 -8 -10 6 -2 32 19 26 21 51 35 56
32 15 -9 117 80 142 124 5 8 11 12 14 9 6 -6 -154 -203 -211 -259 -19 -19 -46
-51 -59 -72 -13 -20 -29 -40 -35 -44 -7 -4 -9 -3 -5 4 3 6 2 13 -2 16 -5 3
-13 -5 -19 -17 -5 -12 -24 -53 -42 -91 -18 -37 -30 -71 -26 -74 6 -6 3 -10 47
48 19 25 44 56 56 70 12 14 59 72 104 130 46 58 93 116 105 130 21 25 124 149
186 224 18 22 46 56 62 75 38 45 135 164 198 245 26 34 61 75 77 91 16 17 48
53 70 80 23 28 59 70 80 95 21 25 49 59 62 75 13 17 36 41 51 54 15 13 41 42
56 65 16 22 50 61 75 86 25 25 46 49 46 54 0 6 10 20 22 33 12 13 20 23 17 23
-2 0 -60 -55 -129 -121z"/>
<path d="M11293 2088 c-6 -7 -18 -29 -27 -48 l-17 -34 115 -111 c63 -60 123
-128 134 -150 11 -22 30 -50 41 -62 11 -12 19 -28 16 -35 -3 -8 9 -19 28 -28
19 -9 33 -24 35 -37 3 -20 0 -21 -43 -16 -34 3 -56 -1 -86 -16 -22 -12 -45
-19 -50 -16 -5 4 -9 -1 -9 -10 0 -9 9 -19 20 -22 27 -7 20 -26 -14 -38 -37
-13 -54 0 -98 75 -65 110 -73 99 -14 -19 28 -53 35 -60 81 -76 17 -7 29 -17
27 -25 -5 -23 28 -99 51 -115 12 -8 32 -15 45 -15 35 0 137 36 237 85 120 58
261 119 308 135 21 6 97 51 170 100 73 48 164 104 202 124 71 38 141 96 116
96 -8 0 -82 -36 -165 -79 -165 -86 -265 -122 -398 -141 l-87 -13 -56 34 c-31
18 -70 48 -88 66 -18 18 -38 33 -44 33 -17 0 -16 -6 3 -34 10 -16 12 -26 5
-31 -6 -3 -11 -1 -11 5 0 8 -6 8 -20 0 -16 -8 -20 -8 -20 4 0 10 -6 13 -15 10
-11 -5 -13 -2 -8 12 4 12 3 15 -5 10 -13 -8 -42 15 -42 33 0 6 -7 11 -16 11
-8 0 -12 5 -9 10 3 6 1 10 -4 10 -6 0 -11 7 -11 15 0 8 -7 15 -15 15 -9 0 -12
6 -9 15 4 8 1 15 -5 15 -6 0 -11 5 -11 11 0 7 -16 26 -35 45 -19 18 -35 37
-35 43 0 6 -8 7 -17 4 -12 -5 -15 -2 -10 10 4 11 1 17 -8 17 -8 0 -15 7 -15
16 0 11 -5 14 -16 10 -12 -4 -14 -1 -9 14 9 30 -19 15 -34 -17 -6 -14 -14 -23
-16 -21 -3 3 2 19 11 37 16 32 10 59 -6 31 -22 -37 -29 -44 -36 -38 -3 4 1 14
10 23 9 9 16 26 16 38 0 20 0 20 -14 1 -19 -25 -31 -12 -16 16 13 25 8 37 -7
18z"/>
<path d="M10777 2043 c-16 -25 92 -411 151 -543 26 -59 91 -169 163 -280 54
-83 79 -135 120 -250 32 -90 65 -163 87 -193 40 -56 61 -108 62 -155 0 -18 10
-56 21 -83 17 -39 26 -49 46 -49 23 0 93 25 93 33 0 2 -21 1 -47 -3 -31 -5
-50 -4 -55 3 -3 6 -7 66 -7 134 -1 131 -11 188 -42 239 -21 35 -58 139 -59
166 0 9 -9 37 -20 63 -15 35 -28 49 -56 61 -24 10 -34 20 -30 30 3 7 1 14 -4
14 -6 0 -10 10 -10 23 -1 20 -2 21 -14 5 -18 -25 -45 -22 -56 5 -5 12 -9 16
-9 10 -1 -8 -8 -6 -21 7 -11 11 -17 26 -14 35 4 8 1 15 -5 15 -6 0 -23 19 -37
43 -15 23 -31 45 -36 48 -5 3 -6 19 -3 35 5 22 4 26 -4 14 -9 -13 -12 -12 -17
8 -4 12 -11 22 -16 22 -6 0 -8 11 -6 25 3 15 1 25 -6 25 -10 0 -69 153 -81
206 -2 11 -11 39 -19 63 -9 24 -13 48 -10 53 4 6 2 13 -3 17 -5 3 -15 29 -22
56 -6 28 -15 63 -19 80 -5 19 -11 25 -15 18z"/>
<path d="M14844 1505 c8 -22 17 -59 19 -83 3 -23 16 -57 30 -75 13 -18 29 -43
36 -57 9 -19 4 -16 -22 12 -18 20 -42 55 -53 77 -31 66 -48 45 -20 -24 35 -84
138 -185 189 -185 4 0 23 -11 40 -23 73 -54 206 -117 247 -117 46 0 138 41
107 48 -14 3 -8 10 25 34 102 72 175 161 146 179 -7 5 -17 9 -21 9 -5 0 -6 14
-2 31 8 34 12 33 -55 12 -8 -3 11 18 43 47 71 65 74 84 5 31 -101 -75 -132
-86 -238 -86 -52 1 -120 7 -150 14 -117 29 -252 100 -312 164 l-29 32 15 -40z"/>
<path d="M8253 1425 c-17 -19 -16 -30 2 -45 8 -7 15 -16 15 -21 0 -5 -7 -9
-15 -9 -18 0 -19 -12 -3 -28 16 -16 26 -15 30 5 3 15 4 15 17 0 12 -15 11 -17
-3 -17 -19 0 -22 -26 -3 -33 24 -9 40 8 32 34 -7 21 -6 21 19 -6 27 -29 33
-45 16 -45 -5 0 -10 5 -10 10 0 6 -4 10 -10 10 -14 0 -12 -28 3 -33 6 -2 9 -8
5 -12 -4 -4 -15 -2 -24 6 -10 8 -29 14 -43 14 -19 0 -26 5 -26 20 0 23 -33 65
-51 65 -7 0 -14 -7 -17 -14 -4 -10 -1 -13 9 -9 7 3 14 0 14 -7 0 -8 -9 -11
-25 -7 -16 3 -24 0 -22 -7 2 -6 10 -11 18 -11 13 0 59 -40 59 -51 0 -2 -12 -1
-26 2 -20 5 -26 2 -31 -15 -3 -11 -11 -21 -19 -21 -8 0 -11 -6 -7 -16 6 -15 7
-15 18 -1 7 11 21 15 38 12 16 -3 29 0 34 10 10 16 53 10 53 -9 0 -6 7 -2 15
8 13 17 15 18 15 3 0 -9 5 -17 10 -17 6 0 10 -6 10 -14 0 -9 11 -13 33 -12 26
1 32 -3 32 -19 0 -11 8 -21 19 -23 10 -2 16 0 12 6 -3 5 7 12 22 15 30 6 43 0
24 -12 -7 -4 -10 -16 -6 -27 3 -11 2 -15 -3 -9 -21 26 -77 4 -68 -26 5 -16 2
-15 -20 7 -24 24 -25 27 -10 44 11 12 13 20 5 25 -19 12 -40 -3 -40 -30 0 -18
-5 -25 -19 -25 -11 0 -23 -4 -26 -10 -3 -5 -15 -10 -26 -10 -26 0 -20 24 7 29
10 2 28 10 39 18 19 14 19 15 -5 7 -22 -6 -23 -5 -11 10 12 14 11 16 -8 16
-11 0 -21 4 -21 9 0 6 -31 9 -69 8 -38 -1 -67 -6 -64 -10 6 -11 -33 -48 -41
-40 -3 4 -6 -5 -6 -20 0 -14 5 -29 10 -32 6 -4 8 -10 5 -14 -2 -5 5 -17 16
-27 19 -17 21 -18 30 -1 17 30 32 20 25 -18 -7 -37 0 -45 18 -19 10 13 12 13
13 -4 2 -30 -30 -33 -56 -6 -26 28 -41 31 -41 9 0 -18 -16 -20 -26 -3 -4 6 -2
14 4 16 17 5 15 32 -2 32 -8 0 -16 5 -18 11 -6 17 -58 -38 -58 -61 0 -11 5
-20 11 -20 7 0 9 9 6 21 -4 15 -2 19 10 15 8 -3 19 -6 24 -6 5 0 9 -7 9 -15 0
-9 10 -19 22 -24 16 -6 18 -10 9 -16 -7 -4 -16 -3 -20 1 -9 13 -59 10 -73 -4
-19 -19 -26 -14 -20 14 3 19 1 25 -7 20 -6 -4 -11 -14 -11 -22 0 -8 -19 -33
-42 -54 -41 -39 -46 -60 -11 -45 10 5 22 7 27 6 5 -1 13 3 17 10 4 7 14 9 23
6 25 -10 19 -22 -11 -25 -15 -1 -37 -12 -50 -24 -20 -18 -23 -19 -23 -5 0 23
-33 21 -55 -3 -16 -18 -16 -20 -2 -20 10 0 17 -5 17 -11 0 -5 -9 -9 -21 -7
-14 2 -25 -6 -37 -27 -9 -16 -25 -36 -35 -43 -10 -8 -16 -20 -13 -28 3 -8 1
-14 -5 -14 -6 0 -8 -4 -5 -9 9 -13 -4 -41 -18 -41 -7 0 -25 -22 -40 -50 -21
-39 -24 -48 -11 -43 15 5 15 3 4 -15 -7 -11 -16 -19 -21 -16 -6 4 -38 -46 -38
-59 0 -3 9 -7 20 -10 29 -7 25 -25 -7 -29 -34 -4 -63 -54 -64 -111 -1 -23 -8
-52 -16 -65 -8 -13 -13 -33 -12 -45 3 -30 -10 -57 -27 -57 -21 0 -17 -18 6
-25 24 -8 25 -21 5 -41 -21 -21 -19 -34 5 -34 11 0 20 5 20 10 0 6 5 10 11 10
5 0 7 -4 4 -10 -8 -14 524 -13 541 1 8 7 14 7 19 -1 8 -13 95 -13 95 0 0 6 10
10 23 10 18 0 19 -2 7 -10 -11 -7 2 -10 44 -10 44 0 62 4 72 17 13 17 13 17
14 1 0 -16 11 -18 84 -18 55 0 87 4 93 13 6 6 13 52 17 102 4 50 9 108 11 130
2 22 -1 45 -7 52 -8 10 -7 13 4 13 19 0 38 38 35 70 -2 18 -7 24 -20 22 -10
-2 -17 3 -17 13 0 10 5 13 12 9 8 -5 9 -2 5 9 -4 11 -1 17 7 17 26 0 27 29 1
36 -14 3 -25 9 -25 13 0 11 44 8 52 -3 5 -7 8 -4 8 6 0 9 -4 20 -10 23 -16 10
-12 28 5 21 9 -3 15 0 15 10 0 8 4 13 9 9 15 -9 23 32 11 56 -7 13 -8 19 -2
15 9 -6 42 83 42 113 0 17 -18 13 -29 -6 -9 -16 -12 -16 -21 -3 -13 20 24 48
55 42 29 -5 37 23 17 56 -18 27 -6 45 13 19 10 -14 15 -15 21 -6 4 7 2 15 -4
17 -7 2 -12 10 -12 18 0 8 -7 14 -16 14 -22 0 -13 34 10 38 10 2 22 -2 27 -9
6 -10 11 -11 19 -3 14 14 7 18 -42 32 -30 8 -36 8 -31 -4 7 -19 -5 -18 -25 2
-19 19 -31 2 -13 -19 7 -10 4 -13 -14 -15 -17 -1 -25 5 -30 25 -4 17 -2 29 5
31 6 2 1 12 -11 23 -12 10 -20 19 -18 20 2 0 12 2 22 4 9 2 23 -6 31 -16 13
-19 14 -19 19 6 3 21 -1 29 -19 37 -13 6 -24 17 -24 25 0 7 -6 13 -14 13 -16
0 -46 42 -46 64 0 7 -7 16 -15 20 -9 3 -15 0 -15 -10 0 -9 -7 -14 -17 -12 -23
4 -29 28 -6 28 11 0 28 7 39 15 18 14 17 14 -14 15 -23 0 -40 -7 -52 -22 -15
-19 -22 -21 -37 -11 -10 6 -17 16 -15 22 1 6 -4 11 -12 11 -8 0 -17 7 -20 16
-5 13 -2 15 13 11 11 -2 30 2 42 11 21 15 23 14 37 -6 17 -25 42 -29 42 -7 0
8 -7 15 -15 15 -13 0 -19 12 -28 65 -2 17 -6 15 -20 -12 -10 -18 -14 -33 -10
-33 4 0 -2 -6 -13 -14 -29 -22 -42 -1 -13 22 20 17 21 22 10 36 -15 17 -36 22
-26 6 19 -31 -57 -26 -96 7 -9 7 -23 11 -31 8 -13 -5 -48 31 -48 50 0 10 22 5
37 -10 14 -15 33 -12 33 5 0 7 -62 51 -71 50 -2 -1 -10 -7 -16 -15z m133 -373
c6 -4 14 -15 17 -26 4 -11 13 -16 22 -12 8 3 15 1 15 -4 0 -6 -9 -10 -20 -10
-23 0 -24 -4 -10 -30 7 -13 7 -21 0 -25 -5 -3 -10 -13 -10 -21 0 -12 4 -13 21
-4 25 14 41 3 16 -11 -17 -10 -24 -39 -9 -39 4 0 18 7 30 16 20 14 24 14 38 0
20 -20 44 -21 44 -1 0 18 16 20 26 3 4 -6 0 -16 -9 -23 -18 -13 -23 -45 -7
-45 6 0 10 8 10 18 0 9 11 22 25 29 30 14 30 13 4 -31 -19 -33 -19 -36 -4 -36
10 0 23 7 29 15 6 8 22 17 35 20 32 6 34 10 16 25 -10 8 -15 9 -15 1 0 -6 -7
-11 -15 -11 -26 0 -16 18 16 29 18 6 33 11 34 11 2 0 6 -12 9 -26 5 -17 12
-24 21 -20 10 4 15 -1 15 -16 0 -17 -3 -18 -14 -9 -12 10 -20 9 -42 -6 -21
-13 -29 -14 -32 -5 -3 9 -11 5 -26 -11 -12 -13 -37 -26 -54 -29 -33 -5 -44 8
-17 18 8 4 15 10 15 15 0 5 -12 4 -26 -1 -34 -13 -44 -13 -44 3 0 28 -27 49
-70 54 -36 4 -42 3 -37 -10 4 -11 2 -14 -9 -10 -7 3 -14 1 -14 -5 0 -20 34
-23 48 -5 10 12 16 14 19 6 2 -7 11 -9 19 -6 9 3 14 -1 14 -11 0 -22 -27 -31
-45 -16 -10 8 -15 9 -15 2 0 -6 5 -14 10 -17 15 -9 12 -25 -4 -25 -8 0 -17 -6
-19 -12 -3 -7 -3 2 0 20 6 33 -4 41 -26 20 -11 -11 -13 -10 -8 5 4 11 1 17 -8
17 -8 0 -15 5 -15 11 0 18 35 56 48 51 6 -2 12 1 12 6 0 13 -34 26 -38 14 -1
-5 -16 -8 -33 -6 -20 3 -32 -1 -35 -11 -5 -12 -10 -10 -26 10 -11 14 -24 22
-29 19 -6 -4 -4 -13 5 -23 22 -25 20 -32 -8 -25 -18 4 -25 1 -29 -17 -4 -14
-11 -20 -21 -16 -11 5 -16 -3 -18 -29 l-3 -36 -24 26 c-23 24 -23 26 -5 32 31
11 53 35 47 50 -3 9 -13 12 -25 8 -17 -5 -18 -3 -9 14 15 27 14 39 -1 24 -21
-21 -40 -14 -21 8 17 20 83 29 83 11 0 -4 12 -6 26 -3 17 3 23 9 20 19 -4 8
-1 11 5 8 6 -4 13 3 16 14 4 15 11 20 23 16 13 -4 19 2 25 22 6 25 8 26 19 11
7 -9 22 -16 34 -15 28 2 28 3 -5 32 -25 22 -26 24 -8 25 11 0 25 -4 31 -8z"/>
<path d="M9755 810 c-58 -27 -61 -30 -74 -80 -7 -28 -12 -53 -10 -54 2 -2 85
-27 183 -56 l180 -53 60 33 c34 18 66 37 72 42 13 9 39 96 32 103 -7 8 -347
95 -365 94 -10 0 -45 -13 -78 -29z"/>
<path d="M9075 406 c-45 -89 -43 -108 23 -216 38 -60 47 -85 50 -132 l4 -58
43 0 43 0 -8 33 c-14 58 -47 141 -84 214 -42 85 -45 116 -13 138 21 13 53 64
45 70 -2 1 -17 7 -34 13 l-32 10 -37 -72z"/>
<path d="M9211 403 c-21 -76 -16 -111 32 -223 24 -58 50 -122 57 -142 11 -36
14 -38 54 -38 l42 0 -60 180 -61 179 23 21 c39 37 31 50 -43 65 -29 5 -31 4
-44 -42z"/>
<path d="M9389 419 c-12 -60 -7 -101 19 -178 17 -47 36 -113 44 -146 11 -51
16 -60 34 -57 11 1 29 -7 39 -18 15 -16 30 -20 82 -20 l65 0 -24 30 c-19 25
-28 29 -55 26 -39 -6 -48 6 -58 79 -4 28 -21 90 -37 138 -25 73 -28 93 -19
113 9 21 8 24 -8 24 -10 0 -33 3 -50 6 -17 4 -31 5 -32 3z"/>
</g>
</svg>
