<?xml version="1.0" standalone="no"?>
<!DOCTYPE svg PUBLIC "-//W3C//DTD SVG 20010904//EN"
 "http://www.w3.org/TR/2001/REC-SVG-20010904/DTD/svg10.dtd">
<svg version="1.0" xmlns="http://www.w3.org/2000/svg"
 width="1920.000000pt" height="1080.000000pt" viewBox="0 0 1920.000000 1080.000000"
 preserveAspectRatio="xMidYMid meet">
<metadata>
Created by potrace 1.15, written by Peter Selinger 2001-2017
</metadata>
<g transform="translate(0.000000,1080.000000) scale(0.100000,-0.100000)"
fill="#000000" stroke="none">
<path d="M2 10563 c3 -220 4 -238 21 -235 9 2 17 -2 17 -8 0 -5 -3 -9 -8 -9
-24 4 -28 -8 -30 -97 -2 -83 0 -95 13 -90 9 3 15 0 15 -9 0 -8 -6 -15 -13 -15
-8 0 -14 -6 -14 -14 0 -8 3 -15 6 -14 18 2 31 -3 31 -12 0 -5 -6 -7 -14 -4 -8
3 -17 1 -21 -5 -3 -6 -1 -11 5 -11 7 0 9 -8 5 -20 -6 -18 3 -25 28 -21 14 2 7
-20 -8 -25 -22 -9 -18 -23 5 -17 24 6 26 -4 3 -29 -15 -17 -15 -19 2 -38 14
-16 15 -22 5 -35 -7 -8 -9 -22 -5 -32 7 -17 8 -16 15 2 6 14 9 1 8 -40 0 -59
0 -59 -13 -30 l-14 30 -1 -30 c0 -34 26 -79 41 -70 5 4 9 1 9 -4 0 -14 -6 -14
-31 0 -18 9 -19 8 -11 -8 5 -10 7 -24 4 -32 -2 -8 3 -20 12 -27 16 -11 16 -13
-3 -19 -30 -9 -26 -25 5 -25 22 0 25 -2 14 -15 -7 -8 -16 -12 -21 -9 -17 10
-9 -18 10 -34 23 -20 37 -62 21 -62 -6 0 -9 -4 -6 -8 2 -4 -4 -9 -15 -9 -17
-2 -18 0 -4 13 17 17 21 49 4 39 -5 -4 -19 1 -30 11 -16 14 -22 15 -32 5 -9
-10 -9 -12 2 -9 7 2 16 -3 18 -9 3 -7 -3 -13 -12 -13 -13 0 -14 -4 -5 -20 7
-14 7 -20 0 -20 -7 0 -10 -294 -10 -925 0 -901 0 -925 19 -925 20 0 31 -18 31
-51 0 -14 -7 -19 -25 -19 l-25 0 0 -1175 0 -1175 37 -2 c58 -3 65 -2 108 5 24
4 34 3 26 -2 -7 -5 -11 -13 -7 -19 3 -6 2 -13 -4 -17 -5 -3 -10 -1 -10 5 0 6
-5 8 -12 4 -17 -10 -90 -5 -105 8 -17 14 -33 1 -33 -26 0 -21 7 -23 108 -35
59 -6 116 -14 127 -16 11 -2 58 -8 105 -14 47 -6 202 -26 345 -45 252 -33 320
-41 435 -51 30 -2 87 -9 125 -14 39 -6 93 -13 120 -16 28 -4 64 -9 80 -12 106
-17 131 -20 137 -17 4 3 25 0 45 -5 21 -6 67 -13 103 -16 36 -3 121 -13 190
-22 69 -9 134 -17 145 -18 11 -1 49 -5 86 -9 36 -5 83 -9 105 -11 51 -4 461
-52 505 -59 19 -4 52 -8 74 -10 69 -8 248 -26 290 -30 52 -5 92 -20 77 -30 -7
-4 -12 -5 -12 -1 0 3 -8 1 -19 -4 -10 -6 -21 -7 -25 -4 -13 14 -66 12 -66 -2
0 -7 -5 -15 -11 -17 -9 -3 -213 24 -234 30 -7 3 -4 2 -75 8 -36 2 -90 9 -120
15 -30 6 -75 12 -100 14 -138 9 -543 64 -550 74 -9 15 -133 32 -141 20 -4 -7
-9 -7 -12 -2 -3 5 -22 8 -41 7 -20 -2 -38 1 -42 7 -3 5 -14 7 -25 4 -10 -4
-19 -2 -19 4 0 6 -17 9 -40 7 -22 -2 -41 -1 -44 1 -3 3 -33 6 -68 7 -35 1 -68
5 -75 9 -17 11 -113 15 -119 6 -5 -9 -10 -9 -99 10 -27 6 -75 13 -105 15 -93
8 -212 26 -229 35 -17 9 -71 19 -136 26 -125 13 -153 16 -209 24 -33 5 -68 9
-76 10 -8 0 -53 3 -100 5 -48 3 -87 1 -91 -5 -3 -6 -32 -4 -75 5 -48 10 -72
11 -81 4 -8 -7 -13 -7 -13 -1 0 6 -25 11 -56 11 -31 0 -61 5 -67 11 -6 6 -15
11 -19 11 -5 0 -8 -76 -7 -170 1 -130 5 -172 15 -181 11 -9 18 -8 28 0 9 8 16
9 21 2 7 -12 -39 -26 -54 -16 -6 3 -11 2 -11 -3 0 -5 10 -14 23 -21 l22 -11
-22 6 c-27 6 -31 -11 -5 -25 16 -10 16 -12 0 -24 -13 -11 -17 -27 -16 -70 1
-46 4 -54 15 -46 8 7 13 8 13 1 0 -5 -7 -15 -15 -22 -18 -15 -19 -186 -1 -209
8 -11 8 -13 -1 -7 -10 6 -13 -407 -13 -2053 0 -1638 3 -2060 13 -2064 10 -4
10 -6 0 -6 -9 -1 -13 -19 -13 -56 l0 -55 4296 0 c2948 0 4301 3 4315 10 13 7
19 7 19 0 0 -7 1649 -10 5285 -10 l5285 0 0 4031 c0 4022 0 4031 -20 4036 -11
3 -20 12 -20 20 0 10 6 12 20 8 20 -6 20 -2 20 1349 l0 1356 -3460 0 c-2287 0
-3460 -3 -3460 -10 0 -6 12 -10 28 -11 15 0 21 -3 15 -6 -18 -7 -16 -33 2 -33
8 0 15 -5 15 -11 0 -7 10 -20 22 -30 11 -11 15 -19 8 -19 -7 0 -10 -7 -6 -15
7 -19 1 -18 -57 9 -26 12 -44 25 -41 29 4 4 2 7 -4 7 -8 0 -9 7 -2 26 9 22 7
27 -10 31 -11 3 -20 9 -20 14 0 5 -9 9 -21 9 -15 0 -19 -5 -15 -16 3 -8 2 -13
-2 -10 -4 3 -8 -14 -8 -36 l1 -42 90 -42 c50 -24 115 -50 145 -58 54 -14 237
-87 455 -180 106 -46 158 -71 411 -199 63 -33 121 -56 129 -53 8 3 21 18 28
33 15 34 72 86 103 95 30 8 30 1 2 -29 -19 -20 -20 -25 -8 -33 12 -7 7 -17
-25 -50 -21 -22 -35 -40 -29 -40 5 0 15 5 22 12 19 19 27 0 9 -20 -21 -23 -22
-42 -2 -42 12 0 13 -4 5 -17 -14 -24 -58 -146 -75 -206 -12 -43 -12 -49 7 -70
15 -17 18 -18 14 -4 -8 25 3 21 28 -10 30 -38 35 -74 21 -137 -19 -79 -95
-213 -95 -166 0 6 10 30 22 53 24 48 48 130 48 168 0 17 -8 30 -22 38 -13 6
-36 20 -53 31 -16 11 -37 23 -45 26 -8 4 -23 13 -32 21 -9 8 -31 23 -50 32
-25 14 -34 27 -38 52 -4 28 -9 33 -27 31 -17 -2 -23 4 -28 27 -8 36 3 61 16
40 7 -12 9 -12 9 0 0 11 3 11 16 0 13 -10 17 -10 24 0 4 8 12 11 17 8 5 -3 10
3 10 14 1 13 -5 19 -18 19 -21 0 -39 33 -33 63 1 10 -1 15 -6 12 -4 -3 -10 0
-12 7 -3 7 -28 -10 -61 -41 -85 -81 -78 -56 8 29 41 40 75 77 75 81 0 4 -7 10
-17 13 -16 7 -25 0 -107 -74 -36 -32 -37 -33 -21 -7 10 16 38 42 62 58 39 27
57 59 33 59 -5 0 -10 -4 -10 -10 0 -5 -10 -15 -22 -21 -23 -12 -23 -12 -4 10
21 23 16 27 -17 9 -20 -10 -21 -10 -8 5 17 21 11 21 -25 2 -17 -9 -30 -11 -32
-5 -2 6 -10 6 -23 0 -15 -8 -19 -7 -19 5 0 8 -6 15 -14 15 -7 0 -38 14 -69 30
-31 17 -61 30 -67 30 -6 0 -32 9 -58 21 -26 11 -78 34 -117 51 -38 17 -97 43
-130 59 -84 40 -187 80 -193 74 -3 -2 -14 2 -26 10 -11 8 -30 15 -41 15 -11 1
-45 25 -75 55 -30 30 -60 55 -67 55 -38 0 -67 95 -43 141 11 19 -15 19 -1986
19 l-1996 0 41 -49 c37 -45 50 -71 35 -71 -18 0 -63 37 -92 76 l-33 44 -3291
0 c-1810 0 -3289 -2 -3287 -4 5 -4 138 -59 244 -101 39 -15 138 -54 220 -87
83 -33 162 -63 176 -68 15 -4 42 -15 60 -24 19 -8 52 -22 74 -30 112 -40 368
-142 420 -166 39 -18 152 -60 161 -60 9 0 107 -37 299 -113 50 -20 139 -54
200 -77 60 -23 133 -54 163 -68 l54 -25 -23 -18 c-13 -10 -32 -19 -42 -19 -18
0 -152 43 -247 80 -30 12 -73 28 -95 36 -22 8 -49 18 -60 23 -33 15 -208 79
-235 87 -14 3 -47 18 -75 32 -35 17 -69 26 -115 27 -73 3 -79 5 -135 29 -68
30 -238 96 -248 96 -5 0 -23 6 -40 14 -76 34 -245 104 -272 113 -25 8 -30 14
-27 39 2 22 1 26 -7 14 -8 -11 -11 -12 -11 -2 0 14 -19 36 -35 39 -15 4 -164
63 -220 88 -27 12 -106 43 -175 69 -69 26 -138 54 -155 62 -39 19 -406 20
-402 1 1 -6 -8 -13 -20 -15 -15 -2 -23 2 -23 12 0 13 -60 15 -465 16 l-466 1
3 -238z m1021 195 c3 -10 9 -10 26 0 20 12 31 0 11 -13 -16 -10 -12 -23 10
-30 12 -4 19 -14 18 -23 -2 -11 3 -16 15 -16 9 1 17 -4 17 -12 0 -8 7 -14 15
-14 8 0 15 5 15 10 0 6 10 10 23 9 20 0 20 -1 3 -8 -23 -9 -10 -18 22 -15 12
0 22 -4 22 -10 0 -13 41 -41 54 -38 5 2 6 -6 3 -18 -4 -17 -2 -19 19 -14 20 5
23 3 17 -12 -5 -14 -3 -16 11 -11 12 5 19 0 26 -16 6 -16 9 -17 9 -5 1 9 7 19
14 21 9 4 8 8 -3 16 -13 9 -11 12 8 17 16 5 21 11 17 23 -4 9 -8 24 -10 33 -4
21 -37 67 -47 68 -5 0 -8 5 -8 11 0 6 7 8 16 5 12 -5 15 -2 12 12 -4 15 0 17
28 14 18 -2 39 -10 45 -18 6 -8 17 -14 23 -14 6 -1 29 -23 51 -50 40 -50 87
-84 99 -73 10 10 7 35 -4 28 -5 -3 -10 -1 -10 4 0 23 32 10 41 -16 5 -16 26
-38 49 -51 37 -21 40 -21 49 -5 9 15 11 13 11 -12 1 -25 3 -26 9 -11 7 19 8
18 15 -5 5 -13 8 -27 7 -31 0 -4 11 -16 24 -26 14 -11 25 -24 25 -29 0 -4 9
-14 20 -21 17 -10 20 -10 20 4 0 8 5 12 10 9 12 -8 12 -8 1 33 -8 25 -7 32 5
32 8 0 14 5 14 10 0 14 43 13 58 -2 7 -7 12 -26 13 -42 0 -20 3 -25 7 -16 6
14 9 14 24 -2 16 -16 16 -18 0 -27 -11 -7 -12 -11 -4 -11 20 0 41 -25 54 -61
8 -25 8 -33 -3 -40 -11 -7 -11 -9 3 -9 12 0 19 -12 24 -37 4 -21 16 -57 26
-80 10 -24 16 -47 13 -52 -3 -5 0 -13 6 -17 7 -4 9 -21 5 -44 -4 -25 -2 -41 7
-48 7 -6 54 -13 104 -14 l90 -3 -88 -265 c-49 -146 -89 -266 -89 -267 0 -9 38
-1 48 9 9 9 12 9 12 1 0 -7 -5 -15 -10 -18 -6 -4 -8 -10 -5 -15 3 -5 1 -11 -4
-14 -5 -3 -12 1 -15 10 -6 17 -26 10 -25 -9 0 -8 2 -8 6 1 4 10 8 9 18 -5 7
-10 10 -22 7 -28 -4 -5 -8 -26 -9 -45 -1 -21 -10 -42 -23 -52 -11 -9 -20 -22
-20 -28 0 -10 -3 -10 -15 0 -24 20 -29 -13 -16 -105 7 -46 10 -89 6 -96 -4 -6
-1 -15 6 -20 10 -6 11 -9 2 -9 -7 0 -13 -7 -13 -15 0 -9 -6 -12 -15 -9 -15 6
-19 -7 -15 -55 1 -14 -2 -21 -9 -17 -6 4 -12 31 -13 59 -1 50 -2 51 -5 10 -3
-28 -9 -43 -18 -43 -27 0 -43 -97 -26 -158 8 -27 7 -32 -8 -32 -14 0 -17 6
-13 31 3 21 1 30 -6 25 -10 -6 -35 -131 -32 -157 2 -8 2 -161 1 -341 l-1 -328
-65 0 -65 0 0 -31 c0 -17 4 -28 10 -24 5 3 10 1 10 -4 0 -6 -6 -11 -12 -11 -9
0 -8 -4 2 -10 11 -8 7 -9 -15 -4 -38 9 -36 6 -22 34 7 14 11 44 9 68 l-3 42
-25 -30 c-25 -29 -48 -33 -38 -6 3 8 1 17 -5 21 -7 4 -11 -8 -12 -32 0 -21 -3
-32 -6 -25 -2 6 -11 12 -19 12 -8 0 -14 7 -14 16 0 24 -20 6 -21 -19 -1 -18
-2 -17 -9 7 -5 16 -6 34 -3 39 4 6 8 186 11 401 l4 391 -135 395 c-75 217
-163 475 -196 573 -34 97 -61 179 -61 182 0 3 69 5 153 5 l154 0 28 -107 c15
-60 30 -123 32 -140 3 -18 8 -33 12 -33 10 0 46 -158 38 -166 -3 -4 1 -13 9
-22 9 -9 13 -24 10 -37 -4 -15 -1 -25 8 -28 22 -9 24 1 14 45 -6 27 -5 51 1
67 6 14 10 46 10 71 -1 25 0 132 1 239 1 120 -2 197 -8 203 -6 6 -8 17 -5 24
3 8 -1 14 -10 14 -18 0 -27 21 -21 47 3 11 -2 25 -10 32 -11 9 -16 10 -16 2 0
-6 -5 -11 -11 -11 -7 0 -9 10 -5 26 5 19 -1 35 -25 65 -17 21 -35 37 -40 33
-5 -3 -9 -1 -9 5 0 15 -60 25 -73 12 -8 -8 -4 -11 13 -11 24 -1 23 -2 -13 -31
-31 -26 -48 -32 -102 -35 -57 -4 -65 -3 -66 13 0 11 -3 13 -6 6 -6 -15 -33
-17 -33 -3 0 10 -3 14 -76 94 -43 48 -48 58 -45 85 2 7 -2 10 -8 6 -6 -3 -14
1 -17 9 -3 9 -10 13 -16 10 -8 -5 -24 31 -20 46 0 3 -8 10 -19 16 -11 5 -28
22 -37 36 -9 15 -32 45 -50 67 l-34 41 36 0 35 0 -29 32 c-22 23 -26 34 -17
40 18 11 35 10 40 -4z m13184 -71 c-8 -25 -21 -38 -49 -50 -43 -19 -118 -23
-118 -6 0 6 -13 8 -30 5 -16 -2 -30 0 -30 5 0 5 -10 3 -22 -5 -34 -20 -102
-31 -93 -14 5 7 -2 3 -14 -9 -12 -13 -27 -23 -33 -23 -7 0 -3 7 8 15 18 14 17
14 -9 5 -36 -13 -37 -13 -31 5 3 8 14 17 25 20 11 4 17 10 14 15 -3 5 3 9 12
10 10 0 50 3 88 5 39 3 89 6 112 8 23 1 50 11 62 21 11 10 24 16 28 13 5 -3
15 -2 23 4 8 5 27 9 41 9 25 0 26 -1 16 -33z m538 3 c3 -5 30 -11 58 -11 69
-2 109 -11 115 -27 2 -7 -2 -10 -12 -6 -9 3 -16 1 -16 -6 0 -7 -8 -9 -19 -5
-12 3 -21 0 -25 -10 -3 -9 -11 -15 -18 -14 -30 4 -49 -2 -42 -12 3 -6 17 -8
30 -5 14 4 24 2 24 -4 0 -5 -9 -10 -21 -10 -18 0 -19 -2 -5 -15 8 -8 20 -15
26 -15 6 0 8 -5 4 -11 -9 -14 -133 -71 -145 -67 -6 2 15 14 45 28 31 13 56 28
56 32 0 8 -27 0 -45 -12 -5 -4 -26 -12 -45 -18 -33 -11 -34 -11 -15 4 11 9 33
21 48 26 15 6 26 12 24 15 -3 2 -22 -3 -42 -11 -42 -18 -68 -21 -45 -6 13 8
12 10 -4 10 -14 0 -16 3 -7 13 6 8 8 17 4 20 -3 4 -1 7 6 7 7 0 9 4 6 10 -3 6
1 7 9 4 9 -3 13 -10 10 -15 -10 -17 3 -9 37 21 26 23 30 30 17 31 -31 3 -36 4
-44 12 -14 14 -26 7 -21 -13 5 -20 -18 -30 -25 -11 -2 5 -14 4 -28 -1 -18 -7
-21 -12 -10 -15 8 -2 22 -7 30 -9 10 -4 1 -12 -25 -25 -22 -11 -31 -16 -20
-13 11 3 29 8 40 11 17 4 17 2 -3 -9 -12 -8 -20 -17 -16 -20 6 -7 -81 -48
-100 -47 -6 0 8 9 32 19 45 21 58 36 16 20 -37 -14 -43 -13 -54 15 -5 14 -13
25 -18 25 -22 0 -71 -23 -66 -31 8 -14 -20 -11 -41 4 -10 8 -15 19 -11 26 6 9
11 9 22 1 15 -13 70 0 111 26 12 8 24 10 28 5 3 -5 -4 -13 -16 -16 -17 -6 -19
-9 -8 -16 19 -12 32 -11 24 1 -3 6 1 13 10 17 16 5 16 7 -1 16 -17 10 -17 11
1 18 19 7 19 8 -2 8 -12 1 -29 -7 -38 -16 -10 -9 -29 -18 -43 -19 -20 -2 -23
-1 -12 6 13 9 13 10 0 10 -11 0 -9 4 5 12 11 7 26 18 34 26 8 7 24 12 36 10
25 -5 52 17 32 26 -7 3 2 4 18 3 18 -1 29 -7 28 -14 -2 -7 2 -13 7 -13 6 0 10
5 10 11 0 7 17 10 45 7 39 -3 43 -1 28 9 -15 12 -15 13 4 13 12 0 25 -4 28
-10z m-970 -60 c-3 -5 -12 -10 -20 -10 -8 0 -17 -5 -21 -12 -5 -8 -1 -9 12 -4
16 6 -3 -12 -65 -61 -14 -11 -14 -12 0 -13 8 0 20 5 27 12 8 8 12 8 12 1 0 -6
-13 -16 -30 -23 -32 -13 -77 -69 -46 -57 9 4 16 2 16 -4 0 -5 -7 -12 -15 -15
-8 -4 -13 -10 -10 -14 3 -5 1 -11 -4 -15 -6 -3 -8 -11 -5 -18 2 -7 -9 -26 -26
-42 -16 -16 -30 -24 -30 -19 0 6 3 14 8 18 4 4 7 20 8 34 2 86 4 92 31 103 19
7 23 13 15 21 -6 6 -8 16 -6 23 8 19 -66 28 -86 10 -9 -8 -21 -15 -27 -15 -6
0 -16 -7 -23 -15 -13 -16 -30 -20 -30 -7 0 7 29 25 105 67 22 12 60 25 85 29
24 4 49 11 55 15 20 17 79 26 70 11z m-9874 -77 c1 -24 3 -29 6 -15 2 12 8 22
12 22 4 0 5 -124 4 -275 -2 -172 0 -275 6 -275 6 0 8 20 4 50 -4 33 -2 50 5
50 6 0 11 -8 10 -17 -2 -120 5 -243 15 -243 21 0 137 -59 137 -69 0 -5 -9 -12
-19 -16 -11 -3 -23 -15 -26 -26 -7 -21 -24 -24 -74 -9 l-33 9 5 -107 c3 -59 6
-107 7 -107 1 0 3 -31 5 -70 2 -38 8 -117 14 -175 6 -58 11 -118 11 -135 0
-24 2 -27 11 -15 7 11 9 7 8 -20 -1 -19 -1 -44 0 -55 l2 -20 9 20 c8 19 9 19
9 -2 1 -21 -9 -28 -31 -24 -5 0 -8 -17 -8 -39 0 -22 5 -40 11 -40 5 0 7 5 4
10 -3 6 1 10 9 10 24 0 19 -39 -6 -51 -27 -12 -26 -9 -32 -289 -4 -218 -23
-464 -37 -468 -11 -4 -12 -32 -1 -32 7 0 7 -47 2 -140 -1 -14 -4 -19 -7 -12
-2 6 -11 12 -19 12 -8 0 -14 5 -14 10 0 6 -7 10 -15 10 -9 0 -15 9 -15 23 0
12 -4 28 -9 36 -13 20 -18 -6 -26 -124 -3 -55 -10 -125 -14 -155 l-9 -55 -1
52 c-1 45 -3 52 -18 47 -17 -5 -16 -4 0 9 17 14 17 16 1 25 -15 8 -16 19 -11
76 5 54 4 66 -8 66 -11 0 -15 -14 -17 -52 l-1 -53 -7 55 c-4 30 -7 45 -8 34
-1 -12 -9 -27 -17 -34 -8 -7 -15 -19 -15 -26 0 -8 -5 -14 -11 -14 -7 0 -9 9
-6 21 4 15 2 19 -9 15 -9 -3 -16 3 -20 19 -3 14 -12 29 -20 33 -11 6 -134 334
-370 987 -36 98 -69 186 -74 195 -6 9 -8 -227 -7 -583 l2 -597 -143 0 -144 0
6 148 c16 393 18 465 8 471 -7 4 -12 239 -14 689 l-3 682 143 0 c119 0 142 -2
142 -15 0 -8 5 -16 10 -16 11 -2 25 -5 38 -9 4 -1 10 -2 15 -1 4 0 7 -9 7 -22
0 -18 2 -19 10 -7 6 10 10 11 10 3 0 -21 3 -27 16 -40 15 -15 34 -17 34 -3 0
5 21 7 50 4 32 -3 50 -1 50 6 0 6 5 8 10 5 6 -4 7 -11 4 -17 -5 -8 -1 -9 11
-5 19 8 65 -33 65 -58 0 -28 -13 -45 -35 -45 -21 0 -22 -2 -10 -32 6 -18 19
-49 27 -68 14 -29 16 -82 16 -321 l0 -285 42 -125 c23 -68 45 -127 48 -131 4
-4 7 261 7 588 l0 594 39 0 c40 0 65 19 66 51 0 9 7 22 15 29 8 7 13 16 10 20
-3 5 0 12 6 16 8 5 9 3 4 -6 -5 -9 -4 -11 3 -6 7 4 10 19 7 34 -5 26 -5 26 5
4 11 -25 33 -21 23 3 -3 9 0 21 6 28 6 7 11 28 13 45 2 35 12 41 22 15 6 -14
9 -15 16 -4 4 8 6 20 3 28 -3 7 -1 13 5 13 6 0 12 -6 15 -12 2 -7 6 11 8 40 2
28 1 52 -3 52 -5 0 -8 -5 -8 -12 0 -6 -7 -4 -18 5 -10 10 -22 14 -25 10 -4 -3
-7 -1 -7 5 0 7 3 12 8 12 13 0 30 53 37 115 9 78 15 105 26 105 5 0 10 -17 10
-37z m10299 -48 c0 -18 12 -19 28 -3 9 9 13 8 17 -5 4 -9 13 -13 21 -10 8 3
14 -1 14 -11 0 -9 6 -13 14 -10 7 3 16 -2 20 -11 3 -9 10 -13 16 -10 5 3 10
-1 10 -9 0 -9 3 -16 8 -16 9 0 27 -42 42 -100 14 -52 19 -250 7 -250 -4 0 -5
-4 -2 -10 3 -5 2 -10 -3 -10 -13 0 -22 25 -22 61 0 16 -9 55 -19 87 -11 31
-23 74 -26 95 -9 46 -40 83 -83 98 -20 7 -34 21 -41 41 -6 17 -19 36 -28 43
-15 11 -15 15 -4 29 17 20 31 21 31 1z m-1229 -447 c-54 -67 -42 -78 15 -14
24 28 46 48 48 45 3 -3 -16 -30 -42 -60 -49 -56 -35 -51 33 13 64 61 63 44 -1
-19 -32 -32 -59 -64 -60 -71 -1 -8 -6 -17 -10 -20 -4 -4 -4 1 0 12 5 15 3 17
-16 12 -13 -3 -34 -6 -46 -6 -16 0 -26 -7 -29 -21 -4 -14 -8 -17 -13 -9 -6 10
-15 9 -36 -3 -16 -9 -49 -22 -74 -31 -105 -35 -136 -49 -157 -68 -13 -12 -23
-16 -23 -10 0 8 -9 7 -26 -5 -25 -16 -27 -16 -40 2 -16 22 -12 30 29 52 30 15
31 15 18 0 -22 -27 3 -19 44 13 40 32 54 38 36 17 -6 -8 -8 -17 -4 -20 9 -10
23 -9 23 2 0 5 37 47 82 92 46 46 74 71 64 54 -11 -16 -26 -41 -35 -55 l-16
-25 27 21 c14 11 39 35 53 52 34 41 53 42 25 2 -30 -43 -13 -37 39 13 l44 42
-22 -40 c-21 -38 -18 -36 36 21 71 76 89 82 34 12z m-8300 -52 c89 -19 161
-57 227 -119 95 -91 136 -186 147 -348 l7 -94 167 -62 c199 -74 218 -79 224
-61 2 8 3 7 2 -2 -1 -10 13 -22 39 -33 73 -29 369 -138 446 -164 158 -53 197
-81 191 -136 -2 -18 -8 -35 -15 -39 -13 -9 -106 1 -121 12 -5 4 -30 14 -55 21
-25 7 -47 16 -50 19 -3 4 -25 14 -50 24 -83 32 -100 41 -100 53 0 6 -10 15
-22 18 -13 4 -47 18 -76 31 -29 13 -56 24 -61 24 -4 0 -22 7 -39 16 -17 8 -44
17 -58 20 l-27 5 6 -59 c4 -32 13 -72 22 -88 8 -16 15 -34 15 -40 0 -7 12 -15
27 -18 27 -7 43 5 42 34 0 10 -3 8 -9 -5 -7 -15 -9 -16 -9 -4 -1 24 28 47 38
30 7 -10 12 -8 22 7 19 27 55 37 63 17 4 -11 13 -14 31 -9 24 6 25 4 20 -24
-3 -17 0 -34 5 -37 6 -4 9 -14 6 -23 -2 -10 -7 -48 -11 -87 -3 -38 -12 -108
-20 -155 -17 -102 -23 -151 -41 -305 -2 -22 -6 -51 -8 -65 -2 -14 -9 -65 -16
-115 -10 -79 -13 -104 -19 -138 0 -5 -7 -5 -13 -1 -9 6 -9 3 0 -9 8 -9 11 -24
8 -34 -3 -10 -8 -37 -10 -58 -8 -81 -19 -140 -28 -152 -5 -7 -5 -14 1 -17 7
-4 7 -15 1 -31 -6 -16 -6 -27 1 -31 7 -4 6 -10 -1 -19 -6 -8 -10 -19 -9 -27 1
-7 0 -20 -4 -28 -13 -34 -16 -137 -5 -148 9 -9 7 -15 -7 -26 -18 -13 -18 -15
-2 -39 21 -32 21 -41 2 -33 -10 3 -15 -1 -15 -13 0 -10 -7 -24 -15 -31 -12
-10 -15 -35 -14 -109 0 -68 3 -89 9 -73 5 12 7 29 4 37 -5 11 1 15 20 15 25 0
28 -4 30 -44 1 -19 26 -37 26 -19 0 10 47 10 57 0 14 -14 101 -7 107 8 3 8 12
15 20 15 10 0 13 -6 10 -15 -5 -13 14 -15 135 -15 l141 0 0 -141 c0 -134 1
-142 23 -159 18 -15 20 -22 11 -37 -15 -24 -49 -19 -86 12 -33 28 -48 25 -49
-8 0 -13 -3 -16 -6 -8 -5 11 -7 11 -14 0 -6 -10 -9 -4 -9 19 l0 32 -95 0 c-92
0 -95 -1 -96 -22 -1 -22 -1 -22 -7 -3 -10 31 -87 34 -113 6 -19 -20 -53 -168
-50 -218 0 -12 -4 -25 -9 -28 -6 -4 -10 69 -10 204 0 129 -4 212 -10 216 -7 4
-10 -64 -10 -197 0 -120 -4 -209 -10 -218 -8 -10 -9 16 -7 88 3 57 1 100 -3
95 -5 -4 -10 -17 -12 -27 -2 -12 -12 -20 -25 -21 -19 -1 -23 4 -23 25 0 55
-11 89 -28 83 -10 -4 -13 -2 -8 5 5 9 -20 12 -98 12 l-106 0 0 745 c0 409 -4
788 -10 842 -5 54 -11 181 -14 283 -2 102 -7 193 -11 203 -9 21 -25 23 -25 2
0 -8 -6 -12 -14 -9 -13 5 -29 -24 -39 -71 -4 -17 -5 -17 -6 3 -2 35 -21 15
-21 -21 0 -24 3 -28 10 -17 8 12 10 9 10 -12 0 -14 -5 -28 -12 -30 -6 -2 -8
-10 -4 -17 14 -22 27 -274 14 -282 -4 -3 -2 -23 6 -45 12 -34 12 -43 0 -59 -8
-11 -12 -26 -9 -33 3 -8 0 -21 -6 -28 -9 -11 -8 -14 5 -14 9 0 16 -4 16 -10 0
-5 -7 -10 -15 -10 -8 0 -15 -8 -15 -17 0 -15 -2 -14 -14 3 -18 24 -27 15 -51
-50 -28 -76 -101 -164 -172 -206 -90 -54 -162 -74 -268 -74 -137 -1 -233 36
-332 128 -67 62 -106 127 -128 212 -15 62 -27 300 -25 512 1 88 -2 122 -11
122 -8 0 -7 5 2 17 10 11 10 14 2 9 -7 -4 -13 -3 -13 3 0 5 6 11 13 13 9 4 13
74 15 299 1 162 7 317 13 346 33 166 179 310 353 348 80 18 137 18 217 1z
m-3835 -15 c142 -27 262 -113 317 -225 60 -123 61 -127 61 -756 0 -502 -2
-583 -17 -637 -42 -160 -109 -245 -252 -322 -22 -11 -34 -21 -27 -21 21 0 13
-20 -13 -32 -18 -8 -25 -19 -26 -42 l-1 -31 -13 35 c-10 27 -14 31 -20 18 -9
-22 -59 -19 -63 5 -3 12 3 17 22 17 14 0 27 4 30 9 4 5 -29 7 -76 5 -162 -9
-165 -9 -192 -40 l-25 -29 -11 33 c-7 17 -16 32 -21 32 -15 0 -59 -42 -53 -52
3 -4 0 -8 -5 -8 -6 0 -17 14 -24 32 l-13 31 -12 -40 c-10 -33 -16 -40 -34 -38
-13 1 -29 3 -35 4 -8 0 -13 15 -13 36 0 20 -5 35 -12 35 -6 0 -20 7 -30 17
-15 13 -18 32 -18 112 0 66 -3 91 -10 81 -11 -17 -13 -1 -4 24 14 36 24 12 24
-54 0 -38 3 -70 8 -70 4 0 5 233 4 517 -2 285 -3 523 -2 528 3 16 9 420 10
638 l0 197 249 0 c136 0 270 -4 297 -9z m1864 -986 l0 -995 -145 0 -145 0 0
84 c0 46 4 86 9 88 5 2 11 89 14 193 3 105 6 197 8 205 6 37 -2 380 -8 380 -5
0 -7 -57 -7 -127 2 -109 1 -118 -6 -58 -12 108 -12 237 0 230 6 -4 8 -11 5
-16 -4 -5 -1 -9 5 -9 10 0 9 43 -6 195 -3 28 -8 224 -11 438 l-5 387 146 0
146 0 0 -995z m14375 780 l50 -13 -33 -8 c-42 -9 -66 -43 -59 -86 2 -18 -2
-48 -9 -67 -22 -52 -19 -74 9 -66 12 4 31 15 42 25 11 10 31 20 44 22 28 4 41
28 15 28 -9 0 -15 3 -11 6 3 3 -8 18 -24 32 -26 22 -28 27 -15 34 9 5 14 13
12 17 -3 4 13 8 35 8 22 1 52 11 68 22 31 23 90 28 122 11 30 -17 23 -28 -32
-47 -63 -22 -78 -45 -43 -64 29 -15 48 -44 39 -59 -3 -6 -31 -10 -62 -10 l-55
0 26 -34 c14 -19 26 -37 26 -41 0 -3 -13 -11 -30 -16 -57 -20 -47 -79 14 -79
l31 -1 -29 -25 c-24 -21 -27 -30 -22 -58 4 -23 3 -35 -6 -38 -9 -3 -9 -11 -1
-34 20 -50 26 -113 13 -129 -7 -9 -12 -37 -12 -64 1 -36 -3 -53 -18 -66 -18
-16 -19 -16 -28 16 -6 21 -5 39 1 47 11 15 -13 16 -58 4 -17 -5 -36 -7 -42 -5
-21 7 -15 33 8 33 15 0 20 5 17 23 -2 18 -8 21 -30 19 -20 -2 -28 1 -29 12 -2
25 -4 30 -16 51 -18 31 -25 12 -25 -68 1 -57 6 -85 23 -118 12 -24 25 -56 30
-71 7 -26 6 -28 -18 -22 -23 6 -25 5 -18 -12 5 -10 8 -32 6 -49 -6 -86 -3
-113 13 -150 10 -22 26 -59 37 -82 23 -52 45 -58 35 -11 -3 18 -10 34 -15 38
-4 3 -12 16 -16 30 -4 14 -11 27 -15 30 -12 8 -16 73 -5 77 6 2 19 -12 29 -31
21 -40 40 -50 66 -36 16 9 40 64 40 93 0 4 9 20 19 35 11 15 22 52 26 82 3 30
17 77 31 103 13 27 24 54 24 60 0 11 29 76 51 117 5 8 24 47 43 85 18 39 44
79 56 90 12 11 43 47 69 80 25 33 54 68 64 77 9 10 17 33 17 52 0 59 60 86 99
45 26 -28 33 -100 10 -106 -9 -3 -26 -18 -39 -35 -17 -23 -27 -28 -45 -24 -21
5 -28 -3 -65 -69 -22 -42 -38 -80 -35 -84 8 -13 -37 -91 -52 -91 -7 0 -13 -6
-13 -14 0 -17 30 -16 73 2 16 7 34 12 42 12 16 0 55 51 55 72 0 8 16 22 35 31
19 9 35 23 35 32 0 25 39 57 61 50 13 -4 19 -2 19 8 0 7 14 26 30 40 18 17 30
37 30 52 0 16 6 25 15 25 8 0 15 5 15 10 0 6 16 10 35 10 19 0 35 5 35 10 0
14 57 12 66 -2 4 -6 2 -14 -4 -16 -9 -3 -9 -9 -1 -25 9 -16 8 -23 -3 -31 -8
-6 -17 -19 -21 -28 -3 -9 -28 -29 -54 -43 -75 -40 -116 -65 -138 -85 -11 -10
-30 -21 -42 -25 -13 -3 -23 -10 -23 -15 0 -5 -31 -41 -70 -80 -38 -39 -70 -74
-70 -76 0 -3 -6 -11 -12 -18 -7 -8 -20 -24 -28 -36 -29 -45 -72 -90 -80 -85
-5 3 -10 -7 -12 -22 -2 -20 -9 -28 -23 -28 -11 0 -26 -6 -33 -12 -7 -7 -21
-17 -30 -23 -12 -8 -14 -13 -4 -16 6 -3 12 -13 12 -22 0 -16 -58 -141 -71
-152 -3 -3 -12 -18 -21 -35 -8 -16 -24 -48 -36 -70 -30 -59 -105 -255 -117
-309 -10 -47 -20 -19 -22 62 -2 117 -10 173 -27 185 -19 15 -63 114 -76 174
-6 25 -13 80 -15 122 -7 114 -16 185 -25 196 -15 20 -18 65 -4 65 10 0 14 18
16 68 2 95 -1 114 -20 129 -15 13 -15 13 5 8 25 -7 42 12 18 21 -12 5 -13 9
-4 20 9 11 5 22 -15 49 -18 23 -26 45 -24 63 3 27 8 29 42 16 12 -5 17 -4 13
3 -3 5 1 34 9 64 9 30 17 77 20 104 7 82 31 146 54 144 3 0 28 -6 55 -14z
m-10815 -297 c0 -89 2 -159 5 -157 4 5 11 88 14 169 1 18 4 21 13 12 8 -8 12
-66 13 -177 2 -107 6 -170 13 -177 8 -8 8 -15 1 -24 -6 -7 -9 -23 -7 -36 4
-22 5 -22 16 5 7 16 12 42 12 58 0 16 5 29 10 29 6 0 11 10 11 23 1 16 2 18 6
5 2 -10 11 -18 19 -18 8 0 12 -5 9 -10 -4 -6 -11 -8 -16 -5 -5 4 -8 -13 -8
-37 1 -27 3 -34 6 -18 3 14 9 30 15 35 7 7 8 -1 3 -25 -22 -111 -13 -226 14
-181 7 11 11 10 20 -5 11 -18 11 -18 26 0 11 14 15 16 15 5 0 -22 14 -39 36
-44 47 -11 169 -56 198 -73 33 -19 80 -23 104 -9 7 5 14 2 18 -7 5 -13 17 -8
65 25 33 22 77 46 97 54 20 7 33 14 29 14 -5 1 -5 6 -1 12 5 8 9 8 14 -1 14
-22 30 0 30 41 0 22 5 39 11 39 8 0 10 -14 6 -40 l-5 -40 77 0 c242 0 432
-144 482 -365 9 -43 17 -56 38 -65 14 -6 39 -21 55 -34 25 -21 27 -28 21 -63
-6 -36 -9 -40 -38 -40 -18 0 -38 4 -45 10 -10 8 -14 5 -19 -11 -5 -21 -10 -22
-143 -22 l-137 0 -5 84 c-9 145 -70 215 -186 216 -56 0 -119 -21 -127 -42 -7
-23 -15 -88 -10 -88 3 0 20 8 39 18 46 25 94 18 107 -15 17 -44 11 -72 -15
-79 -14 -3 -27 -13 -28 -22 -6 -24 21 -62 37 -56 9 4 20 -8 31 -33 l16 -38 16
43 c15 39 32 56 32 32 0 -6 18 -28 40 -49 23 -22 43 -50 45 -62 6 -29 17 -40
44 -42 21 -1 22 -5 18 -62 -3 -33 -10 -73 -16 -88 -14 -37 -14 -37 9 -37 21 0
23 -8 22 -90 -1 -32 0 -33 8 -10 4 14 8 42 9 63 l1 38 95 -3 95 -3 4 -330 c4
-347 -1 -414 -35 -492 -11 -26 -21 -56 -22 -65 -1 -9 -4 -16 -7 -15 -3 0 -39
-33 -80 -74 -64 -63 -86 -78 -145 -99 -94 -32 -238 -39 -321 -15 -172 50 -298
177 -333 336 -6 25 -11 303 -12 654 -2 639 0 661 42 747 11 21 19 56 19 78 0
39 -1 41 -22 33 -34 -12 -133 -6 -171 10 -59 27 -65 27 -70 4 -2 -12 -3 -103
-1 -202 2 -99 3 -197 3 -217 0 -21 5 -38 11 -38 6 0 10 10 9 23 -3 37 0 57 11
57 11 0 8 -96 -4 -107 -4 -4 -11 -1 -16 7 -7 11 -9 8 -8 -10 1 -14 6 -28 10
-31 10 -7 13 -1032 3 -1048 -3 -6 -1 -11 5 -11 6 0 9 -4 5 -9 -13 -22 -16 -92
-5 -106 7 -8 8 -15 3 -15 -5 0 -11 -28 -12 -62 -1 -34 -4 -65 -7 -69 -2 -4 0
-10 5 -13 6 -4 6 -19 1 -39 -5 -17 -11 -76 -13 -130 -3 -54 -7 -101 -11 -104
-3 -4 -6 6 -6 20 0 19 -5 27 -17 27 -11 0 -14 3 -7 8 13 8 24 72 12 72 -4 0
-8 -4 -8 -10 0 -5 -5 -10 -11 -10 -5 0 -8 4 -4 10 11 18 -7 140 -21 140 -9 0
-14 -13 -14 -37 0 -28 -3 -34 -10 -23 -5 8 -10 25 -10 38 0 13 -6 22 -15 22
-11 0 -14 -7 -11 -25 3 -13 2 -24 -2 -24 -23 4 -33 -3 -28 -18 3 -10 1 -25 -4
-33 -7 -11 -10 -12 -10 -2 0 7 -7 21 -16 29 -12 13 -18 13 -24 4 -11 -19 -23
4 -22 40 1 24 -3 29 -24 29 l-24 0 -1 203 c-6 1363 -6 2199 -2 2229 5 39 23
43 23 6 0 -12 2 -19 5 -16 5 5 14 133 17 256 1 28 5 52 10 52 4 0 8 -73 8
-162z m4153 55 l-17 -28 22 19 c30 26 39 14 10 -14 -22 -20 -22 -22 -5 -34 24
-18 21 -24 -9 -20 -19 2 -24 -1 -20 -12 3 -8 2 -14 -3 -14 -5 0 -11 -10 -14
-22 l-6 -23 16 23 c16 22 43 30 43 12 0 -5 -4 -10 -10 -10 -19 0 -10 -29 11
-35 12 -4 18 -12 15 -21 -3 -7 2 -21 11 -30 13 -13 14 -17 3 -24 -10 -6 -8 -9
6 -13 10 -2 -2 -5 -28 -6 -38 -1 -49 3 -58 19 -6 11 -8 24 -5 29 10 17 -7 42
-25 36 -10 -3 -22 0 -26 7 -4 6 -2 14 4 16 13 4 -2 52 -21 65 -7 5 -3 6 10 2
19 -5 22 -3 16 12 -7 17 -6 17 11 0 18 -17 19 -17 32 9 16 31 18 54 4 54 -5 0
-10 5 -10 11 0 6 9 8 20 4 11 -4 20 -2 20 4 0 6 5 11 10 11 6 0 3 -12 -7 -27z
m7568 -167 c-11 -13 1 -40 15 -34 14 5 26 -73 19 -127 -8 -65 -24 -115 -37
-115 -6 0 -7 -8 -4 -17 7 -18 -21 -141 -35 -157 -14 -15 -21 1 -11 21 9 15 7
19 -8 19 -10 0 -16 -4 -14 -8 3 -4 -7 -8 -23 -8 -22 0 -25 2 -13 10 13 8 12
10 -4 10 -15 0 -16 3 -7 14 8 10 9 16 1 21 -5 3 -10 0 -10 -7 -1 -22 -36 -62
-44 -49 -8 13 -26 15 -26 2 0 -5 9 -11 20 -14 11 -3 20 -13 20 -24 1 -10 7
-29 14 -42 15 -27 11 -51 -9 -51 -7 0 -15 -16 -18 -36 -3 -20 -14 -42 -24 -50
-11 -8 -13 -13 -5 -14 6 0 12 -6 12 -13 0 -8 9 -22 20 -32 16 -15 20 -29 18
-64 -3 -45 -4 -46 -37 -46 -42 0 -52 -21 -17 -35 25 -9 37 -40 16 -40 -12 0
-13 -27 -2 -32 5 -1 5 -18 0 -36 -7 -27 -12 -31 -32 -26 -17 4 -27 -1 -39 -20
-10 -14 -17 -33 -17 -43 0 -14 2 -15 9 -4 13 20 25 -6 22 -48 -2 -37 -51 -117
-69 -114 -6 2 -9 -4 -6 -12 3 -8 11 -13 17 -12 7 1 12 -7 12 -18 0 -35 -40
-31 -55 4 -7 17 -16 31 -21 31 -22 0 -6 19 18 22 19 2 29 10 31 23 3 16 1 18
-9 8 -7 -7 -22 -13 -34 -13 -16 0 -21 7 -23 33 -1 17 -5 45 -8 61 -4 18 -2 26
4 22 6 -3 19 21 31 59 25 77 25 75 6 75 -8 0 -15 -7 -15 -15 0 -8 -10 -25 -22
-37 -23 -23 -29 -41 -30 -90 -1 -31 -35 -49 -49 -27 -14 22 -10 65 6 79 8 6
17 22 21 33 3 12 13 30 21 39 27 31 44 249 30 388 -2 30 -37 39 -57 15 -7 -8
-18 -15 -24 -15 -7 0 -21 -8 -32 -19 -20 -18 -21 -18 -21 10 0 25 3 28 24 23
17 -5 24 -3 23 7 -7 49 1 69 35 85 22 10 35 23 35 35 0 14 14 26 45 39 41 17
44 22 39 47 -4 22 1 35 26 60 17 17 44 35 61 38 29 7 59 47 59 80 0 9 10 26
23 38 12 13 34 38 50 56 15 18 27 30 27 26 0 -3 10 3 22 15 12 11 28 20 35 20
7 0 13 5 13 11 0 5 5 7 10 4 7 -5 8 -11 1 -19z m405 -138 l17 -32 22 27 c17
22 32 29 72 33 45 4 52 2 67 -21 13 -20 14 -25 3 -25 -19 0 -42 -28 -87 -102
-41 -67 -128 -237 -154 -300 -8 -22 -26 -43 -40 -50 -15 -6 -26 -15 -26 -20 0
-13 18 -10 23 5 4 9 6 9 6 0 1 -6 -3 -14 -9 -18 -5 -3 -7 -12 -4 -20 3 -7 0
-23 -6 -35 -7 -13 -12 -69 -12 -139 0 -64 -3 -120 -8 -126 -4 -5 -10 -37 -13
-70 -15 -164 -25 -262 -31 -285 -6 -23 -17 -185 -17 -252 0 -16 -4 -28 -10
-28 -6 0 -7 -9 -4 -21 4 -12 3 -24 -3 -28 -5 -3 -12 -20 -15 -38 -3 -17 -8
-36 -11 -42 -4 -6 -8 -48 -9 -94 -3 -72 -1 -84 12 -82 9 1 17 7 17 13 1 7 2
18 3 26 0 8 7 21 15 28 15 16 49 90 59 130 4 15 21 47 37 72 29 42 30 48 30
159 0 64 4 118 10 122 5 3 18 -3 30 -15 11 -11 25 -20 30 -20 6 0 20 -10 32
-22 l21 -21 18 21 c10 14 32 23 56 26 21 2 45 6 53 9 31 11 77 13 77 3 -1 -38
3 -42 34 -38 19 3 29 1 26 -5 -3 -5 0 -22 8 -37 8 -14 11 -34 8 -43 -5 -14 0
-13 29 5 22 14 39 19 43 13 3 -6 -11 -17 -31 -26 -33 -14 -36 -18 -31 -44 5
-26 3 -29 -13 -26 -11 2 -22 0 -25 -6 -4 -5 1 -9 9 -9 9 0 16 -5 16 -11 0 -8
6 -7 17 2 10 9 14 9 10 2 -16 -25 94 -173 127 -173 16 0 45 -35 74 -87 28 -52
28 -55 -5 -51 -17 2 -32 12 -37 24 -5 11 -23 30 -40 42 -17 12 -51 36 -76 53
-116 83 -176 119 -196 119 -12 0 -42 9 -68 21 -26 11 -55 19 -64 16 -12 -2 -7
-8 18 -19 19 -8 49 -26 65 -39 17 -14 42 -31 57 -38 44 -23 138 -111 138 -131
0 -14 11 -19 58 -24 54 -6 59 -9 85 -50 15 -24 27 -48 26 -53 -5 -27 2 -35 26
-29 23 6 24 4 15 -19 -9 -25 3 -45 15 -25 10 16 37 -9 30 -27 -2 -8 0 -23 5
-34 6 -11 8 -35 4 -53 -4 -26 -14 -39 -39 -50 -42 -20 -47 -20 -36 2 34 62 41
85 29 100 -10 12 -15 11 -29 -7 -21 -26 -32 -27 -24 -2 3 10 8 35 10 54 4 31
2 34 -15 30 -16 -4 -20 0 -20 22 0 22 -3 25 -20 20 -17 -5 -23 1 -36 31 -13
30 -13 39 -2 46 13 10 0 8 -59 -8 -16 -4 -25 0 -34 18 -17 33 -43 56 -72 63
-14 4 -35 16 -47 27 -16 15 -25 17 -33 9 -6 -6 -19 -11 -29 -11 -22 0 -23 -14
-1 -35 13 -14 14 -18 3 -25 -11 -7 -11 -11 0 -24 7 -9 10 -20 6 -23 -13 -13
-81 -10 -94 4 -17 16 -37 12 -37 -8 0 -8 9 -14 20 -14 16 0 20 -7 20 -35 0
-29 4 -36 23 -38 28 -4 28 -18 0 -33 -18 -10 -24 -8 -34 6 -8 10 -11 21 -9 25
3 4 -4 10 -15 13 -11 3 -20 1 -20 -4 0 -5 -13 -6 -30 -3 -18 4 -36 1 -45 -6
-9 -7 -18 -10 -22 -6 -3 3 -1 6 5 6 22 0 12 18 -13 24 -15 4 -31 1 -39 -6 -12
-11 -11 -17 2 -41 14 -23 14 -31 3 -48 -7 -12 -9 -24 -4 -28 4 -3 20 -17 35
-30 23 -20 30 -22 43 -11 27 23 18 40 -17 33 l-33 -6 19 21 c15 17 30 22 71
22 59 0 78 -19 50 -50 -20 -22 -8 -33 19 -15 11 8 33 15 49 15 25 0 28 -2 17
-15 -7 -8 -19 -15 -27 -15 -8 0 -13 -8 -11 -17 2 -12 -9 -24 -32 -35 -19 -9
-40 -22 -47 -27 -7 -6 -17 -11 -23 -11 -6 0 -8 -5 -4 -11 4 -8 0 -9 -15 -4
-15 5 -21 2 -21 -9 0 -9 -7 -16 -15 -16 -8 0 -15 7 -15 16 0 8 -5 12 -11 9
-14 -9 18 -45 40 -45 18 -1 51 -23 51 -35 0 -4 8 -14 18 -21 14 -11 15 -15 3
-23 -17 -11 -100 -23 -112 -15 -5 3 -9 -3 -9 -13 0 -13 -8 -18 -30 -19 -33 -1
-53 -14 -32 -21 6 -3 12 -14 12 -25 0 -13 -5 -18 -13 -15 -8 3 -20 1 -28 -4
-11 -7 -10 -9 6 -9 12 0 30 -15 45 -38 14 -20 27 -39 30 -42 3 -3 16 -23 29
-45 26 -45 32 -105 12 -129 -12 -14 -16 -14 -40 2 -26 18 -61 19 -61 1 0 -5
-7 -9 -15 -9 -8 0 -14 -3 -14 -7 5 -32 -3 -63 -16 -63 -16 0 -20 12 -8 24 4 3
8 13 9 20 2 16 -51 19 -79 4 -11 -5 -33 -14 -48 -18 -26 -8 -28 -7 -19 9 6 12
5 22 -2 29 -9 9 -6 12 12 12 13 0 20 3 17 7 -4 3 0 14 9 24 12 13 21 16 34 9
14 -7 16 -4 15 19 -2 38 -12 50 -35 44 -14 -4 -22 2 -30 21 -11 31 -25 33 -40
6 -6 -11 -16 -17 -25 -14 -10 4 -15 0 -15 -14 0 -20 -23 -46 -33 -36 -3 3 -8
-4 -12 -15 -3 -12 -15 -21 -25 -21 -16 0 -14 6 15 36 38 39 43 54 19 54 -9 0
-18 -9 -21 -21 -4 -15 -11 -19 -25 -16 -15 4 -18 2 -14 -10 4 -9 -4 -26 -19
-41 -27 -27 -35 -53 -10 -32 13 11 15 8 15 -14 0 -28 20 -37 20 -8 1 16 60 62
80 62 9 0 50 -53 50 -64 0 -15 -32 -4 -38 14 -7 19 -9 18 -26 -11 l-19 -32 26
7 c21 5 25 3 21 -9 -5 -11 -2 -13 10 -9 11 4 19 -2 26 -21 5 -14 10 -27 10
-28 0 -11 -54 3 -61 15 -7 12 -16 14 -41 8 -44 -10 -91 -35 -112 -59 -10 -11
-23 -18 -30 -15 -20 8 -47 -20 -51 -55 -4 -27 -2 -31 10 -21 7 6 12 17 9 25
-9 22 14 27 26 5 6 -11 17 -20 25 -20 19 0 19 -16 0 -24 -8 -3 -15 -14 -15
-25 0 -27 -11 -32 -46 -21 -16 4 -21 9 -11 9 9 1 17 6 17 11 0 6 -12 5 -32 -3
-20 -8 -32 -21 -35 -37 -5 -33 -11 -37 -27 -15 -10 13 -15 15 -21 6 -4 -7 -2
-18 4 -24 6 -6 11 -16 11 -21 0 -6 -5 -3 -11 7 -12 20 -31 13 -22 -8 3 -9 -1
-15 -11 -15 -9 0 -16 4 -16 9 0 5 -9 11 -20 14 -11 3 -18 1 -15 -3 7 -12 -30
-31 -68 -35 l-32 -4 32 27 c64 54 94 74 101 67 4 -3 -2 -11 -12 -17 -14 -8
-16 -12 -5 -19 18 -10 39 8 32 28 -5 12 1 14 27 11 20 -2 35 2 37 10 3 6 -2
12 -10 12 -7 0 -19 12 -26 26 -10 23 -8 30 20 65 17 21 33 39 36 39 4 0 -1 -8
-9 -17 -28 -33 -32 -46 -12 -35 11 6 24 9 29 9 6 -1 11 10 13 26 2 15 9 27 15
27 7 0 1 6 -12 13 -34 17 -40 40 -9 32 34 -9 56 36 64 126 5 58 17 99 55 185
27 61 49 118 49 128 0 9 6 29 14 44 7 15 33 81 56 146 23 66 54 137 68 159 15
21 34 52 43 68 9 16 21 35 28 42 12 15 17 95 9 138 -5 28 8 237 17 276 3 13
10 22 16 20 7 -1 14 4 16 11 3 6 -3 12 -12 12 -14 0 -15 9 -10 63 4 34 7 94 8
134 2 55 7 76 22 93 19 21 19 22 -4 39 -18 14 -21 22 -14 37 5 10 11 38 12 61
4 68 15 97 44 111 22 11 25 17 20 42 -3 19 -1 30 6 30 6 0 11 10 11 23 0 12 7
32 15 44 17 24 10 59 -9 44 -6 -5 -24 -11 -40 -14 -32 -4 -57 -31 -49 -52 5
-15 -48 -118 -78 -151 -10 -11 -19 -29 -20 -40 0 -10 -10 -38 -22 -61 -91
-174 -167 -327 -167 -336 0 -6 -6 -18 -14 -26 -7 -9 -33 -53 -57 -99 -23 -46
-51 -88 -62 -93 -17 -10 -18 -8 -11 13 4 12 8 36 9 52 1 16 8 34 16 40 8 6 15
29 16 51 1 22 4 55 8 73 6 27 12 32 37 32 23 0 32 6 41 29 7 16 25 39 40 51
26 21 28 46 2 36 -17 -6 -56 40 -49 58 3 8 11 12 19 10 7 -3 17 7 23 25 8 24
7 31 -4 35 -9 3 -13 9 -10 14 2 4 7 27 11 51 3 24 13 50 21 58 8 8 14 28 14
44 0 36 22 62 44 53 21 -8 33 23 18 47 -8 12 -9 26 -3 43 6 13 8 26 5 28 -8 9
39 174 62 217 13 24 24 51 24 60 0 10 9 36 20 60 17 33 25 41 40 36 12 -4 23
1 30 12 11 16 11 17 6 1 -3 -12 0 -18 9 -18 9 0 12 -6 8 -16 -6 -16 12 -34 34
-34 6 0 15 10 18 23 13 47 50 133 70 167 12 19 27 55 34 80 7 25 20 53 28 62
8 9 13 23 10 30 -4 11 19 48 29 48 2 0 11 -14 20 -32z m-8590 -108 c5 -12 8
-12 20 4 8 11 14 15 14 8 0 -13 73 -7 102 9 11 6 18 6 18 0 0 -5 -6 -11 -12
-14 -20 -7 -2 -19 27 -19 28 0 27 0 19 -22 -5 -14 -9 -14 -22 -4 -14 11 -15
10 -8 -7 5 -11 11 -28 13 -37 3 -10 10 -15 15 -12 6 4 8 -2 3 -15 -5 -17 -2
-21 14 -21 12 0 21 -4 21 -10 0 -5 -8 -6 -17 -3 -17 7 -17 6 0 -20 17 -27 23
-67 10 -67 -5 0 -18 17 -31 38 -17 27 -21 31 -16 12 4 -14 12 -28 18 -32 6 -4
7 -8 2 -8 -25 0 18 -24 44 -25 33 -1 37 4 18 23 -8 8 -9 12 -1 12 6 0 18 3 26
6 10 4 16 -4 19 -25 4 -26 1 -31 -16 -32 -20 0 -20 -1 2 -11 13 -7 21 -17 18
-25 -3 -7 1 -13 10 -13 9 0 12 5 8 12 -4 6 1 17 12 25 14 10 16 16 7 21 -9 6
-10 22 -4 60 8 55 21 81 21 44 0 -14 5 -20 14 -16 8 3 17 0 22 -7 4 -7 2 -15
-4 -17 -7 -2 -12 -12 -12 -22 0 -10 -4 -22 -10 -25 -18 -11 -11 -25 18 -36 24
-9 25 -12 11 -22 -22 -17 -11 -43 40 -92 26 -24 41 -48 42 -65 1 -25 1 -25 14
5 l14 30 2 -27 c5 -85 5 -86 -13 -77 -16 8 -17 7 -8 -16 17 -46 -8 -17 -35 38
-31 65 -48 87 -68 87 -14 0 -15 -5 -7 -26 13 -34 13 -39 -5 -24 -8 7 -21 10
-28 7 -18 -7 -43 33 -27 43 13 8 -10 20 -40 20 -10 0 -27 11 -37 24 -19 23
-58 42 -80 38 -6 -2 -14 7 -18 18 -3 11 -10 20 -15 20 -5 0 -6 15 -3 33 3 23
0 37 -10 46 -14 11 -17 7 -27 -30 -17 -61 -19 -104 -8 -120 7 -11 11 -11 15
-1 8 20 25 13 18 -8 -8 -24 1 -26 22 -5 16 17 33 12 33 -10 0 -9 -6 -12 -15
-9 -12 5 -12 0 2 -28 10 -18 17 -50 17 -70 1 -27 5 -38 16 -38 13 -1 13 -2 0
-13 -22 -17 -19 -40 8 -52 12 -5 22 -18 22 -29 0 -11 -3 -16 -7 -13 -8 9 -43
-22 -43 -37 0 -6 5 -3 11 7 5 9 21 17 35 17 24 0 24 -1 8 -25 -9 -14 -22 -25
-29 -25 -19 0 -22 -18 -13 -77 6 -39 16 -61 38 -82 17 -15 30 -36 30 -45 0 -9
4 -16 8 -16 4 0 13 -14 19 -31 7 -17 21 -33 32 -36 23 -6 28 -28 9 -36 -9 -4
-7 -6 3 -6 9 -1 24 -10 34 -21 10 -11 24 -20 31 -20 20 0 28 -21 13 -32 -11
-7 -11 -11 -1 -15 6 -2 12 -11 12 -19 0 -8 3 -13 8 -13 22 4 30 -3 25 -22 -5
-19 -3 -18 22 5 33 31 43 28 21 -6 l-16 -25 45 1 c38 1 44 4 39 19 -3 9 -1 17
5 17 28 0 -16 243 -64 355 -25 58 -45 126 -45 153 0 15 -9 46 -20 70 -10 23
-16 42 -11 42 9 0 51 -82 51 -100 0 -35 71 -231 81 -224 5 3 9 1 9 -5 0 -5 -4
-13 -10 -16 -5 -3 -10 -11 -10 -17 0 -7 5 -6 14 1 18 15 33 -4 17 -22 -11 -15
-3 -58 13 -69 8 -6 6 -11 -4 -17 -22 -15 -9 -19 28 -9 22 6 32 14 32 29 0 11
-6 22 -14 25 -8 3 -13 19 -12 42 1 20 -3 45 -9 55 -7 12 -6 23 3 37 6 11 12
25 12 32 0 9 -3 8 -10 -2 -8 -12 -10 -10 -10 8 0 15 4 21 12 16 14 -9 4 47
-16 88 -8 15 -10 28 -5 28 5 0 9 -5 9 -11 0 -5 5 -7 10 -4 6 3 10 17 10 30 0
13 -4 27 -10 30 -5 3 -10 13 -10 21 0 8 5 14 10 14 6 0 10 -7 10 -15 0 -8 4
-15 9 -15 12 0 2 70 -11 87 -13 16 -20 123 -9 123 5 0 12 -6 15 -12 3 -7 4 0
1 15 -9 44 13 23 26 -25 6 -25 8 -68 4 -105 -4 -40 -3 -63 3 -63 16 0 32 93
33 193 1 112 8 141 36 145 16 2 22 -4 28 -30 5 -22 9 -27 12 -15 6 24 33 22
33 -3 0 -13 7 -20 20 -20 14 0 20 -7 20 -22 0 -17 -3 -19 -12 -10 -7 7 -18 12
-26 12 -10 0 -10 -3 2 -16 9 -8 16 -20 16 -25 0 -13 -18 -11 -23 4 -3 6 -5 -8
-5 -33 0 -25 4 -50 9 -56 6 -7 3 -16 -7 -25 -14 -11 -19 -10 -34 9 -25 30 -31
28 -18 -9 7 -20 15 -28 25 -25 9 4 13 1 10 -6 -2 -7 -10 -12 -16 -11 -7 2 -11
-15 -11 -47 0 -28 -4 -50 -9 -50 -5 0 -8 -12 -8 -26 0 -15 -5 -29 -11 -33 -7
-4 -7 -22 -2 -51 8 -46 5 -64 -10 -55 -4 3 -6 14 -3 25 3 11 -4 34 -16 52 -23
36 -23 36 -21 -73 1 -41 -4 -97 -11 -124 -9 -37 -10 -50 -1 -53 7 -2 12 -27
12 -63 0 -40 4 -59 13 -60 10 0 10 -2 0 -6 -20 -7 -15 -34 9 -54 16 -14 17
-19 6 -19 -17 0 -31 -57 -19 -75 4 -5 8 -23 10 -40 1 -16 9 -40 17 -52 8 -13
10 -23 5 -23 -6 0 -9 -16 -7 -35 1 -24 -2 -35 -11 -35 -7 0 -13 -7 -13 -15 0
-8 4 -15 9 -15 5 0 14 7 21 15 7 8 18 15 24 15 6 0 3 -7 -6 -14 -10 -7 -18
-19 -18 -26 0 -7 -7 -10 -17 -6 -10 3 -5 -5 12 -19 19 -15 33 -21 39 -15 6 6
15 5 23 -2 7 -6 17 -8 21 -4 4 4 0 13 -9 19 -15 11 -23 90 -8 81 9 -5 5 69 -4
84 -5 6 -4 12 1 12 13 0 30 -47 37 -100 10 -88 16 -123 20 -131 3 -4 1 -10 -5
-14 -5 -3 -10 -14 -10 -23 0 -12 3 -13 11 -5 8 8 17 4 34 -15 27 -32 23 -44
-11 -36 -18 5 -23 3 -19 -8 4 -10 -4 -14 -30 -15 -19 -1 -32 3 -29 8 3 5 -6 9
-20 9 -14 0 -26 5 -26 10 0 6 5 10 10 10 6 0 5 8 -2 19 -17 27 -26 18 -24 -24
1 -23 -4 -37 -14 -40 -12 -5 -12 -8 -1 -14 10 -7 11 -10 1 -16 -8 -5 -18 -2
-24 6 -6 8 -20 15 -30 17 -11 2 -28 15 -39 29 l-21 26 -8 -23 c-4 -12 -6 -26
-2 -31 3 -5 0 -9 -5 -9 -6 0 -11 3 -12 8 -6 74 -12 92 -25 80 -3 -4 0 -16 6
-28 6 -12 9 -24 6 -28 -14 -14 -68 -4 -90 17 -14 13 -29 20 -34 17 -6 -3 -12
1 -16 9 -8 21 -39 19 -54 -5 -15 -24 -32 -26 -32 -4 0 8 -5 12 -10 9 -14 -8 6
-35 26 -35 8 0 11 -6 7 -16 -5 -14 -3 -15 15 -5 30 16 41 14 35 -9 -3 -13 0
-20 8 -20 8 -1 -1 -14 -20 -30 -36 -31 -44 -31 -62 2 -8 14 -8 18 0 14 7 -5 9
-1 5 8 -3 9 -10 14 -14 11 -10 -6 -40 39 -40 62 0 10 -14 70 -31 133 -16 63
-31 122 -32 131 -2 9 -15 31 -31 49 -15 18 -25 38 -22 45 2 7 -8 22 -24 33
-15 12 -43 44 -61 72 -18 27 -36 50 -41 50 -4 0 -8 -13 -8 -30 0 -16 -4 -30
-10 -30 -5 0 -10 -7 -10 -15 0 -8 4 -15 9 -15 6 0 6 -12 1 -30 -9 -33 -6 -116
6 -153 4 -12 7 -32 5 -44 -1 -12 5 -38 15 -58 9 -20 14 -38 11 -41 -2 -3 -1
-20 3 -38 l7 -33 -64 -1 c-59 -1 -72 -6 -137 -46 -39 -25 -83 -57 -99 -71 -15
-14 -41 -31 -57 -37 -17 -5 -30 -14 -30 -19 0 -5 -6 -9 -14 -9 -19 0 -62 -73
-46 -78 9 -3 9 -6 0 -12 -7 -4 -14 -24 -15 -43 -3 -31 -1 -34 18 -29 22 5 22
5 3 -16 -11 -12 -14 -22 -8 -22 7 0 12 -6 12 -12 0 -7 7 -26 15 -42 8 -15 13
-32 10 -36 -3 -5 -1 -11 5 -15 7 -4 7 -12 0 -25 -15 -27 -12 -34 6 -19 15 12
16 11 9 -10 -6 -21 -5 -23 15 -18 17 4 20 3 11 -6 -14 -14 -15 -81 -1 -72 6 3
10 15 10 26 0 10 5 19 11 19 7 0 9 -10 6 -26 -3 -18 -1 -24 9 -20 9 4 14 -2
14 -15 0 -16 5 -20 20 -16 16 4 20 0 20 -19 0 -16 4 -22 14 -18 9 3 17 -3 21
-15 3 -12 13 -21 21 -21 8 0 14 -4 14 -10 0 -5 7 -10 16 -10 12 0 7 10 -17 38
-143 163 -182 238 -184 357 0 66 1 72 35 112 19 22 52 62 74 87 88 107 314
168 291 79 -5 -21 -3 -24 10 -19 11 4 14 2 8 -7 -4 -6 -8 -69 -8 -139 0 -88
-4 -131 -12 -139 -19 -19 -16 -31 7 -24 11 3 20 4 20 2 0 -13 -28 -56 -33 -51
-16 17 2 -29 21 -51 19 -21 20 -31 13 -70 -5 -25 -12 -49 -16 -53 -5 -4 -5 1
-2 10 4 11 -3 22 -19 32 -18 12 -24 13 -25 4 0 -7 -2 -30 -4 -50 -4 -35 8 -53
17 -26 2 6 10 8 17 4 7 -5 9 -12 3 -19 -13 -17 -23 -75 -13 -79 12 -4 147
-296 166 -358 4 -14 23 -58 42 -99 18 -40 32 -78 30 -84 -4 -14 -81 148 -124
263 -20 52 -54 129 -76 170 -47 87 -45 85 -52 78 -3 -3 11 -36 30 -73 19 -38
49 -110 66 -160 17 -49 38 -101 45 -115 27 -50 124 -260 124 -268 -1 -9 -70
100 -70 110 0 5 -20 50 -44 101 -24 50 -55 124 -67 162 -27 81 -78 190 -85
182 -3 -3 4 -23 15 -45 11 -22 30 -71 42 -109 27 -85 114 -289 150 -353 15
-25 76 -154 82 -172 4 -12 1 -18 -9 -18 -12 0 -13 -8 -8 -35 4 -22 2 -35 -4
-35 -6 0 -14 25 -17 55 -5 35 -13 59 -24 65 -14 8 -14 9 2 10 24 0 22 11 -13
70 -16 28 -30 53 -30 55 0 2 -26 59 -59 127 -32 68 -66 148 -76 178 -39 121
-67 190 -77 190 -6 0 -7 -8 -3 -17 4 -10 22 -63 40 -118 35 -105 48 -139 96
-243 16 -35 29 -65 29 -67 0 -2 13 -24 29 -48 29 -42 47 -97 33 -97 -10 0
-157 310 -185 390 -45 128 -80 220 -84 217 -2 -2 10 -46 27 -98 16 -52 35
-110 41 -129 7 -19 27 -66 45 -105 34 -72 76 -185 69 -185 -14 0 -131 264
-167 375 -28 88 -28 88 -34 82 -9 -9 62 -219 106 -312 22 -47 40 -88 40 -91 0
-3 11 -28 25 -56 27 -54 26 -88 -6 -121 -16 -18 -17 -18 -27 0 -6 10 -14 15
-17 11 -4 -4 -3 -13 1 -20 5 -7 9 -20 9 -28 0 -18 -24 -50 -38 -50 -5 0 -15
-7 -21 -15 -9 -13 -20 -14 -65 -5 -66 12 -101 13 -101 1 0 -5 16 -12 36 -16
36 -6 47 -10 93 -34 17 -9 26 -10 34 -2 15 15 27 14 27 -3 0 -10 11 -14 35
-13 19 1 41 -5 48 -12 10 -11 9 -13 -7 -7 -14 5 -17 2 -12 -9 3 -8 1 -15 -4
-15 -5 0 -12 -11 -16 -25 -3 -13 -15 -27 -25 -30 -25 -8 -25 -25 0 -25 11 0
21 9 24 21 4 14 11 20 21 16 8 -3 17 1 20 9 9 24 21 15 21 -16 0 -25 -3 -29
-19 -24 -15 5 -18 3 -13 -11 4 -9 7 -24 7 -33 0 -11 3 -13 8 -6 14 22 53 27
72 9 39 -35 110 7 95 55 -4 14 -2 20 9 20 9 0 16 4 16 9 0 5 7 17 16 26 13 12
14 19 4 30 -7 8 -9 15 -6 15 7 0 55 -53 68 -75 8 -14 -23 -115 -46 -151 -19
-28 -169 -79 -261 -87 -11 -1 -27 -7 -35 -12 -8 -6 -28 -10 -45 -11 -56 -1
-124 -25 -139 -50 -17 -24 -20 -164 -5 -194 7 -16 28 -89 28 -103 1 -4 8 -22
17 -39 31 -59 58 -168 42 -168 -5 0 -19 11 -32 25 -13 14 -28 25 -35 25 -6 0
-11 17 -11 39 0 22 -4 43 -10 46 -5 3 -10 17 -10 30 0 12 -7 26 -16 29 -12 4
-15 15 -12 36 7 46 -17 58 -33 18 -7 -18 -14 -40 -15 -48 -5 -33 -17 -60 -28
-60 -7 0 -7 -3 -1 -8 6 -4 11 -14 11 -22 1 -8 5 -24 10 -34 5 -14 4 -17 -4
-12 -8 5 -12 0 -12 -12 0 -11 6 -22 13 -25 8 -3 14 -21 15 -41 1 -27 -2 -34
-13 -29 -8 3 -15 1 -15 -5 0 -5 9 -12 20 -15 27 -7 35 -33 17 -52 -14 -13 -24
-4 -99 93 -45 59 -99 132 -119 162 -30 47 -129 141 -104 99 7 -11 5 -11 -10 1
-14 11 -19 12 -22 2 -3 -6 -9 -9 -15 -6 -11 7 84 -180 107 -211 8 -10 15 -23
15 -27 0 -5 15 -30 33 -56 39 -58 50 -77 76 -123 l19 -36 -21 2 c-12 1 -25 3
-28 4 -4 0 -10 12 -13 26 -4 14 -11 25 -16 25 -13 0 -73 66 -82 91 -12 32 -38
23 -38 -13 0 -17 3 -28 7 -25 8 8 38 -34 58 -82 19 -43 19 -46 -2 -25 -16 16
-18 15 -26 -10 -5 -14 -13 -26 -18 -26 -27 0 3 -39 106 -138 63 -61 115 -113
115 -116 0 -3 -11 -1 -24 4 -13 5 -26 7 -29 4 -2 -2 -10 2 -17 11 -7 8 -25 15
-41 15 -15 0 -31 4 -34 10 -8 12 -58 9 -67 -4 -4 -5 4 -23 18 -39 13 -16 22
-33 18 -38 -3 -5 2 -9 11 -9 9 0 14 -4 11 -9 -4 -5 -3 -11 1 -13 16 -6 76
-101 78 -122 1 -11 3 -24 4 -28 0 -5 9 -8 19 -9 11 0 12 -2 4 -6 -9 -3 -3 -15
20 -37 37 -36 128 -191 128 -218 0 -10 -6 -18 -13 -18 -19 0 -37 21 -37 42 0
10 -7 18 -15 18 -8 0 -15 7 -15 15 0 8 -11 17 -24 21 -29 7 -71 50 -81 83 -6
21 -9 22 -17 8 -10 -19 -43 -23 -53 -7 -3 6 -32 28 -63 49 -31 21 -68 49 -80
61 -18 16 -27 19 -35 11 -15 -15 -27 -14 -27 4 0 8 -2 15 -4 15 -2 0 -11 3
-20 6 -11 4 -16 1 -16 -10 0 -9 -7 -16 -15 -16 -8 0 -15 9 -15 19 0 10 7 21
15 25 8 3 15 9 15 15 0 10 -38 24 -57 22 -8 -1 -13 11 -13 34 0 25 -4 35 -12
33 -20 -7 -21 -48 -2 -69 10 -11 12 -19 6 -19 -7 0 -12 5 -12 10 0 6 -11 15
-25 20 -14 5 -27 20 -31 35 -3 14 -10 25 -15 25 -6 0 -5 -8 1 -19 5 -11 10
-29 10 -40 0 -14 5 -19 15 -15 17 7 21 -11 5 -21 -5 -3 -10 -15 -10 -26 0 -11
-7 -27 -15 -35 -17 -17 -20 -44 -6 -44 5 0 13 9 16 20 3 11 15 25 26 30 10 6
19 20 19 32 0 40 10 13 19 -53 1 -3 14 -4 30 -1 21 3 36 -3 53 -20 12 -12 25
-22 28 -21 3 0 12 -6 20 -15 13 -14 12 -15 -5 -8 -16 6 -18 5 -7 -5 16 -17 15
-39 -2 -39 -8 0 -18 -5 -21 -10 -10 -16 5 -50 21 -50 8 0 14 -4 14 -10 0 -5
-7 -10 -15 -10 -8 0 -15 5 -15 10 0 6 -3 10 -7 10 -9 0 -7 -135 2 -150 3 -5 4
-14 1 -19 -4 -5 0 -11 6 -14 19 -7 -31 -57 -57 -57 -11 0 -26 5 -31 10 -7 7
-16 6 -28 -3 -16 -12 -17 -17 -6 -37 9 -17 9 -29 1 -47 -15 -33 -14 -35 9 -23
18 10 22 7 31 -19 12 -34 42 -32 37 2 -2 11 3 22 11 25 11 4 12 -7 6 -54 -3
-33 -8 -81 -10 -107 -2 -41 -9 -54 -44 -89 -22 -23 -41 -48 -41 -55 0 -7 -4
-13 -8 -13 -4 0 -25 -15 -45 -34 -37 -33 -47 -56 -26 -56 6 0 17 -7 25 -15 9
-8 12 -15 8 -15 -3 0 0 -8 7 -17 10 -11 10 -14 2 -9 -7 4 -13 3 -13 -3 0 -5 5
-13 11 -17 8 -4 7 -9 -2 -15 -11 -7 -9 -10 8 -15 12 -3 19 -12 17 -18 -3 -7 2
-19 11 -26 12 -10 15 -10 15 0 0 10 3 10 14 0 8 -6 12 -18 9 -26 -3 -8 1 -14
9 -14 10 0 15 -11 15 -30 0 -38 19 -62 33 -41 12 21 36 -1 44 -39 3 -17 12
-30 20 -30 8 0 14 -10 14 -25 0 -14 -5 -25 -10 -25 -5 0 -4 -9 2 -19 12 -24
-7 -42 -21 -20 -7 11 -9 11 -9 -3 0 -20 -23 -18 -50 7 -11 10 -20 14 -21 9 -7
-65 -4 -127 8 -131 19 -7 16 -41 -7 -73 -11 -15 -24 -40 -30 -55 -12 -32 -26
-25 -34 17 -6 37 -15 50 -28 42 -7 -4 -5 -10 5 -15 12 -7 13 -14 4 -34 -15
-31 -23 -32 -31 -2 -5 18 -8 19 -15 7 -4 -8 -11 -27 -15 -42 -5 -24 -3 -28 14
-28 13 0 20 -7 20 -20 l0 -21 -22 20 c-16 16 -25 18 -35 10 -9 -8 -17 -8 -27
0 -21 18 -58 -37 -42 -62 16 -26 -12 -42 -36 -20 -17 15 -18 14 -18 -13 0 -18
-7 -34 -20 -42 -11 -7 -20 -17 -20 -23 0 -8 5 -7 15 1 22 18 107 14 118 -5 6
-12 12 -13 22 -5 14 12 60 7 79 -9 7 -6 16 -8 20 -4 4 4 4 0 0 -10 -8 -22 5
-22 22 1 16 21 19 0 3 -29 -9 -18 -7 -19 15 -13 32 8 35 -12 5 -21 -15 -5 -18
-10 -9 -15 8 -5 0 -14 -24 -29 -20 -13 -36 -29 -36 -36 0 -7 -7 -16 -16 -19
-25 -10 -36 -7 -28 7 4 6 -2 4 -13 -6 -11 -9 -22 -17 -26 -17 -3 0 -18 -5 -34
-12 -15 -6 -32 -12 -38 -13 -5 0 -9 -6 -8 -12 1 -6 -11 -16 -27 -22 -17 -5
-30 -15 -30 -20 0 -15 17 -14 22 1 2 6 18 11 36 10 17 0 34 3 37 7 2 5 34 9
71 10 37 1 71 4 76 7 12 7 29 -16 22 -28 -3 -4 -16 -8 -30 -8 -13 0 -24 -5
-24 -11 0 -6 -8 -8 -19 -4 -11 3 -21 0 -24 -8 -3 -9 -16 -13 -31 -12 -14 2
-35 -5 -47 -16 -12 -10 -26 -16 -30 -13 -5 3 -9 1 -9 -5 0 -6 -16 -13 -35 -17
-19 -3 -33 -11 -32 -16 1 -6 -8 -12 -21 -13 -12 -1 -28 -8 -35 -15 -10 -10 -7
-11 13 -7 20 5 26 2 27 -12 1 -11 -6 -21 -15 -24 -9 -3 -25 -8 -35 -12 -13 -6
-16 -3 -11 9 5 12 2 15 -10 10 -9 -3 -16 -11 -16 -16 0 -6 -9 -8 -20 -5 -11 3
-20 1 -20 -4 0 -10 12 -12 48 -9 36 3 27 -33 -15 -61 -26 -16 -39 -33 -41 -52
-3 -28 -32 -39 -32 -12 0 21 -13 19 -35 -5 -16 -18 -16 -20 -1 -35 17 -18 21
-35 7 -35 -5 0 -14 7 -21 15 -16 19 -26 19 -34 -1 -4 -10 1 -25 10 -36 20 -22
11 -36 -11 -18 -20 17 -50 -9 -59 -51 -3 -16 -12 -29 -20 -29 -7 0 -16 -7 -20
-15 -3 -8 -15 -15 -26 -15 -17 0 -20 4 -15 20 5 14 2 20 -9 20 -17 0 -22 -35
-6 -45 5 -3 7 -12 3 -20 -3 -9 0 -22 7 -30 6 -8 9 -18 6 -24 -3 -5 2 -7 13 -4
11 3 21 -2 24 -11 4 -9 13 -16 21 -16 10 0 13 6 9 16 -3 9 0 20 8 25 11 7 10
9 -4 9 -15 0 -13 4 10 24 32 28 38 26 48 -11 4 -19 2 -29 -10 -35 -9 -6 -14
-17 -11 -26 4 -11 -2 -21 -16 -27 -22 -10 -37 -35 -20 -35 5 0 19 9 32 20 38
33 43 22 5 -12 -19 -18 -35 -39 -35 -45 0 -12 -8 -15 -26 -12 -3 1 -19 -11
-34 -26 -16 -15 -34 -25 -42 -22 -9 4 -5 8 10 12 12 4 22 13 22 21 0 13 -23
10 -45 -7 -5 -4 -21 -9 -35 -11 -14 -1 -26 -11 -28 -20 -3 -15 2 -17 25 -12
32 6 92 -19 73 -31 -7 -4 -17 -2 -23 4 -16 16 -53 13 -73 -6 -16 -17 -16 -18
6 -23 43 -10 32 -27 -17 -26 -43 1 -48 -2 -46 -21 1 -12 -5 -24 -14 -27 -21
-8 -31 3 -13 14 8 5 12 11 9 15 -3 3 -26 -12 -50 -33 -24 -21 -56 -46 -71 -55
-16 -10 -28 -25 -28 -34 0 -25 -68 -154 -97 -183 l-24 -25 10 28 c6 15 20 44
30 65 31 57 71 149 71 162 0 6 9 33 21 60 17 39 18 52 9 70 -10 18 -9 22 9 27
23 6 34 28 26 54 -9 28 13 96 43 132 40 48 54 75 40 79 -7 3 -8 10 -4 17 6 10
10 10 16 1 4 -7 12 1 19 22 21 55 41 93 67 123 13 15 24 33 24 39 0 6 4 5 9
-2 6 -10 13 -11 34 -1 15 7 27 17 27 23 0 6 -5 5 -12 -2 -16 -16 -28 -15 -28
3 0 8 -4 15 -10 15 -5 0 -10 -4 -10 -9 0 -5 -13 -22 -30 -38 -16 -15 -30 -33
-30 -40 0 -7 -9 -17 -19 -23 -19 -9 -19 -6 -15 77 3 66 10 103 31 151 22 53
29 61 38 48 10 -13 12 -9 13 21 2 38 7 48 25 48 7 0 12 8 12 17 0 22 41 56
135 112 85 50 170 126 170 150 0 9 14 22 30 31 17 9 30 22 30 29 0 8 6 17 13
19 7 4 6 6 -5 6 -24 1 -27 30 -8 76 38 91 109 560 90 595 -12 22 -13 63 -2 56
4 -2 4 30 0 72 -5 42 -11 101 -13 131 -3 30 -8 57 -10 62 -3 4 -1 10 5 14 15
9 12 41 -5 55 -8 7 -15 16 -15 21 0 5 7 6 15 3 9 -4 15 0 15 9 0 8 4 17 8 19
4 2 19 19 34 38 23 32 38 79 43 135 3 40 29 125 38 125 9 0 3 83 -8 100 -3 6
-11 7 -17 4 -6 -4 -14 0 -19 7 -6 9 -7 4 -3 -16 5 -25 4 -28 -7 -18 -7 7 -14
40 -16 75 -2 55 -1 59 7 30 12 -38 23 -44 14 -7 -4 15 -2 25 5 25 6 0 11 -9
11 -21 0 -12 4 -17 11 -13 6 3 8 15 5 27 -3 12 3 30 15 45 22 28 24 48 7 55
-10 3 -10 9 -2 23 8 15 6 23 -7 35 -16 16 -17 14 -22 -21 -3 -21 -13 -49 -22
-62 l-17 -23 6 30 c3 17 14 71 25 120 10 50 17 93 14 98 -2 4 -28 7 -57 7 -28
0 -57 5 -62 10 -11 11 -372 26 -514 22 -217 -7 -431 -3 -443 7 -13 10 -326 25
-497 23 -346 -3 -414 -1 -429 12 -9 8 -36 14 -61 14 -80 0 -173 12 -186 23 -8
7 -14 7 -14 2 0 -6 -11 -8 -25 -5 -14 2 -25 11 -25 19 0 13 21 14 153 9 83 -4
170 -9 192 -11 43 -5 417 -21 685 -30 91 -3 239 -7 330 -10 332 -11 697 -24
846 -31 78 -4 124 -2 128 4 3 6 7 57 7 113 1 70 8 123 21 168 67 225 87 321
102 493 18 202 24 225 63 233 86 18 86 18 99 68 30 116 37 211 25 323 -12 121
-14 283 -4 387 6 73 16 87 92 141 22 17 41 33 41 38 0 37 -154 -43 -222 -116
-66 -69 -80 -51 -27 33 22 35 52 100 66 145 14 45 45 138 68 207 37 108 50
167 69 307 3 20 -1 22 -45 22 l-49 0 -1 713 c0 738 -3 868 -19 898 -6 10 -7
25 -4 34 5 11 0 18 -15 22 -20 5 -20 7 -5 18 19 13 11 35 -12 35 -10 0 -14
-11 -14 -37 0 -35 0 -36 -20 -18 -18 17 -19 16 -26 -10 -6 -24 -9 -26 -19 -12
-6 9 -23 19 -38 22 -22 6 -26 11 -21 31 6 24 5 24 -65 24 l-71 0 0 135 0 135
108 2 c130 2 247 4 284 6 20 2 29 9 33 25 6 22 9 23 41 13 19 -6 34 -15 34
-19 0 -5 -9 -5 -20 -2 -11 4 -20 2 -20 -4 0 -6 14 -11 30 -11 17 0 30 5 30 11
0 8 5 8 15 -1 12 -10 15 -9 15 6 1 18 2 18 13 2 11 -14 37 -17 168 -20 l154
-3 3 44 c2 24 -2 56 -8 71 -15 36 5 110 30 110 11 0 16 7 15 23 -1 12 3 28 9
36 8 10 12 6 19 -20 4 -19 10 -41 13 -49z m3158 11 c36 -43 43 -60 42 -92 -1
-38 -15 -56 -17 -21 -1 15 -2 14 -6 -2 -4 -15 -7 -16 -14 -5 -7 11 -9 9 -9 -7
0 -15 6 -20 22 -20 13 1 24 -6 26 -15 4 -22 -32 -61 -52 -53 -9 3 -16 1 -16
-5 0 -6 -7 -11 -15 -11 -19 0 -19 -19 0 -26 8 -4 12 -10 9 -15 -3 -5 -2 -15 3
-21 12 -21 14 -50 3 -63 -7 -9 -7 -21 0 -39 5 -14 6 -26 1 -26 -5 0 -12 -13
-16 -30 -5 -24 -12 -30 -34 -30 -23 0 -30 6 -38 35 -9 29 -9 35 3 35 8 0 14 5
14 10 0 6 -4 10 -10 10 -14 0 -12 54 2 68 9 9 9 15 1 23 -12 12 -7 39 8 39 5
0 9 -6 9 -14 0 -8 4 -17 8 -20 5 -3 9 15 8 39 0 25 -3 40 -6 34 -10 -16 -45
43 -41 70 1 13 -1 21 -6 18 -12 -8 -43 28 -43 49 0 14 3 14 15 4 10 -8 15 -9
15 -2 0 6 -7 15 -15 19 -12 7 -10 15 13 48 33 48 62 73 80 71 7 -1 32 -26 56
-55z m-4365 -162 c17 -32 38 -60 47 -63 9 -3 40 -6 70 -6 l54 0 2 -400 3 -401
70 -25 c39 -14 90 -32 115 -41 25 -8 64 -26 88 -40 33 -19 42 -31 42 -51 0
-39 -11 -50 -50 -54 -30 -3 -35 -7 -41 -36 -4 -18 -2 -35 3 -38 5 -3 9 -31 8
-62 -2 -61 -2 -297 -1 -322 1 -23 2 -171 1 -293 0 -59 2 -112 6 -118 3 -5 0
-16 -6 -24 -6 -8 -9 -18 -6 -24 3 -5 7 -29 7 -53 1 -23 5 -50 9 -58 4 -8 4
-24 0 -35 -4 -11 -4 -34 0 -52 4 -18 5 -34 2 -37 -10 -11 -11 -56 0 -56 6 0 8
-12 4 -30 -3 -17 -1 -42 4 -56 6 -15 7 -32 3 -38 -8 -11 -8 -152 0 -216 3 -19
0 -46 -5 -60 l-10 -25 -13 30 c-7 17 -14 24 -14 17 -1 -21 -21 -3 -21 19 0 11
-4 17 -10 14 -9 -5 -14 16 -13 52 1 7 -3 11 -7 8 -11 -7 -52 75 -46 92 4 9 2
11 -6 7 -7 -5 -9 0 -6 14 4 12 0 23 -7 26 -8 3 -22 22 -31 43 -10 21 -23 43
-30 48 -6 6 -17 27 -23 47 -7 20 -18 41 -25 48 -8 6 -17 27 -21 46 -10 53 -20
31 -18 -39 1 -64 0 -61 -18 33 -9 48 -14 56 -35 58 -15 1 -24 -3 -24 -13 0 -8
-6 -15 -14 -15 -19 0 -26 -32 -26 -129 0 -77 -1 -83 -15 -65 -13 18 -14 16
-15 -23 0 -27 -5 -43 -12 -43 -9 0 -9 -3 0 -12 13 -13 16 -29 5 -27 -29 5 -46
-5 -58 -33 l-14 -33 -2 50 c0 28 0 69 1 91 1 26 -4 47 -14 57 -18 18 -21 63
-6 101 6 17 6 26 0 26 -6 0 -11 38 -11 88 l-2 87 -12 -80 c-11 -74 -12 -58
-16 235 -2 173 -1 324 3 335 4 11 7 -45 8 -125 1 -150 10 -332 16 -339 2 -2 5
34 5 80 1 46 2 113 3 149 1 36 -1 70 -5 75 -9 13 -16 485 -7 485 4 0 9 -17 11
-37 2 -23 4 -11 5 30 2 49 -1 67 -10 66 -7 -1 -82 -1 -165 0 l-153 1 0 76 c0
44 -4 73 -9 69 -6 -3 -8 -197 -4 -506 2 -275 2 -507 -2 -517 -4 -9 -9 -36 -10
-60 -4 -54 -15 -68 -15 -19 0 45 -8 67 -26 67 -8 0 -15 -11 -15 -27 l-2 -28
-4 28 c-4 25 -8 27 -49 27 -24 0 -43 -3 -43 -7 1 -5 1 -16 0 -26 -1 -24 -21
-11 -21 14 0 14 -7 19 -25 19 -24 0 -25 -2 -26 -67 -1 -77 -5 -74 -18 12 l-9
60 0 -68 c1 -37 -1 -70 -4 -72 -13 -13 -22 294 -24 805 -2 632 -1 600 -14 580
-9 -13 -10 -13 -10 0 0 9 4 20 10 26 11 11 11 5 8 297 -1 114 -6 207 -10 207
-12 0 -8 132 4 148 7 8 7 16 -1 25 -7 9 -8 29 -2 58 7 41 8 42 15 17 11 -37
29 -41 168 -37 l119 4 2 -225 c1 -317 5 -360 26 -360 9 0 21 -4 27 -9 5 -5 45
-23 89 -40 90 -35 128 -62 119 -84 -11 -30 -73 -29 -171 1 -38 12 -36 16 -38
-65 -1 -75 -7 -73 168 -73 l127 0 0 430 0 431 50 -7 c28 -4 50 -3 50 2 0 5
-14 32 -30 59 -16 28 -30 60 -30 73 0 23 0 23 24 5 13 -10 38 -43 55 -74z
m10026 -39 c7 -11 -13 -118 -25 -135 -4 -5 -15 -35 -25 -65 -10 -30 -21 -59
-26 -64 -17 -19 14 -126 37 -126 8 0 14 -7 14 -16 0 -11 -6 -15 -20 -11 -17 4
-20 0 -20 -28 0 -30 -6 -37 -55 -65 -30 -17 -55 -37 -55 -44 0 -6 -9 -19 -20
-28 -22 -19 -37 -7 -32 25 2 9 -2 17 -7 17 -6 0 -11 20 -11 45 0 33 4 45 15
45 8 0 15 5 15 10 0 6 -5 10 -11 10 -18 0 -3 83 26 144 14 29 25 58 25 64 0 7
6 12 13 12 8 0 22 9 32 20 17 19 17 21 2 33 -16 11 -16 15 2 62 37 101 41 105
82 105 21 0 41 -5 44 -10z m-1240 -649 c8 -17 24 -36 35 -44 24 -17 70 -104
70 -133 0 -12 -7 -27 -15 -34 -9 -8 -13 -21 -9 -36 4 -13 1 -31 -6 -38 -9 -11
-8 -20 1 -38 7 -13 14 -49 15 -80 3 -67 8 -78 34 -78 16 0 18 4 10 24 -11 29
7 94 29 105 23 12 91 21 91 13 -1 -13 -45 -59 -63 -65 -13 -5 -15 -11 -8 -24
53 -106 53 -104 34 -127 -10 -12 -22 -24 -28 -28 -7 -5 -7 -10 0 -15 15 -12
17 -33 4 -49 -6 -7 -8 -18 -4 -24 4 -6 1 -17 -5 -25 -9 -11 -9 -15 -1 -15 6 0
11 -7 11 -15 0 -8 -7 -15 -15 -15 -8 0 -15 5 -15 12 0 8 -7 5 -17 -5 -17 -17
-17 -19 1 -32 11 -8 16 -21 13 -29 -4 -10 3 -22 19 -32 21 -14 24 -22 18 -47
-6 -30 -49 -76 -71 -77 -7 0 -50 24 -95 54 -88 58 -179 152 -203 210 -20 47
-19 56 4 56 11 0 23 5 26 10 4 7 13 7 26 0 15 -8 19 -7 19 4 0 8 -4 17 -10 21
-5 3 -7 11 -4 19 4 11 -84 131 -92 124 -7 -7 29 -98 46 -116 21 -23 17 -32
-16 -32 -28 0 -46 25 -86 122 -41 101 -56 166 -64 269 -8 101 3 116 31 42 10
-27 24 -58 32 -71 7 -12 11 -27 8 -32 -3 -6 -1 -10 6 -10 9 0 10 -3 2 -11 -17
-17 -3 -60 24 -70 32 -12 70 -57 77 -91 4 -19 12 -28 25 -28 26 0 45 -35 38
-69 -4 -18 1 -38 13 -56 14 -21 16 -33 9 -49 -13 -28 4 -76 27 -76 12 0 15 6
10 24 -3 14 2 42 12 68 11 24 24 90 30 148 19 178 -14 458 -58 485 -15 9 -12
35 5 35 8 0 21 -13 30 -29z m665 -337 c0 -48 -4 -75 -13 -83 -8 -6 -15 -26
-16 -43 -1 -18 -4 -44 -5 -58 -2 -14 -4 -31 -5 -38 -1 -13 -57 -72 -68 -72 -3
0 -3 13 0 29 5 23 2 30 -18 39 -15 7 -26 8 -30 2 -4 -6 -10 -10 -16 -10 -16 0
-10 20 14 43 29 28 36 46 27 72 -4 11 -4 25 -1 30 4 6 13 28 19 51 7 23 23 52
36 67 13 14 26 37 30 51 6 24 7 25 26 9 17 -14 20 -30 20 -89z m-7429 59 c0
-16 1 -16 8 1 7 18 8 18 14 2 4 -9 2 -25 -4 -35 -9 -13 -8 -26 6 -54 9 -20 13
-41 9 -48 -4 -8 -3 -9 4 -5 8 4 12 0 12 -11 0 -10 6 -27 14 -38 8 -12 10 -28
6 -40 -4 -11 -3 -33 1 -49 5 -16 6 -33 3 -38 -3 -5 3 -12 15 -15 12 -3 21 -11
21 -18 0 -8 8 -16 18 -18 9 -3 4 -5 -13 -4 -22 2 -30 -3 -33 -17 -3 -14 0 -17
11 -13 12 4 14 2 10 -10 -5 -12 -2 -15 9 -11 11 5 15 -1 15 -25 0 -18 -5 -35
-11 -39 -8 -5 -7 -8 2 -8 6 0 12 -8 12 -17 0 -14 -3 -13 -16 5 -8 12 -12 27
-8 33 4 8 0 9 -15 4 -15 -4 -21 -2 -21 9 0 10 6 13 15 10 11 -5 13 -2 9 10 -4
10 -13 14 -23 11 -10 -3 -21 3 -29 15 -9 15 -9 20 0 20 7 0 5 5 -5 13 -10 8
-21 43 -30 102 -15 94 -12 155 6 155 7 0 7 4 -1 12 -7 7 -12 22 -12 34 0 13
-5 26 -11 29 -6 4 -8 13 -5 21 3 7 1 16 -5 19 -11 7 -3 25 12 25 5 0 9 -8 10
-17z m139 -629 c0 -24 4 -34 12 -32 33 11 42 -77 11 -95 -10 -6 -11 -12 -4
-21 6 -7 11 -27 13 -44 1 -21 9 -34 20 -38 23 -7 23 -24 1 -24 -13 0 -15 -2
-5 -8 7 -5 10 -16 6 -25 -3 -10 -1 -24 6 -32 9 -10 9 -15 1 -15 -16 0 -14 -16
4 -34 8 -8 15 -19 15 -25 0 -6 4 -11 9 -11 5 0 12 -18 16 -40 4 -22 13 -47 21
-55 19 -18 19 -26 2 -37 -8 -5 -3 -6 15 -2 17 4 27 2 27 -5 0 -21 2 -26 12
-38 7 -9 5 -15 -8 -19 -41 -15 -45 -25 -24 -54 27 -38 80 -55 123 -41 28 10
33 9 48 -11 16 -21 18 -21 44 -4 18 12 30 15 37 8 7 -7 3 -14 -12 -22 l-22
-12 23 -24 c25 -27 39 -23 39 12 0 14 4 22 10 19 6 -3 7 -18 4 -32 -5 -18 -3
-24 5 -19 7 5 11 -4 11 -28 0 -20 -5 -36 -10 -36 -6 0 -8 11 -4 26 5 20 3 25
-7 22 -13 -5 -16 -26 -8 -58 3 -9 -4 -16 -18 -18 -13 -2 -23 1 -23 7 0 17 -27
13 -34 -5 -5 -13 -9 -14 -21 -4 -12 10 -13 5 -8 -41 5 -43 3 -54 -12 -65 -15
-11 -21 -11 -33 -1 -13 10 -15 9 -10 -10 4 -13 2 -23 -3 -23 -6 0 -5 -8 1 -19
14 -28 12 -41 -6 -34 -8 3 -13 12 -10 19 4 11 2 11 -15 1 -17 -10 -22 -9 -34
7 -7 10 -19 15 -25 11 -9 -5 -9 -10 -1 -18 6 -6 11 -15 11 -20 0 -5 -7 -1 -16
8 -9 9 -13 23 -10 32 4 9 1 20 -6 24 -10 7 -10 11 1 21 11 11 13 11 6 -1 -5
-9 -4 -12 3 -7 11 7 6 36 -7 36 -12 0 -5 128 8 144 9 10 10 16 2 16 -7 0 -11
21 -11 55 0 43 -4 57 -17 62 -9 4 -19 1 -21 -5 -2 -7 -8 -12 -14 -12 -6 0 -8
7 -4 15 3 9 0 15 -8 15 -8 0 -16 7 -20 15 -7 20 -36 8 -36 -16 0 -10 5 -20 10
-20 6 -1 16 -2 23 -3 6 -1 11 -9 9 -19 -2 -12 2 -15 15 -10 17 6 17 5 0 -14
-9 -11 -14 -23 -11 -26 4 -4 2 -13 -5 -21 -9 -11 -8 -17 4 -29 17 -17 20 -31
5 -22 -15 9 -12 -2 6 -30 18 -28 4 -34 -20 -9 -19 18 -20 12 -5 -19 9 -19 7
-18 -10 3 -11 14 -19 29 -17 35 3 12 -41 61 -49 53 -4 -4 -1 -17 6 -29 9 -17
9 -24 0 -27 -6 -2 -9 -8 -6 -12 3 -5 12 -7 19 -4 12 5 28 -17 30 -41 1 -5 10
-11 21 -14 20 -3 35 -18 35 -34 0 -5 -5 -5 -12 -1 -8 5 -9 2 -5 -10 4 -11 -10
-3 -35 18 -23 20 -47 36 -54 36 -6 0 -22 13 -35 29 -13 16 -26 28 -29 26 -3
-2 -4 12 -2 31 3 26 1 34 -12 34 -9 0 -16 -8 -16 -20 0 -20 -19 -23 -32 -5
-11 14 -10 27 1 20 5 -3 16 4 24 15 12 18 15 18 36 3 21 -14 24 -14 38 0 14
14 12 17 -21 31 -20 8 -43 13 -50 10 -7 -3 -16 3 -20 13 -15 42 -38 73 -54 73
-10 0 -35 -9 -56 -20 -34 -17 -40 -17 -53 -5 -8 8 -19 15 -24 15 -6 0 -17 7
-26 15 -22 23 -83 114 -82 122 1 5 0 10 -1 13 -1 3 -4 34 -6 69 -3 73 -16 95
-39 65 -14 -18 -14 -17 -4 8 9 20 15 25 24 18 9 -8 14 -4 18 12 7 27 -1 38
-13 18 -7 -12 -12 -11 -30 5 -18 17 -19 20 -5 28 9 5 19 6 22 4 3 -3 20 3 39
13 31 18 34 18 43 2 8 -14 13 -15 30 -4 20 11 51 17 51 8 0 -2 3 -11 6 -20 4
-11 1 -16 -10 -16 -9 0 -16 -7 -16 -15 0 -9 -6 -12 -17 -9 -13 4 -11 0 6 -15
28 -26 87 -28 113 -4 33 29 28 8 -10 -45 -20 -28 -47 -54 -59 -58 -15 -4 -23
-14 -23 -28 0 -17 2 -18 10 -6 8 12 10 9 10 -11 0 -18 -6 -28 -20 -32 -13 -3
-18 -11 -14 -20 3 -9 -4 -21 -16 -30 -14 -9 -17 -17 -11 -22 6 -3 9 -9 7 -13
-2 -4 3 -16 11 -27 14 -19 15 -18 8 13 -5 26 -2 41 18 70 14 20 28 48 32 62 5
14 25 41 46 60 22 20 39 41 39 48 0 6 5 12 10 12 6 0 10 7 10 15 0 8 5 15 10
15 6 0 13 8 17 18 3 9 16 40 28 67 12 28 25 61 29 75 3 14 3 19 0 13 -10 -22
-22 -14 -26 15 -4 31 10 51 30 44 10 -3 10 2 0 23 -10 22 -9 28 3 35 8 5 14
13 15 17 1 4 7 23 13 41 18 44 41 42 41 -4z m-597 -186 c-2 -5 1 -8 6 -8 6 0
11 -6 11 -14 0 -8 11 -17 25 -20 37 -9 58 -76 24 -76 -5 0 -9 5 -9 11 0 5 5 7
11 3 7 -4 10 -1 7 7 -3 8 -13 16 -22 17 -15 3 -17 -1 -11 -29 7 -32 38 -95 56
-113 5 -6 9 -17 9 -25 0 -8 17 -33 38 -55 21 -22 29 -36 19 -33 -16 6 -16 4
-2 -21 8 -15 22 -37 31 -49 9 -13 14 -23 11 -23 -3 0 -19 19 -36 42 -17 23
-31 38 -31 34 0 -13 38 -73 95 -151 29 -39 55 -82 58 -97 4 -15 21 -51 38 -79
16 -28 28 -53 26 -56 -6 -6 -77 122 -77 139 0 14 -109 172 -137 198 -19 18
-17 15 35 -70 31 -52 21 -44 -34 25 -15 18 -22 22 -18 11 5 -12 3 -17 -2 -13
-12 7 -11 -30 1 -56 6 -14 10 -16 16 -6 4 7 3 21 -3 32 -5 10 -7 21 -5 24 12
12 27 -38 17 -56 -13 -26 -13 -34 3 -25 6 4 9 4 5 -1 -4 -4 2 -15 12 -24 20
-16 132 -236 143 -281 4 -14 -27 44 -68 128 -41 83 -77 152 -79 152 -8 0 3
-26 64 -156 61 -128 75 -164 65 -164 -5 0 -69 130 -125 255 -44 100 -52 115
-61 115 -10 0 -2 -21 36 -100 33 -67 86 -181 110 -233 9 -21 15 -41 12 -43 -4
-5 -143 273 -167 335 -8 19 -16 29 -18 23 -3 -10 19 -64 101 -242 11 -25 22
-48 24 -52 2 -5 1 -8 -2 -8 -5 0 -63 118 -145 299 -19 40 -36 69 -38 62 -4
-11 37 -120 70 -184 11 -22 18 -41 15 -43 -3 -4 -55 101 -109 224 -11 24 -21
42 -24 40 -5 -6 62 -168 119 -288 64 -136 97 -210 91 -210 -3 0 -184 367 -184
375 0 11 -61 137 -65 133 -4 -4 40 -117 82 -208 28 -61 94 -204 105 -227 6
-13 9 -25 7 -28 -3 -2 -22 30 -42 73 -141 300 -186 392 -191 392 -5 0 9 -54
19 -70 3 -5 4 -10 1 -10 -2 0 -14 16 -26 36 -33 53 -34 35 -2 -38 50 -110 45
-118 -8 -14 -28 54 -50 99 -48 101 2 2 21 6 43 9 52 8 163 45 170 57 4 5 17 9
31 9 13 0 24 3 24 8 0 19 -61 163 -94 220 -28 49 -34 70 -29 90 4 15 6 33 4
41 -2 11 0 11 12 0 8 -8 13 -17 10 -21z m7351 -1030 c-3 -5 -12 -7 -20 -4 -19
7 -18 -9 2 -28 14 -14 13 -18 -10 -41 -14 -14 -32 -25 -40 -25 -8 0 -18 -4
-21 -10 -4 -6 6 -7 26 -3 26 5 30 3 23 -8 -5 -8 -9 -18 -10 -24 0 -5 -2 -16
-2 -22 -1 -7 -12 -13 -24 -13 -21 -1 -21 -2 -5 -11 21 -12 13 -31 -10 -22 -12
5 -14 3 -8 -7 6 -10 3 -12 -14 -7 -17 4 -25 -1 -36 -24 -15 -28 -15 -29 6 -29
21 0 21 -1 -5 -25 -15 -14 -24 -30 -21 -35 10 -16 -52 -70 -72 -63 -12 5 -14
3 -8 -7 6 -10 4 -12 -8 -7 -9 3 -19 2 -23 -4 -4 -6 -11 -6 -20 2 -12 9 -13 9
-9 -3 5 -12 0 -14 -20 -10 -15 2 -29 11 -32 18 -3 8 -13 14 -23 14 -10 0 -23
6 -29 14 -9 11 0 22 44 55 37 28 55 37 55 27 0 -10 6 -13 15 -10 8 4 15 10 15
16 0 5 -4 6 -10 3 -5 -3 -15 6 -22 20 -10 22 -9 28 3 35 10 7 16 4 20 -8 6
-14 9 -12 18 11 6 16 11 35 11 43 0 8 4 14 10 14 9 0 66 35 105 65 10 8 24 15
30 15 5 0 3 5 -5 10 -12 8 -10 14 18 36 17 14 32 30 32 36 0 7 -10 2 -23 -10
-32 -30 -46 -28 -17 3 13 14 29 24 36 21 7 -3 20 1 30 8 19 14 57 10 48 -6z
m-12364 -1019 c52 -5 122 -17 155 -25 33 -8 74 -16 90 -19 48 -7 204 -51 280
-80 388 -146 620 -391 666 -705 14 -101 6 -272 -17 -350 -53 -181 -199 -355
-424 -504 -92 -61 -240 -146 -253 -146 -4 0 -7 11 -7 25 0 37 -13 30 -38 -20
-16 -33 -28 -45 -44 -45 -13 -1 -41 -12 -63 -26 -55 -33 -344 -174 -359 -174
-6 0 -29 -9 -51 -20 -22 -11 -41 -20 -43 -20 -2 0 -2 17 0 37 3 32 0 38 -22
43 -14 4 -31 2 -37 -3 -18 -13 -16 -52 2 -67 13 -11 12 -15 -9 -31 -27 -21
-47 -24 -63 -8 -7 7 -14 2 -21 -20 -9 -27 -31 -41 -176 -112 -91 -45 -166 -83
-166 -85 0 -2 12 -26 28 -54 27 -50 42 -62 42 -35 0 8 14 21 30 30 17 9 30 24
30 34 0 25 17 37 62 45 50 9 87 -1 82 -22 -3 -9 -10 -61 -18 -115 -11 -79 -11
-101 0 -115 12 -16 14 -16 28 3 8 11 16 36 16 55 0 44 17 77 51 103 25 18 28
18 52 2 25 -16 26 -16 26 2 1 46 7 56 42 74 21 10 47 19 57 19 21 0 46 -23 36
-32 -10 -11 17 -89 29 -85 7 3 11 8 10 13 -1 5 -4 26 -8 47 -7 33 -5 37 14 37
11 0 21 -5 21 -12 0 -6 10 -2 23 9 50 45 71 38 88 -32 21 -89 29 -95 26 -20
-2 80 0 82 82 67 30 -6 54 -6 57 0 7 11 176 9 191 -4 8 -6 7 -17 -4 -40 -13
-24 -13 -35 -4 -49 15 -24 14 -29 -4 -29 -8 0 -15 -4 -15 -9 0 -4 -21 -7 -47
-6 -27 1 -33 0 -15 -2 17 -2 32 -8 32 -13 0 -6 10 -9 23 -7 21 2 22 -2 25 -75
2 -49 -1 -78 -8 -78 -5 0 -10 -8 -10 -18 0 -10 -6 -27 -14 -37 -12 -17 -14
-15 -20 18 -7 39 -22 47 -40 21 -6 -8 -18 -16 -26 -17 -8 -2 -21 -6 -27 -10
-18 -11 -33 0 -26 19 6 17 -28 54 -50 54 -7 0 -19 6 -26 13 -11 10 -15 8 -25
-7 -18 -32 -58 -66 -68 -60 -5 3 -9 22 -8 43 1 20 2 42 1 49 -1 15 -43 16 -58
1 -7 -7 -16 4 -29 40 -10 28 -22 51 -26 51 -14 0 -9 -88 6 -97 7 -4 19 -19 26
-32 11 -21 10 -26 -6 -38 -26 -19 -41 -16 -47 8 -4 16 -11 19 -26 14 -19 -6
-21 -2 -21 30 0 20 5 45 11 57 13 24 4 68 -15 68 -20 0 -30 -27 -32 -90 -1
-30 -9 -100 -17 -155 -9 -55 -16 -103 -17 -107 0 -12 -39 -48 -50 -48 -17 0
-12 98 6 108 14 8 14 12 -4 40 -18 31 -19 32 -36 13 -13 -14 -16 -28 -11 -49
6 -27 3 -31 -24 -37 -17 -3 -48 -15 -71 -26 -30 -15 -40 -25 -40 -44 0 -29
-31 -50 -48 -33 -14 14 -16 38 -3 38 4 0 9 12 9 28 1 15 4 52 7 82 l6 55 -20
-30 c-12 -16 -21 -39 -21 -51 0 -43 -24 -59 -85 -57 -42 1 -58 -2 -62 -13 -7
-20 2 -28 35 -30 15 -1 35 -2 45 -3 13 -1 16 -7 11 -25 -5 -20 1 -27 42 -48
65 -34 80 -58 56 -88 -18 -22 -19 -22 -45 -5 -25 16 -27 16 -53 -4 -23 -18
-40 -21 -115 -21 -82 0 -89 2 -89 20 0 11 6 20 13 20 74 2 156 9 166 14 9 6 9
11 0 22 -13 16 -104 19 -114 4 -11 -17 -23 -11 -27 13 -2 17 -9 22 -35 22 -18
0 -38 6 -44 13 -7 6 -16 12 -20 12 -14 0 -49 -72 -49 -102 0 -28 -2 -30 -26
-24 -17 5 -35 1 -51 -9 -22 -15 -26 -15 -36 -1 -11 14 -15 14 -41 1 -40 -21
-55 -6 -38 38 10 27 10 34 -3 43 -19 14 -20 44 -1 44 8 0 18 5 22 12 4 6 3 8
-3 5 -18 -11 -33 18 -29 54 3 31 8 35 50 49 31 10 45 20 43 30 -2 14 -43 19
-76 9 -20 -6 -24 16 -7 34 8 8 12 17 9 21 -13 12 -40 6 -58 -14 -10 -11 -22
-20 -27 -20 -13 0 -9 38 6 47 15 9 28 133 14 133 -4 0 -8 6 -8 14 0 20 -27 27
-40 11 -7 -8 -9 -22 -6 -32 5 -11 -2 -24 -21 -39 -19 -16 -23 -23 -13 -24 26
0 41 -21 28 -37 -6 -7 -12 -30 -14 -50 -2 -20 -7 -40 -11 -44 -14 -14 -58 -15
-56 -2 2 7 -4 10 -13 6 -21 -8 -13 -37 12 -41 12 -2 27 -14 34 -28 12 -22 11
-26 -8 -40 -29 -20 -28 -40 5 -57 l27 -14 -23 -12 c-12 -7 -40 -11 -62 -10
-33 3 -44 -1 -58 -20 -13 -17 -20 -20 -26 -12 -4 7 -21 11 -38 9 -23 -2 -33 1
-35 14 -2 12 7 20 36 28 26 7 42 17 45 31 4 15 12 20 31 17 14 -2 25 2 25 7 0
6 -11 9 -24 8 -24 -2 -42 22 -24 33 6 3 -5 17 -25 30 -29 20 -36 31 -36 57 0
53 11 77 32 77 16 0 19 -5 15 -23 -10 -36 6 -51 28 -27 11 12 13 20 6 20 -17
0 -34 50 -21 65 8 9 20 10 50 2 22 -6 43 -7 47 -3 22 21 -97 57 -122 36 -19
-16 -24 -2 -19 58 2 32 1 50 -2 42 -4 -8 -13 -19 -20 -23 -8 -4 -14 -23 -14
-41 0 -45 -24 -66 -40 -36 -8 15 -18 20 -31 17 -10 -3 -19 -1 -19 4 0 5 -7 9
-15 9 -8 0 -15 -7 -15 -15 0 -8 5 -15 10 -15 6 0 10 -9 10 -19 0 -12 9 -21 25
-25 17 -4 25 -13 25 -28 0 -21 1 -21 14 -3 16 22 46 14 46 -14 0 -10 -7 -32
-15 -47 -8 -17 -15 -56 -15 -91 0 -71 -11 -82 -81 -88 -22 -1 -48 -10 -58 -19
-10 -9 -19 -16 -22 -16 -2 0 -4 37 -4 83 0 69 3 82 16 81 19 -2 15 29 -7 47
-10 9 -22 6 -49 -9 -41 -25 -50 -16 -36 35 6 21 11 52 11 70 0 24 5 33 23 39
44 13 56 32 45 71 -5 20 -8 51 -6 69 3 23 -1 35 -11 39 -9 4 -17 1 -20 -6 -2
-7 -14 -22 -27 -34 -13 -12 -24 -27 -24 -34 0 -19 -22 -12 -27 9 -4 16 -9 18
-19 9 -25 -21 -4 -39 46 -39 57 0 73 -15 35 -32 -16 -7 -28 -23 -32 -40 -7
-34 -18 -42 -57 -43 -31 0 -62 -34 -38 -42 14 -6 16 -29 2 -38 -20 -12 -78 6
-83 27 -3 11 -12 18 -19 16 -20 -7 -22 -46 -4 -74 9 -13 12 -24 6 -24 -5 0
-10 -11 -10 -25 0 -20 5 -24 22 -22 21 2 23 -3 31 -83 9 -99 4 -125 -24 -141
-17 -8 -23 -7 -34 8 -26 34 -28 72 -6 118 12 25 21 49 21 55 0 18 -29 11 -40
-10 -6 -11 -17 -20 -25 -20 -18 0 -20 39 -2 46 9 3 13 30 14 85 2 70 0 80 -14
77 -12 -2 -20 -23 -30 -73 -8 -47 -19 -75 -33 -87 -24 -19 -26 -34 -5 -45 12
-7 13 -19 6 -63 -9 -55 -28 -80 -63 -80 -16 0 -18 10 -18 94 0 57 4 97 11 102
6 3 8 17 5 29 -3 13 -2 27 4 30 5 3 10 19 10 36 0 19 5 29 15 29 18 0 19 5 4
32 -10 18 -8 25 10 39 11 9 21 28 21 41 0 33 41 81 62 73 13 -5 16 -14 12 -31
-7 -27 2 -74 14 -74 4 0 12 10 17 22 8 18 6 31 -8 56 -18 31 -19 34 -2 52 12
13 15 27 11 44 -6 25 21 66 44 66 5 0 17 16 26 35 18 38 40 63 122 138 58 52
61 53 101 32 34 -17 43 -11 31 21 -7 19 -4 30 18 56 36 44 64 67 80 68 8 0 34
18 59 39 47 42 293 190 428 258 44 23 118 60 165 84 47 23 96 47 110 53 14 6
41 23 60 37 54 41 216 121 238 117 22 -3 52 18 52 38 0 7 35 37 78 67 227 161
330 371 249 509 -68 116 -241 197 -422 198 -167 0 -280 -37 -371 -123 -100
-93 -147 -199 -162 -367 l-7 -85 -60 -1 c-33 0 -262 -1 -510 -2 l-450 -3 0 78
c0 325 104 601 297 789 249 243 612 378 1083 404 167 9 443 4 575 -11z m13570
-195 c39 -8 73 -20 76 -26 4 -6 -1 -8 -15 -3 -16 5 -20 3 -15 -8 3 -8 16 -17
30 -20 20 -4 23 -1 19 14 -4 11 -2 19 4 19 17 0 155 -30 190 -42 32 -10 33
-12 16 -24 -11 -8 -15 -19 -11 -30 5 -12 2 -15 -11 -9 -10 4 -30 8 -44 10 -52
7 -191 35 -199 40 -5 3 -7 12 -3 20 3 8 0 15 -6 15 -6 0 -11 -7 -11 -15 0 -22
-17 -18 -23 4 -3 13 -18 22 -48 28 -29 6 -45 14 -47 26 -4 21 9 21 98 1z
m-18020 -44 c0 -5 -4 -10 -10 -10 -5 0 -10 -7 -10 -15 0 -8 9 -15 20 -15 11 0
20 -5 20 -11 0 -8 4 -8 15 1 12 10 17 8 26 -14 7 -14 15 -23 19 -21 5 3 18 -3
31 -13 23 -20 19 -45 -6 -35 -8 3 -15 0 -15 -6 0 -6 5 -11 11 -11 5 0 8 -4 5
-9 -13 -20 49 -46 66 -27 12 12 54 10 63 -4 2 -4 -7 -5 -20 -2 -30 5 -33 -8
-5 -26 26 -16 27 -62 3 -62 -12 0 -14 3 -6 8 8 5 8 12 -3 26 -12 17 -13 16 -9
-18 3 -21 12 -44 20 -52 8 -9 15 -23 15 -32 -1 -15 -3 -14 -15 2 -11 14 -18
17 -26 9 -8 -8 -4 -15 13 -27 l23 -17 -25 4 c-16 3 -34 -5 -55 -24 -18 -17
-37 -27 -47 -23 -9 2 -19 1 -22 -5 -7 -11 34 -91 46 -91 13 0 9 17 -7 30 -23
19 -18 40 10 40 14 0 25 -4 25 -10 0 -5 -4 -10 -10 -10 -5 0 -10 -7 -10 -15 0
-9 9 -15 22 -15 17 0 19 -3 10 -12 -12 -12 -22 -15 -77 -23 -27 -4 -28 -3 -12
9 24 19 21 27 -9 24 -15 -2 -29 3 -31 10 -3 7 4 12 17 12 13 0 20 5 17 13 -5
13 -11 13 -39 2 -11 -4 -18 -3 -18 4 0 6 5 11 10 11 6 0 10 5 10 11 0 5 -5 7
-11 4 -14 -9 -59 3 -59 16 0 6 7 9 15 5 9 -3 15 0 15 9 0 8 -9 15 -19 15 -11
0 -23 5 -27 12 -4 6 -3 8 3 5 6 -4 22 2 34 14 21 18 22 20 4 14 -37 -12 -52
-13 -66 -4 -12 8 -12 10 1 8 20 -3 50 11 50 23 0 6 -7 8 -15 4 -18 -7 -20 10
-2 21 14 9 19 43 6 43 -14 0 -11 28 4 34 6 3 2 3 -10 0 -13 -3 -23 -1 -23 5 0
5 -3 18 -7 28 -6 16 -5 16 10 5 14 -12 16 -11 16 5 0 10 3 35 6 57 5 32 3 37
-10 33 -19 -8 -20 7 0 23 8 7 15 19 15 27 0 15 20 42 33 43 4 0 7 -4 7 -10z
m10616 -329 c0 -11 -4 -17 -8 -15 -13 9 -9 -21 9 -56 12 -24 13 -35 5 -38 -19
-6 -14 -22 8 -22 11 0 20 -4 20 -10 0 -5 -4 -10 -10 -10 -5 0 -10 -4 -10 -10
0 -5 7 -10 16 -10 11 0 15 -6 11 -20 -3 -12 -1 -20 6 -19 24 3 37 -1 37 -11 0
-5 -11 -10 -25 -10 -14 0 -25 -4 -25 -10 0 -5 13 -7 30 -3 35 6 41 -10 10 -27
-11 -6 -18 -16 -14 -21 4 -7 10 -7 17 0 14 14 57 14 57 1 0 -5 -5 -10 -11 -10
-8 0 -7 -5 1 -15 16 -20 1 -38 -24 -29 -14 5 -15 9 -4 15 10 7 10 11 0 21 -8
8 -15 9 -20 3 -4 -6 -19 -10 -34 -10 -16 1 -28 -3 -28 -7 0 -4 -8 -8 -18 -8
-10 0 -22 -3 -26 -7 -12 -12 -50 -11 -84 3 -18 7 -36 14 -40 15 -4 0 -18 7
-32 15 -23 12 -20 13 42 14 60 0 67 2 65 20 -1 11 -6 20 -13 20 -36 0 -64 85
-64 195 0 77 0 77 41 118 l41 41 37 -41 c20 -24 37 -51 37 -62z m-9458 -37
c12 -4 22 -10 22 -15 0 -5 -7 -6 -15 -3 -8 4 -15 1 -15 -6 0 -8 8 -10 21 -7
24 7 51 -2 44 -13 -3 -5 -14 -6 -25 -3 -24 6 -29 -24 -5 -33 8 -4 15 -13 15
-21 0 -11 7 -14 28 -9 20 5 23 4 11 -3 -21 -14 -91 -2 -85 14 3 8 -4 10 -21 7
-18 -3 -24 -1 -19 7 4 6 13 11 21 11 8 0 16 3 18 8 7 10 -45 9 -61 -2 -7 -4
-11 -15 -8 -23 4 -9 -1 -21 -10 -28 -22 -16 -10 -35 23 -35 18 0 24 -4 19 -15
-4 -10 1 -15 14 -15 11 0 20 -4 20 -8 0 -5 10 -18 21 -31 l21 -23 -23 4 c-16
2 -24 9 -23 21 1 10 -5 17 -17 17 -26 0 -24 -25 3 -44 12 -9 17 -16 10 -16
-23 0 -50 37 -45 62 3 18 0 27 -12 32 -14 5 -16 2 -12 -16 6 -22 5 -22 -8 -4
-10 14 -12 22 -4 27 7 4 5 8 -4 12 -16 6 -17 23 -4 45 5 7 3 12 -7 12 -9 0
-16 -4 -16 -10 0 -5 -7 -10 -15 -10 -8 0 -15 8 -15 18 0 11 -3 13 -8 6 -4 -7
-13 1 -24 22 -12 24 -13 32 -4 28 8 -3 16 4 19 15 3 14 13 21 29 20 12 0 17
-3 11 -6 -23 -9 -15 -32 8 -26 16 4 20 2 17 -8 -3 -8 -18 -14 -36 -14 -16 0
-28 -3 -26 -7 3 -4 23 -7 45 -6 22 1 35 4 29 8 -18 11 16 33 40 25 17 -5 20
-2 20 19 0 28 3 29 38 20z m9132 -248 c116 -5 110 -4 110 -16 0 -5 -13 -10
-30 -10 -20 0 -30 -5 -30 -15 0 -17 -2 -17 -195 -15 -66 1 -124 5 -128 9 -4 4
-3 19 2 33 10 26 11 26 93 22 46 -3 126 -6 178 -8z m-2539 -38 c1 -7 1 -16 0
-20 0 -5 5 -7 11 -5 7 1 14 -8 16 -20 2 -13 10 -23 18 -23 8 0 15 -8 15 -17 1
-17 2 -17 6 0 8 32 31 18 38 -23 4 -22 11 -38 16 -34 5 3 9 -2 9 -10 0 -9 -4
-16 -9 -16 -5 0 -8 -11 -8 -24 0 -19 4 -22 19 -18 17 4 19 2 13 -19 -10 -33
-14 -36 -26 -19 -8 12 -10 10 -6 -9 4 -15 -1 -31 -14 -44 -23 -25 -25 -39 -4
-31 8 4 15 10 15 14 0 5 9 6 20 3 20 -5 28 11 10 22 -14 9 -1 32 21 38 10 3
19 10 19 16 0 6 -7 8 -15 5 -11 -5 -13 -2 -9 10 3 9 12 16 19 16 18 0 38 27
30 40 -3 6 -11 7 -17 4 -6 -4 -5 -10 3 -16 10 -7 9 -8 -5 -4 -11 4 -23 1 -27
-6 -4 -7 -12 -9 -16 -4 -4 4 8 21 27 37 41 35 52 28 56 -38 6 -75 6 -77 17
-90 7 -9 5 -13 -7 -13 -22 0 -21 -20 2 -20 14 -1 12 -3 -6 -13 -12 -7 -20 -16
-16 -19 3 -4 3 -12 -1 -18 -5 -8 -11 -8 -21 1 -18 15 -18 8 1 -27 13 -26 13
-29 0 -32 -13 -3 -19 -26 -18 -69 0 -6 -6 -9 -13 -6 -16 6 -19 23 -3 23 5 0 7
5 3 12 -6 9 -9 9 -12 0 -2 -7 -8 -10 -13 -7 -5 4 -6 -2 -2 -11 5 -13 3 -16
-10 -11 -9 3 -19 2 -22 -3 -4 -6 5 -10 19 -10 24 0 25 -2 14 -22 -7 -12 -19
-28 -25 -36 -11 -11 -13 -11 -13 2 0 9 5 16 10 16 20 0 10 28 -12 34 -18 5
-20 8 -9 15 9 6 11 16 6 27 -5 13 -9 15 -12 7 -3 -7 -13 -13 -24 -13 -10 0
-19 -5 -19 -11 0 -5 -5 -7 -11 -3 -8 5 -4 13 12 26 24 19 24 19 2 13 -23 -6
-27 2 -24 45 1 22 -19 48 -26 33 -7 -18 -30 -16 -36 1 -4 10 -1 13 10 9 8 -3
18 -1 22 4 3 6 20 17 36 26 17 9 24 16 17 17 -9 0 -11 7 -7 20 4 14 2 20 -9
20 -8 0 -18 -4 -21 -10 -3 -5 -14 -9 -23 -9 -15 1 -15 2 1 6 9 2 17 8 17 13 0
8 39 23 54 21 11 -2 36 19 36 31 0 11 -42 0 -50 -13 -3 -5 -17 -10 -30 -11
-22 -3 -25 1 -25 30 -1 18 -7 37 -15 42 -11 7 -12 14 -2 34 8 19 8 26 -1 30
-9 3 -8 7 2 14 12 8 12 13 2 25 -9 12 -9 16 1 19 10 4 10 8 -1 21 -12 15 -11
17 2 17 10 0 14 6 11 15 -4 8 -1 15 5 15 6 0 12 -6 12 -12z m3018 -96 c1 -9 2
-29 2 -44 0 -20 8 -30 33 -42 42 -20 47 -20 40 -1 -4 8 -10 12 -15 9 -5 -3 -9
-1 -9 4 0 17 40 21 48 5 7 -12 10 -12 21 1 18 22 34 20 91 -11 41 -22 49 -31
44 -47 -5 -17 -4 -19 7 -8 20 19 31 14 19 -8 -12 -22 -1 -27 18 -8 9 9 12 8
12 -7 0 -10 7 -27 17 -37 27 -30 8 -31 -41 -4 -25 14 -46 22 -46 17 0 -5 7
-11 15 -15 8 -3 15 -10 15 -15 0 -5 -27 1 -60 15 -66 27 -74 28 -65 14 3 -5 1
-10 -5 -10 -6 0 -11 -10 -10 -22 1 -13 1 -27 0 -33 -2 -5 -4 -23 -5 -40 -8
-96 -15 -138 -26 -151 -15 -19 -29 -18 -29 2 0 8 -4 13 -10 9 -5 -3 -7 -12 -3
-20 4 -11 -3 -15 -27 -15 -21 0 -30 4 -27 13 2 6 9 12 15 12 5 0 14 4 19 8 4
5 -3 7 -17 5 -16 -2 -26 -11 -30 -28 -4 -16 -12 -24 -22 -22 -9 1 -19 -2 -23
-8 -10 -17 -25 -11 -25 10 0 10 9 24 20 30 27 14 25 24 -5 38 -23 11 -24 14
-13 34 16 29 29 38 42 31 5 -4 6 -1 0 8 -5 8 -9 18 -9 23 0 5 -5 11 -11 13 -7
2 -15 -11 -18 -29 -4 -18 -16 -44 -27 -57 -16 -20 -22 -22 -32 -11 -9 10 -9
13 1 17 6 3 12 9 12 14 0 5 -6 9 -12 9 -17 0 -54 56 -50 75 2 8 -2 15 -8 15
-5 0 -10 5 -10 11 0 5 5 7 10 4 6 -3 10 -1 10 4 0 6 7 11 16 11 8 0 12 5 8 11
-3 6 -19 9 -34 5 -32 -6 -40 10 -32 63 3 22 9 31 18 27 8 -3 14 1 14 9 0 8 5
15 10 15 6 0 10 7 10 16 0 11 6 14 21 9 20 -7 21 -4 15 21 -4 19 -4 24 3 15 5
-8 16 -11 24 -8 14 5 29 -13 31 -38 1 -5 10 -11 21 -13 18 -2 20 2 17 48 -2
28 -1 57 2 65 7 19 32 9 35 -13z m-3764 -63 c-12 -36 -37 -60 -52 -48 -7 6
-10 15 -7 20 3 5 0 9 -7 9 -7 0 -9 -9 -5 -22 3 -13 6 -29 6 -36 0 -10 5 -10
23 -1 12 7 26 17 30 23 5 6 5 0 2 -13 -5 -15 -3 -21 3 -17 6 4 16 -3 22 -14 8
-16 8 -20 -4 -20 -8 0 -17 6 -19 13 -3 7 -6 5 -6 -6 -1 -14 -5 -16 -20 -7 -11
5 -30 10 -42 10 -22 0 -22 0 -3 -16 18 -15 18 -15 -7 -10 -21 5 -28 1 -32 -15
-5 -18 -2 -20 25 -14 21 5 28 4 24 -4 -4 -6 -11 -9 -15 -6 -5 2 -6 -7 -3 -20
5 -27 22 -34 22 -9 0 8 4 12 10 9 6 -4 3 -16 -8 -33 -13 -20 -18 -22 -20 -10
-2 11 -9 15 -20 11 -14 -6 -15 -4 -5 8 11 13 8 19 -12 37 -14 13 -25 33 -25
47 0 14 -4 25 -9 25 -19 0 -7 -65 14 -77 18 -11 15 -12 -22 -11 -29 1 -43 6
-43 15 0 7 7 13 15 13 23 0 13 33 -19 65 -18 18 -24 31 -18 37 13 13 32 2 32
-18 0 -12 3 -12 13 -2 8 7 12 20 9 30 -3 13 4 21 27 29 17 6 31 15 31 20 0 14
64 11 78 -3 10 -10 14 -8 18 10 4 12 11 22 16 22 5 0 6 -9 3 -21z m4377 -60
c16 -19 34 -27 24 -10 -8 12 26 9 40 -4 7 -6 8 -12 3 -16 -6 -3 8 -11 30 -18
25 -7 42 -19 46 -33 6 -16 9 -17 16 -7 13 22 78 -15 161 -94 14 -13 23 -16 30
-9 16 16 1 42 -23 42 -32 0 -89 62 -82 89 4 17 10 20 27 15 11 -4 23 -11 24
-15 2 -5 11 -9 20 -9 29 0 82 -24 82 -37 0 -7 -4 -13 -9 -13 -5 0 -12 -7 -15
-16 -5 -13 -2 -15 13 -11 19 5 31 -10 31 -38 0 -9 -10 -12 -30 -10 -16 2 -32
0 -35 -6 -6 -9 83 -139 96 -139 12 0 20 32 13 53 -5 16 -3 19 11 14 9 -4 29
-7 44 -7 57 0 59 -92 3 -103 -15 -3 -28 -2 -30 1 -7 19 -21 36 -26 31 -3 -2 3
-23 14 -46 12 -28 15 -44 8 -51 -6 -6 -8 -18 -4 -28 5 -13 9 -15 18 -6 9 9 16
8 29 -4 26 -24 66 -27 78 -7 12 21 13 16 16 -52 1 -27 4 -66 7 -85 3 -19 3
-27 1 -17 -2 9 -13 22 -24 28 -11 5 -17 14 -14 19 4 6 -2 7 -11 3 -11 -4 -13
-8 -6 -11 7 -2 12 -8 12 -14 0 -5 7 -16 15 -25 9 -8 13 -18 10 -22 -4 -3 -15
5 -25 19 -26 35 -45 16 -25 -24 9 -17 12 -33 6 -40 -5 -6 -12 -21 -16 -34 -6
-21 -4 -22 21 -16 23 6 26 4 21 -10 -4 -9 -10 -23 -13 -31 -3 -8 -2 -15 4 -15
6 0 15 14 21 31 7 20 15 28 23 23 6 -4 23 -8 36 -9 20 -1 21 1 7 11 -15 11
-11 18 29 59 25 25 46 53 46 61 0 8 10 14 25 14 27 0 30 -6 16 -43 -6 -16 -24
-30 -45 -38 -19 -7 -38 -19 -41 -26 -2 -8 -1 -11 4 -8 5 3 13 0 17 -6 4 -6 -1
-16 -10 -21 -19 -11 -22 -30 -2 -22 18 7 32 -46 16 -56 -9 -5 -9 -9 -1 -14 6
-4 15 -5 19 -2 4 2 14 0 22 -5 13 -8 13 -10 0 -19 -13 -8 -12 -10 3 -10 9 0
17 -4 17 -10 0 -5 -6 -10 -13 -10 -7 0 -22 -6 -33 -14 -15 -12 -17 -17 -6 -27
6 -7 12 -17 12 -22 0 -12 -53 1 -61 15 -5 7 -13 6 -27 -3 -14 -10 -16 -17 -8
-25 6 -5 14 -11 19 -11 96 -14 123 -35 37 -29 -27 2 -50 0 -50 -5 0 -5 8 -9
18 -10 27 -1 85 -8 110 -14 38 -9 24 -25 -24 -25 -29 0 -43 -4 -39 -11 4 -6
14 -8 22 -5 9 4 21 -1 28 -10 14 -20 51 -28 60 -13 4 5 1 16 -5 24 -9 11 -9
15 -1 15 6 0 11 -4 11 -10 0 -5 7 -7 15 -4 8 3 26 -4 41 -15 15 -12 33 -21 40
-21 8 0 14 -5 14 -11 0 -7 -12 -9 -35 -5 -23 5 -35 3 -35 -4 0 -6 -5 -8 -11
-4 -6 3 -14 1 -18 -5 -4 -6 -18 -14 -31 -16 -18 -3 -21 -2 -12 7 21 21 13 27
-15 13 -16 -8 -28 -23 -28 -32 0 -14 -9 -18 -45 -19 -25 0 -58 6 -74 14 l-28
14 16 -23 c21 -30 20 -39 -3 -39 -14 0 -18 5 -14 20 5 17 0 20 -31 20 -20 0
-36 -5 -36 -11 0 -6 9 -9 20 -6 18 4 20 2 14 -16 -3 -12 -13 -28 -23 -35 -36
-28 -91 -85 -91 -96 0 -6 -9 -22 -20 -36 -11 -14 -20 -32 -20 -42 0 -9 -5 -18
-11 -20 -8 -3 -11 -32 -10 -87 l2 -84 -31 31 c-19 19 -32 43 -33 62 -3 37 -17
40 -17 3 0 -16 -4 -35 -10 -43 -6 -9 -5 -17 2 -21 5 -3 8 -13 6 -21 -5 -23
-66 -3 -70 23 -2 11 -7 19 -12 19 -5 -1 -13 5 -18 14 -7 12 -14 13 -38 4 -27
-9 -35 -6 -80 27 -56 41 -54 32 -26 157 l11 50 100 51 101 52 -1 40 c0 34 4
40 22 43 24 4 50 29 39 39 -3 3 -24 1 -47 -6 -22 -7 -43 -10 -46 -7 -3 2 0 21
7 41 10 30 9 44 -6 88 -10 29 -22 57 -26 63 -4 6 -15 51 -23 100 -19 109 -104
360 -210 619 -20 50 -43 110 -51 135 -9 25 -24 53 -35 62 -14 11 -18 24 -14
37 5 17 10 18 43 9 20 -5 44 -18 54 -29z m1077 -779 c5 -32 4 -53 -3 -61 -8
-8 -8 -13 2 -16 12 -5 17 -35 6 -46 -9 -8 -54 14 -48 24 14 23 -10 27 -39 7
-38 -27 -77 -34 -89 -16 -7 10 -11 9 -19 -4 -5 -10 -17 -18 -25 -18 -12 0 -13
4 -4 21 7 11 14 18 17 16 3 -3 20 3 39 14 42 23 54 24 54 3 0 -9 6 -14 13 -11
6 2 11 10 9 17 -5 24 10 50 29 50 12 0 23 10 30 26 13 36 5 41 -23 15 -33 -32
-35 -6 -2 29 33 35 41 28 53 -50z m-7192 -453 c16 -10 36 -99 24 -106 -5 -3
-11 -20 -13 -36 -4 -38 -29 -39 -42 -2 -7 19 -7 34 1 46 9 14 7 20 -8 30 -23
14 -39 7 -39 -18 0 -9 -6 -23 -12 -29 -10 -10 -10 -15 2 -22 8 -5 23 -10 33
-10 19 0 23 -26 5 -33 -10 -3 -10 -7 0 -19 10 -13 8 -17 -18 -28 -16 -7 -34
-18 -40 -26 -16 -18 -3 -55 16 -47 9 3 12 12 9 24 -8 23 14 34 48 25 20 -5 24
-12 25 -51 0 -40 -3 -46 -30 -60 -17 -8 -43 -15 -58 -15 -32 0 -50 -17 -50
-45 0 -18 5 -21 30 -17 24 3 30 1 30 -15 0 -10 -7 -29 -16 -41 -19 -27 -12
-41 19 -35 20 4 25 -1 36 -38 12 -40 14 -42 27 -24 8 10 14 38 14 61 0 51 15
64 43 36 19 -19 19 -24 7 -68 -10 -36 -11 -49 -2 -52 7 -2 12 -10 12 -18 0 -8
7 -14 15 -14 19 0 19 2 -5 -48 -20 -41 -22 -43 -58 -36 -20 4 -44 10 -53 15
-9 5 -31 4 -50 -1 -48 -14 -48 -14 -65 25 -16 40 -18 96 -4 145 8 28 7 37 -5
46 -12 9 -14 23 -10 62 8 72 -22 83 -57 21 -10 -17 -22 -27 -28 -24 -15 9 -12
41 5 55 11 9 15 26 13 52 -5 60 -29 52 -43 -15 -3 -15 -10 -25 -15 -22 -11 7
-12 111 -2 169 7 37 8 38 50 40 24 1 66 -5 93 -14 53 -18 58 -16 32 12 -13 14
-14 21 -5 30 13 13 17 78 4 78 -4 0 -17 -7 -30 -15 -21 -15 -23 -14 -42 17
-39 64 -33 68 88 65 60 -2 113 -7 119 -10z m326 -173 c10 -3 17 -15 17 -29 0
-13 8 -28 18 -34 15 -9 13 -14 -19 -48 -19 -21 -41 -51 -48 -68 -12 -29 -13
-29 -27 -10 -8 11 -12 30 -9 42 4 15 0 23 -14 28 -15 5 -20 17 -23 61 -1 30 2
60 7 65 9 9 53 6 98 -7z m-774 -225 c43 -13 47 -19 30 -47 -8 -13 -6 -27 7
-57 18 -42 19 -91 3 -134 -8 -19 -12 -22 -18 -12 -5 8 -11 9 -15 3 -3 -5 3
-17 14 -27 39 -35 19 -61 -50 -66 l-45 -4 -17 75 c-18 75 -18 75 4 93 12 10
23 28 24 40 1 12 3 25 3 30 1 4 9 8 19 8 14 1 14 2 1 6 -9 2 -20 23 -27 51
-11 50 -8 66 13 58 7 -2 31 -10 54 -17z m769 -167 c7 -1 12 -10 11 -19 -3 -32
1 -44 11 -38 19 12 37 -13 32 -45 -5 -32 -38 -55 -100 -70 -26 -6 -34 -5 -42
10 -17 32 -12 78 10 90 33 18 12 33 -36 26 -41 -5 -44 -4 -44 18 0 12 2 25 4
27 4 4 123 4 154 1z"/>
<path d="M1966 9975 c-3 -8 -12 -15 -21 -15 -8 0 -15 -3 -15 -7 0 -5 -11 -21
-24 -38 -21 -26 -26 -28 -40 -16 -14 12 -16 12 -11 -2 4 -8 2 -18 -4 -22 -6
-3 -11 -24 -11 -46 0 -21 -4 -39 -10 -39 -13 0 -14 -689 -1 -709 5 -8 11 69
16 190 5 150 10 213 22 238 19 41 133 439 133 463 0 22 -26 24 -34 3z"/>
<path d="M4736 9737 c-5 -15 -5 -42 -2 -61 l6 -34 -35 34 c-42 40 -102 58
-168 51 -46 -4 -96 -30 -104 -54 -2 -6 18 -16 44 -22 64 -17 175 -60 192 -76
17 -17 7 -65 -14 -65 -9 0 -24 -5 -34 -12 -16 -9 -30 -7 -78 14 -32 15 -81 36
-110 47 l-52 20 -4 -132 c-2 -73 -3 -334 -3 -582 1 -507 -2 -483 79 -549 35
-28 45 -31 110 -31 57 0 80 5 107 22 76 47 81 78 84 503 l3 295 26 5 c19 4 24
9 18 19 -5 7 -13 11 -19 7 -5 -3 -18 10 -27 30 -14 30 -15 38 -4 45 8 5 18 9
22 9 10 0 -2 44 -14 48 -4 2 -5 11 -2 19 5 12 2 15 -9 11 -8 -4 -21 -2 -29 3
-10 6 -5 9 18 9 25 0 43 -10 78 -46 27 -27 52 -43 60 -40 8 3 21 -4 29 -16 15
-21 16 -21 35 -4 12 11 21 14 26 7 3 -6 12 -11 18 -10 9 0 9 2 0 6 -16 6 -17
33 -3 33 6 0 13 -7 16 -15 4 -8 10 -13 14 -10 4 3 14 -3 21 -12 8 -9 9 -14 2
-10 -19 12 -45 -4 -37 -22 3 -9 7 -25 8 -36 1 -16 8 -20 34 -19 17 1 32 -2 32
-8 0 -5 -4 -6 -10 -3 -5 3 -10 -3 -10 -14 0 -27 20 -27 27 -1 3 11 12 20 20
20 12 0 14 7 10 30 -4 17 -2 30 3 30 5 0 7 7 4 15 -4 8 -1 15 6 15 10 0 10 3
1 14 -10 12 -7 17 16 28 18 8 29 22 31 39 3 23 -2 28 -42 39 -26 7 -46 16 -46
20 0 4 -10 10 -23 14 -13 3 -40 17 -60 30 -20 14 -37 21 -37 16 0 -5 -7 -7
-15 -4 -8 4 -12 11 -8 17 4 6 0 8 -10 4 -9 -3 -19 -2 -22 3 -9 15 -25 12 -25
-5 0 -8 -5 -15 -11 -15 -5 0 -8 4 -4 9 3 5 1 12 -5 16 -5 3 -10 1 -10 -6 0
-10 -3 -10 -12 -1 -13 13 -29 16 -27 5 3 -20 -2 -23 -16 -10 -8 9 -19 17 -24
19 -5 1 -13 77 -18 168 -6 112 -12 156 -17 137z m-6 -757 l0 -130 -100 0 -100
0 0 130 0 130 100 0 100 0 0 -130z"/>
<path d="M583 9665 c2 -59 4 -66 25 -71 15 -4 23 -14 24 -33 3 -48 -1 -74 -14
-83 -10 -8 -10 -11 0 -15 14 -6 16 -39 2 -48 -7 -4 -7 -12 0 -25 7 -13 7 -21
-1 -25 -6 -4 -8 -13 -5 -21 3 -8 2 -34 -3 -58 -5 -29 -4 -49 2 -55 8 -8 7 -11
-1 -11 -7 0 -12 -7 -12 -15 0 -9 6 -12 18 -9 13 5 12 2 -4 -13 -18 -15 -21
-28 -20 -82 2 -36 7 -66 12 -68 5 -2 7 -31 6 -65 -2 -35 -5 -78 -5 -95 -1 -18
-6 -33 -11 -33 -8 0 -5 -18 10 -54 5 -14 4 -17 -4 -12 -9 5 -12 -10 -12 -53 0
-38 4 -61 11 -61 7 0 4 -11 -6 -26 -9 -15 -11 -23 -4 -19 9 6 11 -1 6 -28 -3
-21 -2 -37 4 -37 18 0 9 -48 -12 -62 -20 -13 -20 -16 -8 -37 11 -19 12 -25 1
-28 -10 -4 -9 -11 4 -31 12 -18 13 -27 6 -30 -18 -6 -14 -32 3 -32 9 0 18 -7
21 -15 9 -22 70 -38 125 -33 27 3 51 7 53 9 2 2 7 27 11 56 6 46 4 52 -15 58
-14 4 -19 12 -16 22 3 8 6 20 6 26 0 7 5 4 11 -5 15 -27 26 -21 21 12 -3 18 0
30 7 30 6 0 11 -12 12 -27 0 -21 2 -24 7 -10 4 9 7 109 7 222 -1 113 2 210 5
216 4 6 8 -22 9 -63 1 -40 4 -82 6 -93 2 -11 4 -23 4 -27 1 -5 4 -8 9 -8 4 0
8 35 9 77 2 131 6 163 16 163 9 0 6 80 -10 285 -9 123 -5 255 8 255 5 0 9 -16
9 -35 0 -20 5 -35 11 -35 9 0 10 22 5 78 -9 107 -23 151 -60 188 -41 41 -89
54 -198 54 l-87 0 2 -65z"/>
<path d="M7076 7965 c-38 -41 -48 -134 -21 -198 17 -42 36 -54 96 -62 75 -11
89 -15 89 -29 0 -8 7 -17 16 -20 8 -3 13 -10 9 -15 -3 -6 -6 -72 -7 -148 -1
-75 -5 -155 -10 -177 -10 -46 -42 -94 -72 -107 -16 -7 -9 -8 27 -5 46 3 47 3
47 -25 0 -15 5 -31 12 -35 8 -5 9 3 5 30 -5 34 -2 41 29 68 55 49 65 101 62
328 l-3 194 -112 0 -113 1 0 113 c0 94 -2 112 -15 112 -9 0 -26 -11 -39 -25z"/>
<path d="M9744 8856 c-3 -8 -17 -17 -31 -21 -19 -4 -24 -11 -20 -25 3 -10 1
-20 -3 -22 -4 -2 -17 -34 -27 -73 l-20 -70 -71 -3 c-40 -2 -72 -4 -72 -6 0 -2
7 -17 15 -32 17 -33 20 -74 5 -74 -5 0 -10 -8 -10 -19 0 -10 -7 -25 -16 -32
-15 -12 -16 -11 -10 11 l7 25 -20 -23 c-18 -21 -19 -33 -15 -135 3 -89 1 -117
-11 -132 -9 -12 -14 -15 -15 -7 0 7 -4 10 -10 7 -5 -3 -10 -23 -10 -43 1 -34
2 -35 14 -19 12 16 14 9 13 -55 -1 -60 5 -176 12 -235 0 -7 11 -13 24 -13 13
0 28 -5 34 -11 9 -9 20 -4 44 20 36 36 49 35 25 -2 -9 -13 -14 -32 -10 -41 4
-9 0 -24 -8 -34 -28 -32 -33 -46 -14 -39 19 7 19 7 -1 -40 -3 -7 -1 -13 5 -13
6 0 8 -9 5 -21 -6 -21 10 -39 34 -39 22 0 27 49 7 71 -13 15 -15 22 -6 31 7 7
12 24 12 39 0 15 4 30 9 33 13 9 34 -21 34 -49 0 -13 8 -32 19 -42 11 -10 25
-29 31 -43 10 -24 11 -25 14 -3 3 13 10 20 17 17 10 -4 11 6 5 48 -14 92 -18
101 -39 95 -11 -3 -20 -1 -20 4 0 5 9 9 21 9 17 0 20 4 15 28 -3 15 -13 101
-21 190 -9 96 -22 176 -30 192 -19 36 -19 58 -1 76 23 22 27 17 23 -25 -5 -48
15 -80 38 -61 17 14 20 46 5 55 -5 3 -7 12 -3 20 6 18 -13 20 -21 3 -3 -7 -3
-3 0 10 3 13 1 22 -6 22 -6 0 -8 5 -5 10 4 6 -7 13 -24 16 -17 4 -28 10 -26
14 7 11 -6 41 -15 35 -4 -2 -16 19 -27 48 -17 48 -18 56 -4 76 12 20 13 24 0
32 -8 5 -9 9 -3 9 6 0 23 -11 38 -25 15 -14 31 -25 37 -25 5 0 9 -7 9 -15 0
-8 5 -15 10 -15 6 0 10 -7 10 -15 0 -8 5 -15 11 -15 5 0 8 -4 5 -9 -3 -5 4
-11 15 -14 17 -5 20 -11 17 -31 -3 -14 -1 -26 3 -26 16 0 53 -44 41 -48 -7 -2
-12 -10 -12 -18 0 -7 6 -11 14 -8 9 3 17 -3 21 -15 3 -12 11 -21 17 -21 6 0 8
-9 5 -20 -4 -18 -2 -20 16 -14 l22 6 -20 -21 c-61 -64 -56 -61 -72 -45 -8 7
-16 14 -18 14 -8 0 16 -65 25 -68 6 -2 10 -10 10 -17 0 -17 87 -85 109 -85 9
0 22 -9 29 -20 7 -11 19 -20 27 -20 8 0 15 -4 15 -10 0 -5 8 -10 18 -10 16 1
16 1 0 11 -20 11 -24 44 -8 54 6 3 10 14 10 23 -1 15 -2 15 -15 -2 -13 -18
-14 -17 -20 7 -4 14 -4 30 -1 36 9 14 -14 25 -27 12 -8 -8 -8 -11 1 -11 7 0
12 -5 12 -12 0 -6 -7 -4 -18 5 -10 10 -25 17 -33 18 -8 0 -4 4 8 9 21 8 22 12
10 37 l-12 27 -5 -30 c-4 -23 -7 -25 -12 -11 -9 22 0 47 17 47 7 0 18 7 25 15
10 12 9 16 -3 21 -9 3 -16 17 -16 32 0 44 -4 62 -13 62 -4 0 -8 12 -8 28 0 15
-9 47 -21 71 -11 25 -15 47 -10 50 5 3 9 19 9 35 0 16 -4 23 -8 16 -6 -9 -9
-9 -16 1 -4 7 -3 14 4 17 13 4 17 23 5 21 -25 -4 -43 3 -43 16 0 18 17 20 23
3 2 -7 8 -10 12 -6 5 5 0 17 -10 28 -19 22 -7 28 14 8 10 -11 11 -7 8 17 -3
24 -8 29 -25 27 -19 -3 -22 2 -22 30 0 19 -4 38 -9 44 -4 5 -11 26 -14 47 -5
31 -3 38 8 33 22 -8 18 22 -4 34 -26 13 -31 13 -37 -4z"/>
<path d="M8765 7998 c-2 -7 -3 -29 -1 -48 2 -19 4 -47 5 -62 0 -18 7 -28 16
-28 9 0 15 -7 13 -17 -4 -23 32 -30 44 -9 5 9 16 16 24 16 8 0 12 5 9 10 -8
13 17 38 33 32 6 -2 12 1 12 7 0 6 9 11 20 11 59 0 -19 60 -98 76 -18 4 -35
11 -38 15 -8 13 -34 11 -39 -3z"/>
<path d="M4346 3285 c13 -38 12 -139 -2 -169 -19 -40 -18 -46 11 -46 25 0 55
-41 55 -74 0 -8 11 -16 27 -18 20 -2 32 -14 50 -47 30 -57 29 -56 48 -37 9 9
13 16 9 16 -3 0 -1 7 6 15 7 9 21 13 31 10 21 -7 26 10 7 22 -7 4 -31 10 -53
13 -35 4 -40 8 -40 32 0 14 -9 37 -21 50 -43 48 -64 95 -64 143 0 38 -4 48
-20 52 -11 3 -20 8 -20 12 0 4 -7 16 -16 27 -15 19 -16 19 -8 -1z"/>
<path d="M12072 3982 c-10 -7 -10 -16 -1 -43 7 -19 15 -38 19 -44 5 -5 22 -49
39 -97 17 -48 37 -98 46 -112 9 -13 18 -40 20 -61 7 -51 52 -196 68 -220 8
-11 20 -38 27 -60 18 -56 78 -170 98 -188 9 -8 49 -25 89 -37 69 -21 116 -50
80 -50 -8 0 -17 -7 -21 -15 -3 -9 0 -15 10 -15 8 0 13 4 9 9 -8 14 31 23 68
16 l32 -6 -29 15 c-15 9 -37 16 -47 16 -11 0 -19 3 -19 8 0 8 -49 36 -92 51
-19 7 -41 35 -73 88 l-46 78 5 115 c7 192 -9 250 -103 370 -38 49 -46 66 -34
68 11 3 2 16 -32 49 -32 30 -54 43 -66 40 -11 -3 -22 -1 -25 4 -3 5 0 9 6 9 6
0 8 5 5 10 -7 12 -16 12 -33 2z"/>
<path d="M12507 10517 c23 -12 72 -38 110 -58 180 -96 437 -202 466 -193 18 6
9 13 -48 42 -85 42 -326 146 -415 177 -36 13 -82 31 -102 39 -54 23 -60 19
-11 -7z"/>
</g>
</svg>
