<?xml version="1.0" standalone="no"?>
<!DOCTYPE svg PUBLIC "-//W3C//DTD SVG 20010904//EN"
 "http://www.w3.org/TR/2001/REC-SVG-20010904/DTD/svg10.dtd">
<svg version="1.0" xmlns="http://www.w3.org/2000/svg"
 width="1920.000000pt" height="1080.000000pt" viewBox="0 0 1920.000000 1080.000000"
 preserveAspectRatio="xMidYMid meet">
<metadata>
Created by potrace 1.15, written by Peter Selinger 2001-2017
</metadata>
<g transform="translate(0.000000,1080.000000) scale(0.100000,-0.100000)"
fill="#000000" stroke="none">
<path d="M0 8475 c0 -1544 3 -2325 10 -2325 6 0 10 -123 11 -347 1 -192 4
-393 8 -447 5 -89 4 -100 -12 -104 -21 -5 -22 -18 -1 -30 12 -7 16 -23 16 -61
-1 -88 -2 -91 -14 -88 -6 1 -14 -6 -16 -15 -2 -11 2 -18 12 -18 12 0 16 -10
16 -35 0 -26 -3 -33 -15 -29 -13 5 -15 -201 -15 -1822 0 -1005 3 -1825 6
-1822 3 3 7 23 10 43 5 44 12 57 25 50 14 -10 12 -222 -3 -228 -10 -4 -10 -6
0 -6 9 -1 12 -38 12 -151 l0 -150 -25 0 -25 0 0 -445 0 -445 9600 0 9600 0 0
2994 c0 2066 -3 2997 -11 3001 -6 4 -7 11 0 18 12 16 6 68 -10 78 -10 6 -10
12 3 26 16 17 17 146 15 1728 0 941 -4 1658 -7 1595 -5 -93 -6 -72 -8 113 0
146 3 227 9 227 7 0 10 175 8 510 l-2 510 -1578 0 c-1046 0 -1579 -3 -1579
-10 0 -6 -32 -10 -75 -10 -43 0 -75 4 -75 10 0 7 -1460 10 -4360 10 l-4360 0
0 -25 0 -25 -134 0 -135 0 -4 28 -4 27 -2 -27 -1 -28 -105 0 -105 0 0 25 c0
25 -2 26 -59 23 -32 -2 -57 -6 -54 -10 2 -5 -7 -8 -21 -8 -14 0 -28 4 -31 10
-4 6 -1121 10 -3260 10 l-3255 0 0 -2325z m6678 2213 l3 -38 -440 0 -441 0 0
40 0 40 438 -2 437 -3 3 -37z m1523 -2953 c-18 -25 -28 -45 -22 -45 5 0 19 14
31 31 12 16 24 28 27 26 5 -6 -87 -127 -97 -127 -7 0 -45 -81 -55 -117 -4 -13
-1 -56 6 -96 8 -45 9 -79 3 -89 -8 -14 -275 -341 -421 -515 -29 -34 -53 -65
-53 -68 0 -3 46 -5 103 -5 56 0 152 -3 213 -6 l111 -7 27 -49 c15 -27 32 -48
36 -46 5 2 31 35 57 73 l48 70 447 0 c429 0 448 1 461 19 13 18 25 19 243 13
253 -8 446 -18 784 -43 173 -13 227 -20 235 -31 6 -8 29 -41 52 -72 30 -41 42
-66 40 -86 -2 -31 -16 -40 -117 -83 -74 -31 -494 -158 -637 -192 -29 -6 -53
-15 -53 -19 0 -9 300 -128 470 -187 74 -25 144 -50 155 -56 11 -5 4 5 -15 23
-23 21 -31 33 -22 36 10 4 9 9 -4 24 -9 11 -15 21 -13 22 2 2 57 23 122 47 65
24 124 48 132 54 15 12 255 487 255 505 0 15 43 19 245 26 99 3 275 13 390 20
116 8 262 15 325 16 63 0 169 7 235 15 193 24 317 36 321 32 16 -17 -30 -297
-52 -318 -10 -9 -277 -110 -292 -110 -11 0 -22 -48 -22 -99 0 -40 -31 -140
-74 -235 -32 -71 -32 -71 119 31 63 43 154 103 202 134 79 51 92 64 140 140
29 46 56 91 59 99 4 8 58 94 119 190 62 96 124 196 138 221 31 53 73 79 81 51
3 -9 1 -34 -3 -55 -5 -20 -7 -46 -4 -56 3 -10 0 -22 -6 -25 -18 -12 -12 -54
14 -106 l25 -50 -53 -93 c-30 -50 -93 -158 -140 -239 -48 -81 -87 -152 -87
-156 0 -5 -11 -26 -25 -46 -13 -20 -66 -118 -116 -219 -51 -100 -93 -183 -94
-185 -2 -2 -42 18 -89 45 -66 37 -86 53 -86 70 0 12 -5 23 -11 25 -7 2 -2 22
15 56 14 28 26 54 26 58 0 3 -28 -14 -62 -39 -35 -24 -99 -68 -143 -97 -44
-29 -99 -69 -123 -88 -39 -31 -44 -33 -65 -19 -60 39 -127 99 -121 108 3 6 -1
18 -10 28 -15 16 -15 22 3 72 23 66 107 271 131 319 43 86 50 85 -147 20 -98
-32 -319 -104 -492 -159 -198 -64 -318 -107 -327 -118 -7 -10 -57 -107 -111
-217 -231 -467 -249 -500 -282 -521 -18 -11 -60 -40 -93 -65 -34 -25 -84 -61
-112 -80 -40 -28 -58 -51 -93 -119 -23 -46 -47 -99 -54 -118 -6 -18 -25 -44
-43 -58 -34 -26 -52 -32 -41 -15 10 16 -7 12 -28 -7 -19 -17 -20 -17 -10 2 6
11 70 146 143 300 73 154 155 327 182 385 28 58 86 184 130 280 44 96 85 181
91 188 8 11 5 18 -13 32 -22 17 -27 17 -40 5 -11 -11 -11 -18 -2 -27 11 -11
-48 -75 -160 -176 l-25 -23 -73 20 c-71 20 -263 88 -480 169 -58 22 -183 74
-279 116 -96 43 -181 76 -189 74 -16 -3 -160 -303 -229 -475 -20 -51 -42 -93
-49 -93 -17 0 -149 148 -149 168 -1 10 -4 22 -8 28 -9 15 9 63 73 199 74 154
290 638 290 648 0 4 -6 5 -12 0 -7 -4 -95 -8 -196 -8 -166 0 -185 -2 -197 -18
-11 -15 -37 -20 -152 -29 -129 -9 -152 -16 -153 -42 0 -8 177 -4 435 11 l110
6 -20 -23 c-13 -15 -16 -24 -8 -27 11 -4 -55 -114 -77 -128 -9 -5 -510 -64
-552 -65 -15 0 -95 -117 -86 -126 2 -1 21 1 43 6 61 15 571 100 595 100 17 0
20 -4 15 -17 -4 -10 -8 -29 -10 -43 -1 -14 -16 -52 -33 -86 l-30 -60 -139 -23
c-172 -28 -436 -84 -547 -116 -151 -44 -152 -44 -223 15 -37 29 -63 59 -63 70
0 10 -5 20 -12 22 -14 5 15 51 165 262 54 76 97 140 95 141 -2 2 -46 -29 -98
-68 -105 -79 -245 -182 -444 -328 -70 -52 -211 -156 -313 -231 l-185 -137 -86
57 c-182 121 -213 145 -207 160 3 9 0 19 -6 23 -19 11 176 272 506 678 166
204 193 236 410 481 72 81 155 177 185 213 36 43 63 66 77 66 12 1 25 6 29 12
3 6 21 17 39 24 20 9 46 36 71 72 21 32 58 79 81 105 24 26 43 54 43 62 0 16
131 158 139 151 2 -3 -10 -25 -28 -50z m-1941 -342 c30 -20 60 -41 65 -45 6
-5 31 -22 58 -38 51 -32 58 -45 27 -55 -26 -8 -25 -21 2 -36 21 -11 13 -17
-97 -70 l-120 -59 -95 12 -96 11 -204 -113 c-249 -137 -819 -454 -950 -527
l-95 -54 185 4 c102 3 352 12 555 21 312 14 382 20 448 38 91 24 98 22 175
-47 38 -35 63 -48 93 -52 24 -4 43 -12 47 -22 3 -9 14 -23 23 -31 10 -8 20
-28 23 -45 5 -27 -1 -38 -59 -99 -55 -57 -69 -67 -88 -61 -29 9 -207 7 -332
-5 -140 -13 -399 -29 -600 -36 -93 -3 -177 -8 -185 -11 -8 -2 -168 -9 -355
-14 -187 -5 -387 -13 -445 -18 -58 -6 -145 -11 -195 -12 l-90 -2 -140 62
c-134 60 -305 147 -305 156 0 3 14 12 31 21 20 10 63 17 117 18 75 3 100 9
182 44 52 22 128 50 167 63 55 18 71 28 68 40 -4 11 15 24 72 49 43 19 114 51
158 71 44 20 206 94 360 164 286 129 826 390 902 435 23 14 77 46 120 71 43
26 128 68 188 95 61 26 123 56 138 67 15 10 34 16 43 13 8 -3 36 3 62 14 66
27 80 25 142 -17z m9031 -222 c-25 -34 -27 -49 -6 -31 8 7 15 8 15 4 0 -11
-31 -43 -76 -79 -17 -13 -51 -54 -75 -91 l-44 -66 -179 -89 c-99 -49 -189 -97
-200 -108 -12 -10 -68 -43 -126 -73 -320 -166 -460 -241 -460 -247 0 -3 68
-46 150 -95 83 -49 150 -92 150 -96 0 -4 -8 -11 -17 -14 -15 -6 -15 -8 -3 -17
13 -8 13 -10 0 -20 -8 -6 -11 -12 -5 -15 40 -17 78 -49 89 -76 15 -34 193
-145 601 -373 247 -138 541 -309 567 -329 15 -11 27 -28 27 -37 1 -9 7 -22 15
-28 16 -13 27 -81 13 -81 -4 0 -5 -10 -1 -22 6 -19 4 -21 -7 -12 -8 7 -72 42
-144 79 -145 76 -425 224 -640 340 -308 166 -467 251 -570 305 -162 85 -259
140 -265 150 -6 10 -197 123 -274 162 -32 16 -64 27 -70 25 -7 -3 -32 -40 -54
-84 -23 -43 -55 -100 -70 -128 -15 -27 -52 -94 -81 -147 -29 -54 -55 -98 -57
-98 -8 0 -118 79 -153 109 -42 36 -39 51 29 172 32 58 47 94 43 108 -4 14 41
108 150 313 85 161 165 310 177 331 21 35 40 48 40 27 0 -6 50 -10 130 -10 72
0 130 -4 130 -8 0 -4 -6 -14 -12 -20 -9 -9 -10 -15 -2 -20 7 -4 -13 -51 -57
-132 -38 -68 -67 -126 -65 -128 2 -1 125 57 272 131 148 73 418 205 599 291
182 87 373 180 425 207 52 26 99 48 103 48 5 1 -1 -12 -12 -28z m-8815 -379
c4 -20 1 -105 -6 -190 -7 -84 -10 -155 -7 -158 3 -3 47 31 99 75 52 44 139
117 193 160 l100 80 158 1 c86 0 157 -4 157 -8 0 -4 -6 -14 -12 -21 -10 -11
-10 -14 -1 -18 16 -6 -161 -224 -917 -1132 -58 -69 -123 -150 -145 -178 -22
-29 -47 -52 -55 -51 -26 2 -73 -14 -140 -47 -36 -19 -76 -37 -90 -41 -14 -4
-32 -15 -41 -25 -9 -11 -21 -19 -27 -19 -12 0 -107 -107 -190 -216 -34 -44
-74 -86 -89 -93 l-28 -13 20 23 20 22 -32 -17 c-18 -9 -33 -14 -33 -11 0 3 28
40 63 83 35 42 105 129 155 192 51 63 105 131 121 150 15 19 103 134 195 255
286 378 325 427 427 542 54 61 99 114 99 118 0 3 -11 -1 -23 -10 -22 -14 -26
-13 -63 14 -80 59 -106 95 -120 168 -7 37 -13 116 -14 174 0 97 2 107 23 126
39 37 168 112 183 106 7 -3 17 -21 20 -41z m6380 -18 c-3 -8 -3 -26 0 -40 5
-19 13 -24 40 -24 33 0 34 0 58 -82 14 -46 41 -148 61 -228 20 -80 38 -152 41
-160 5 -14 43 49 146 240 60 113 129 229 142 239 6 5 63 10 126 12 98 3 114 2
111 -11 -2 -8 -4 -24 -4 -35 -1 -18 -100 -205 -261 -490 -28 -50 -80 -145
-116 -212 l-65 -121 -45 -5 c-25 -3 -67 -4 -94 -3 l-50 1 -50 199 c-47 191
-50 198 -65 176 -9 -12 -57 -93 -106 -179 l-90 -156 -110 -17 c-150 -22 -148
-22 -135 2 9 16 8 20 -5 20 -11 0 -4 22 31 93 59 117 172 326 239 442 29 50
83 150 119 223 37 72 72 132 78 132 5 0 7 -7 4 -16z m-1763 -1284 c52 -58 36
-110 -75 -238 -42 -49 -38 -54 45 -49 111 8 218 9 225 3 3 -3 -34 -6 -81 -6
-86 0 -87 0 -87 -25 l0 -25 -105 0 c-139 0 -139 3 -12 164 66 85 79 120 55
144 -21 21 -66 14 -84 -13 -17 -26 -64 -35 -64 -12 0 20 37 69 62 84 35 20 89
9 121 -27z m980 -1 c23 -25 27 -38 27 -84 l0 -55 33 -2 32 -1 -32 -4 -33 -4 0
-65 c0 -59 -3 -68 -29 -95 -21 -21 -39 -29 -64 -29 -47 0 -67 9 -60 26 3 9 -2
14 -14 14 -31 0 -43 43 -43 151 0 115 14 153 63 174 43 19 86 10 120 -26z
m1004 24 c4 -9 -5 -50 -20 -91 l-27 -73 272 3 c264 3 273 4 294 25 25 25 64
21 71 -8 3 -11 10 -16 16 -12 6 4 1 -8 -12 -25 -26 -37 -64 -43 -83 -12 -12
19 -24 20 -290 20 l-277 0 -6 -22 c-3 -13 -10 -32 -15 -43 -5 -11 -18 -42 -28
-70 -17 -49 -35 -63 -60 -47 -10 7 -1 40 42 151 31 79 56 150 56 158 0 12 -7
14 -31 9 -17 -3 -38 -6 -45 -6 -8 0 -14 -10 -14 -25 0 -20 -5 -25 -25 -25 -24
0 -25 3 -25 54 l0 54 100 1 c85 0 102 -2 107 -16z m983 -9 c0 -14 -9 -46 -19
-72 -11 -26 -36 -90 -56 -142 -20 -52 -43 -104 -50 -116 -15 -23 -62 -26 -57
-3 3 14 55 154 73 194 16 37 39 97 39 101 0 2 -20 4 -45 4 -41 0 -45 -2 -45
-25 0 -21 -5 -25 -30 -25 -30 0 -30 1 -30 55 l0 55 110 0 110 0 0 -26z"/>
<path d="M9242 6543 c-37 -90 -38 -88 14 -108 l46 -18 267 68 c146 38 282 73
301 79 l35 10 -45 7 c-25 4 -169 8 -321 8 l-277 1 -20 -47z"/>
<path d="M11355 6559 c-137 -10 -281 -22 -319 -26 l-69 -8 -42 -76 c-23 -42
-45 -89 -49 -104 -6 -23 -4 -27 11 -22 10 3 106 31 213 62 107 31 213 62 235
70 22 8 113 37 203 65 89 28 162 53 162 55 0 8 -75 4 -345 -16z"/>
<path d="M7403 6473 c-21 -25 -54 -65 -74 -87 -74 -84 -212 -259 -198 -251 34
20 391 262 463 314 l78 56 -43 7 c-24 3 -76 7 -116 7 l-72 1 -38 -47z"/>
<path d="M11955 5446 c-21 -31 -20 -190 1 -223 19 -29 69 -31 84 -4 5 11 10
63 10 116 0 53 -5 105 -10 116 -16 28 -65 25 -85 -5z"/>
</g>
</svg>
